<svg width="215" height="38" fill="none" xmlns="http://www.w3.org/2000/svg"><g clip-path="url(#clip0_15_1096)"><path d="M40.475 27.463c-.85-.392-1.518-.934-2.005-1.629-.484-.694-.734-1.495-.75-2.404h2.271c.077.78.394 1.44.948 1.972.554.535 1.361.8 2.426.8 1.064 0 1.815-.259 2.402-.776.587-.518.877-1.186.877-1.996 0-.637-.173-1.155-.514-1.557a3.307 3.307 0 00-1.287-.91c-.514-.207-1.212-.428-2.086-.67-1.077-.287-1.941-.576-2.589-.862a4.165 4.165 0 01-1.665-1.352c-.46-.614-.69-1.441-.69-2.477 0-.91.226-1.713.68-2.415.454-.701 1.091-1.243 1.909-1.628.82-.381 1.761-.575 2.822-.575 1.532 0 2.787.391 3.76 1.171.978.78 1.529 1.82 1.652 3.11h-2.342c-.076-.637-.407-1.199-.984-1.686-.578-.487-1.345-.729-2.296-.729-.89 0-1.618.235-2.178.705-.564.47-.845 1.128-.845 1.972 0 .607.167 1.1.504 1.482.337.382.75.674 1.241.872.494.201 1.185.426 2.076.681 1.077.303 1.945.603 2.602.896.658.297 1.218.75 1.688 1.363.468.613.705 1.447.705 2.5a4.44 4.44 0 01-.634 2.295c-.42.72-1.048 1.302-1.876 1.748-.827.446-1.805.67-2.93.67-1.123 0-2.041-.193-2.892-.585v.014zm13.333-.205c-.978-.558-1.742-1.352-2.295-2.38-.554-1.03-.831-2.221-.831-3.577 0-1.356.283-2.524.854-3.553.57-1.029 1.348-1.819 2.332-2.367.984-.552 2.085-.824 3.303-.824s2.319.275 3.303.824a5.983 5.983 0 012.333 2.357c.57 1.022.854 2.21.854 3.563 0 1.352-.294 2.548-.878 3.576-.587 1.029-1.378 1.823-2.379 2.381-1 .559-2.109.838-3.327.838-1.217 0-2.291-.28-3.27-.838zm5.425-1.628c.67-.368 1.214-.916 1.628-1.652.414-.732.62-1.628.62-2.68 0-1.053-.203-1.945-.61-2.681-.407-.733-.938-1.28-1.595-1.639a4.393 4.393 0 00-2.132-.538 4.42 4.42 0 00-2.145.538c-.648.358-1.168.906-1.558 1.639-.39.732-.587 1.628-.587 2.68 0 1.053.19 1.97.573 2.705.384.732.894 1.28 1.535 1.638.64.358 1.345.538 2.109.538a4.42 4.42 0 002.155-.551l.007.003zm8.905-15.454v17.702h-2.132V10.176h2.132zm14.554 4.595v13.11H80.56v-1.938a4.172 4.172 0 01-1.698 1.567 5.167 5.167 0 01-2.403.562c-1 0-1.898-.21-2.696-.633-.797-.423-1.424-1.056-1.885-1.9-.46-.846-.69-1.874-.69-3.087v-7.68h2.108v7.39c0 1.292.32 2.286.961 2.978.64.694 1.515 1.038 2.626 1.038s2.039-.357 2.696-1.076c.657-.718.984-1.76.984-3.134v-7.2h2.132l-.003.003zm6.208 1.795v7.729c0 .637.135 1.09.398 1.352.267.262.727.395 1.381.395h1.572v1.843h-1.922c-1.188 0-2.079-.28-2.672-.838-.594-.559-.891-1.475-.891-2.752v-7.729H85.1v-1.795h1.665v-3.3h2.132v3.3h3.35v1.795h-3.35.003zm6-4.356a1.446 1.446 0 01-.42-1.053c0-.415.14-.766.42-1.052.28-.286.624-.43 1.031-.43.407 0 .724.144.995.43.273.286.41.637.41 1.052 0 .416-.137.767-.41 1.053-.274.286-.608.429-.995.429s-.75-.143-1.03-.43zm2.062 2.561v13.11H94.83v-13.11h2.132zm5.495 12.487c-.978-.558-1.741-1.352-2.295-2.38-.554-1.03-.831-2.221-.831-3.577 0-1.356.284-2.524.854-3.553.57-1.029 1.348-1.819 2.332-2.367.985-.552 2.086-.824 3.303-.824 1.218 0 2.32.275 3.303.824a5.984 5.984 0 012.333 2.357c.57 1.022.854 2.21.854 3.563 0 1.352-.294 2.548-.878 3.576-.587 1.029-1.378 1.823-2.379 2.381-1.001.559-2.108.838-3.326.838s-2.292-.28-3.27-.838zm5.425-1.628c.671-.368 1.215-.916 1.629-1.652.413-.732.62-1.628.62-2.68 0-1.053-.203-1.945-.61-2.681-.407-.733-.938-1.28-1.595-1.639a4.394 4.394 0 00-2.132-.538c-.764 0-1.495.18-2.146.538-.647.358-1.168.906-1.558 1.639-.39.732-.587 1.628-.587 2.68 0 1.053.19 1.97.574 2.705.384.732.894 1.28 1.535 1.638a4.25 4.25 0 002.108.538c.765 0 1.485-.183 2.156-.551l.006.003zm16.826-9.653c.968.964 1.455 2.357 1.455 4.176v7.729h-2.109v-7.416c0-1.308-.32-2.31-.96-3.004-.641-.695-1.515-1.042-2.626-1.042s-2.019.357-2.683 1.076c-.664.719-.994 1.761-.994 3.134v7.248h-2.132V14.771h2.132v1.867a4.243 4.243 0 011.722-1.557 5.24 5.24 0 012.402-.552c1.561 0 2.826.484 3.797 1.448h-.004zm7.231 11.486c-.851-.392-1.518-.934-2.005-1.629-.484-.694-.735-1.495-.751-2.404h2.272c.076.78.393 1.44.947 1.972.554.535 1.362.8 2.426.8 1.065 0 1.815-.259 2.402-.776.588-.518.878-1.186.878-1.996 0-.637-.174-1.155-.517-1.557a3.312 3.312 0 00-1.288-.91c-.517-.207-1.211-.428-2.086-.67-1.077-.287-1.941-.576-2.589-.862a4.172 4.172 0 01-1.665-1.352c-.46-.614-.69-1.441-.69-2.477 0-.91.226-1.713.68-2.415.454-.701 1.091-1.243 1.909-1.628.821-.381 1.762-.575 2.823-.575 1.531 0 2.786.391 3.76 1.171.977.78 1.528 1.82 1.651 3.11h-2.342c-.077-.637-.407-1.199-.984-1.686-.577-.487-1.345-.729-2.296-.729-.89 0-1.618.235-2.179.705-.563.47-.843 1.128-.843 1.972 0 .607.166 1.1.503 1.482a3.26 3.26 0 001.241.872c.491.201 1.185.426 2.073.681 1.077.303 1.944.603 2.602.896.657.297 1.218.75 1.688 1.363.467.613.704 1.447.704 2.5 0 .814-.21 1.577-.634 2.295-.42.72-1.047 1.302-1.875 1.748-.827.446-1.805.67-2.929.67-1.125 0-2.042-.193-2.893-.585l.007.014zm13.603-10.897v7.729c0 .637.133 1.09.397 1.352.266.262.727.395 1.381.395h1.571v1.843h-1.921c-1.188 0-2.079-.28-2.673-.838-.594-.559-.891-1.475-.891-2.752v-7.729h-1.665v-1.795h1.665v-3.3h2.132v3.3h3.35v1.795h-3.35.004zm9.666-1.413c.693-.416 1.541-.624 2.542-.624v2.248h-.564c-2.389 0-3.587 1.325-3.587 3.972v7.13h-2.132V14.77h2.132v2.13a4.152 4.152 0 011.605-1.748h.004zm15.711 6.986h-10.263c.076 1.29.511 2.299 1.301 3.024.788.726 1.745 1.09 2.869 1.09.922 0 1.692-.218 2.309-.657a3.48 3.48 0 001.302-1.758h2.295a5.642 5.642 0 01-2.062 3.076c-1.031.79-2.312 1.186-3.844 1.186-1.217 0-2.308-.28-3.269-.838-.961-.559-1.715-1.352-2.262-2.381-.547-1.029-.821-2.221-.821-3.577 0-1.355.263-2.544.797-3.563a5.662 5.662 0 012.239-2.357c.961-.552 2.066-.824 3.316-.824 1.252 0 2.296.272 3.234.814a5.566 5.566 0 012.168 2.238c.508.95.761 2.023.761 3.219 0 .415-.023.855-.07 1.315v-.007zm-2.672-3.91a3.526 3.526 0 00-1.465-1.363 4.51 4.51 0 00-2.052-.467c-1.078 0-1.995.351-2.753 1.053-.757.702-1.191 1.676-1.301 2.919h8.108c0-.828-.18-1.543-.541-2.142h.004zm5.555-.481c.53-1.011 1.261-1.798 2.192-2.357.931-.559 1.965-.838 3.106-.838 1.141 0 2.102.249 2.93.743.827.494 1.444 1.117 1.851 1.866v-2.39h2.155v13.11h-2.155v-2.44c-.42.767-1.051 1.4-1.885 1.901-.837.501-1.808.753-2.916.753-1.108 0-2.172-.286-3.093-.862-.921-.575-1.648-1.38-2.179-2.415-.53-1.035-.797-2.217-.797-3.542 0-1.325.264-2.514.797-3.529h-.006zm9.492.968c-.391-.733-.918-1.295-1.581-1.687a4.235 4.235 0 00-2.193-.585c-.797 0-1.521.19-2.178.575-.657.382-1.181.94-1.572 1.676-.39.732-.587 1.594-.587 2.585 0 .992.197 1.877.587 2.62.391.742.915 1.308 1.572 1.7a4.167 4.167 0 002.178.585c.798 0 1.529-.194 2.193-.585.663-.392 1.19-.958 1.581-1.7.39-.743.587-1.608.587-2.596 0-.987-.197-1.85-.587-2.582v-.006zm24.463-3.55c.781.423 1.399 1.056 1.852 1.901.454.845.681 1.873.681 3.086v7.729h-2.109v-7.416c0-1.308-.317-2.31-.947-3.004-.634-.695-1.488-1.042-2.566-1.042-1.078 0-1.992.364-2.649 1.09-.654.725-.984 1.774-.984 3.147v7.225h-2.109v-7.416c0-1.308-.317-2.31-.951-3.004-.634-.695-1.488-1.042-2.566-1.042-1.078 0-1.992.364-2.649 1.09-.658.725-.984 1.774-.984 3.147v7.225h-2.132v-13.11h2.132v1.89a4.25 4.25 0 011.698-1.58 5.045 5.045 0 012.356-.553c1.077 0 2.032.249 2.859.743.828.494 1.445 1.22 1.852 2.176a4.282 4.282 0 011.781-2.152 5.16 5.16 0 012.766-.767c1.018 0 1.892.212 2.673.634l-.004.003zm6.88-1.543c-.2-.36-.474-.64-.83-.838a2.26 2.26 0 00-1.098-.293c-.377 0-.741.1-1.088.293-.36.195-.637.474-.838.838a2.38 2.38 0 00-.296 1.138c0 .392.096.77.293 1.127.197.358.474.64.821.842.35.197.724.3 1.104.3a2.28 2.28 0 001.111-.3 2.12 2.12 0 00.824-.842c.201-.36.291-.735.291-1.127s-.097-.773-.294-1.138zm-.317 2.078c-.16.3-.39.532-.684.702a1.86 1.86 0 01-.927.248c-.324 0-.627-.081-.921-.248a1.811 1.811 0 01-.688-.702 1.95 1.95 0 01.004-1.89c.17-.303.403-.535.697-.699a1.831 1.831 0 011.819 0c.3.164.53.399.697.699a1.948 1.948 0 01.003 1.89z" fill="#5F6062"/><path d="M213.183 14.979a.62.62 0 00-.204-.13.737.737 0 00.497-.22.641.641 0 00.187-.467.639.639 0 00-.11-.358.584.584 0 00-.303-.235c-.124-.044-.324-.068-.611-.068h-.744a.082.082 0 00-.077.071v2.374s.013.065.194.065c.18 0 .193-.065.193-.065v-.998s0-.034.03-.04h.194c.133 0 .24.027.307.085.103.075.237.265.403.565l.214.392s.063.04.253.04c.191 0 .217-.04.217-.04l-.29-.477a2.427 2.427 0 00-.354-.484m-.504-.419h-.426c-.037 0-.041-.03-.041-.04v-.658s.007-.037.037-.04h.404c.187 0 .317.016.383.043a.377.377 0 01.167.13c.04.054.057.119.057.19 0 .12-.04.201-.12.273-.084.068-.233.102-.461.102z" fill="#5F6062"/><path d="M22.598 6.314L16.83.42a1.334 1.334 0 00-1.911 0L2.359 13.241c-3.143 3.21-3.143 8.41 0 11.616a8.04 8.04 0 002.356 1.662L22.592 8.27s.003 0 .006-.004a1.402 1.402 0 000-1.951z" fill="#00ABDF"/><path d="M16.7 37.576l12.558-12.821c3.143-3.209 3.143-8.413 0-11.619a8.03 8.03 0 00-2.356-1.659L9.025 29.732s-.003 0-.006.007a1.402 1.402 0 000 1.952l5.768 5.889a1.334 1.334 0 001.912 0v-.003z" fill="#0079C1"/><path d="M17.844 13.116L4.72 26.512a7.918 7.918 0 009.062-1.642l13.123-13.393a7.918 7.918 0 00-9.062 1.642v-.003z" fill="#00447C"/><path d="M5.142 12.503c-.748 0-1.478.058-2.203.146l-.58.593c-3.143 3.209-3.143 8.41 0 11.615a8.04 8.04 0 002.356 1.662L15.348 15.66A18.015 18.015 0 005.142 12.5v.003z" fill="#54BCEB"/><path d="M9.025 29.731s-.003 0-.006.007a1.402 1.402 0 000 1.952l5.768 5.889a1.334 1.334 0 001.912 0l6.78-6.921c-.14-4.316-1.688-8.27-4.22-11.374L9.024 29.731z" fill="#0093D0"/><path d="M4.721 26.512a7.918 7.918 0 009.062-1.642l5.485-5.6a18.62 18.62 0 00-3.923-3.606L4.72 26.509v.003z" fill="#174A7C"/><path d="M0 19.37c.073 1.996.847 3.968 2.342 5.49a8.04 8.04 0 002.356 1.663l6.926-7.075a16.445 16.445 0 00-5.919-1.11c-2.088 0-3.923.378-5.705 1.032z" fill="#72CDF4"/><path d="M16.359 22.23l-7.347 7.501s-.003 0-.007.007a1.402 1.402 0 000 1.952l5.769 5.889a1.334 1.334 0 001.912 0l5.495-5.61a17.258 17.258 0 00-5.822-9.735v-.003z" fill="#009DDC"/><path d="M4.708 26.512a7.917 7.917 0 009.062-1.642l2.599-2.653a16.74 16.74 0 00-4.741-2.77l-6.92 7.065z" fill="#005581"/><path d="M22.605 8.269s.003 0 .006-.004c.25-.258.374-.589.384-.926L4.377 26.342c.114.061.227.126.347.18L22.604 8.27z" fill="#0096D6"/><path d="M27.22 11.644c-.108-.054-.211-.115-.321-.167L9.019 29.732s-.004 0-.007.007a1.37 1.37 0 00-.387.889l18.594-18.98v-.003z" fill="#00ABDF"/></g><defs><clipPath id="clip0_15_1096"><path fill="#fff" d="M0 0h215v38H0z"/></clipPath></defs></svg>