<svg width="215" height="38" fill="none" xmlns="http://www.w3.org/2000/svg"><g clip-path="url(#clip0_1_2502)"><mask id="a" style="mask-type:luminance" maskUnits="userSpaceOnUse" x="0" y="0" width="215" height="38"><path d="M215 0H0v37.703h215V0z" fill="#fff"/></mask><g mask="url(#a)" fill="#fff"><path d="M30.358 13.121a9.421 9.421 0 00-2.166-1.607.164.164 0 00-.21.029L9.738 29.993c-.267.269-.302.743.07 1.118l5.64 5.74c.57.573 1.4.672 2.082.439.318-.097.608-.27.844-.503l11.927-12.11c3.137-3.127 3.25-8.35.056-11.556zm-3.206-2.123c-1.976-.765-5.134-1.026-7.764 1.613L5.94 26.2c-.126.128-.028.178.057.22.225.085.436.17.71.255 2.412.729 4.944.276 7.729-2.527a7303 7303 0 0012.771-12.923c.127-.141.014-.19-.056-.226zm-4.234-5.11c-1.66-1.67-3.692-3.73-5.366-5.379-.646-.636-1.954-.799-2.96.263-1.716 1.72-9.43 9.575-11.204 11.358-4.55 4.586-3.663 10.949 1.583 13.751.07.029.127 0 .176-.05C10.921 20 16.659 14.19 22.433 8.359c.837-.842 1.547-1.409.485-2.47zm17.557 21.425c-.85-.384-1.518-.915-2.005-1.596-.484-.681-.734-1.466-.75-2.358h2.271c.077.765.394 1.413.948 1.934.554.524 1.361.784 2.426.784 1.064 0 1.815-.253 2.402-.761.587-.508.877-1.162.877-1.957 0-.624-.173-1.132-.514-1.526a3.306 3.306 0 00-1.287-.892c-.514-.203-1.212-.42-2.086-.657-1.077-.281-1.941-.565-2.589-.845a4.15 4.15 0 01-1.665-1.326c-.46-.601-.69-1.413-.69-2.428 0-.891.226-1.68.68-2.367.454-.688 1.091-1.22 1.909-1.597.82-.374 1.761-.564 2.822-.564 1.532 0 2.787.384 3.76 1.149.978.764 1.529 1.783 1.652 3.049h-2.342c-.076-.625-.407-1.176-.984-1.653-.578-.478-1.345-.715-2.296-.715-.89 0-1.618.23-2.178.691-.564.461-.845 1.106-.845 1.934 0 .594.167 1.078.504 1.452.337.374.75.662 1.241.855.494.197 1.185.418 2.076.668 1.077.297 1.945.591 2.602.878.658.29 1.218.735 1.688 1.336.468.601.705 1.42.705 2.451 0 .798-.21 1.546-.634 2.251-.42.705-1.048 1.276-1.876 1.713-.827.438-1.805.658-2.93.658-1.123 0-2.041-.19-2.892-.574v.013zm13.333-.2a5.828 5.828 0 01-2.295-2.335c-.554-1.008-.831-2.177-.831-3.506 0-1.33.283-2.474.854-3.483a5.88 5.88 0 012.332-2.32c.984-.542 2.085-.809 3.303-.809s2.319.27 3.303.808a5.924 5.924 0 012.333 2.311c.57 1.002.854 2.167.854 3.493s-.294 2.498-.878 3.506a6.102 6.102 0 01-2.379 2.335c-1 .547-2.109.821-3.327.821-1.217 0-2.291-.274-3.27-.821zm5.425-1.597c.67-.36 1.214-.898 1.628-1.62.414-.717.62-1.595.62-2.627 0-1.032-.203-1.907-.61-2.628-.407-.718-.938-1.256-1.595-1.607a4.461 4.461 0 00-2.132-.527c-.764 0-1.494.177-2.145.527-.648.351-1.168.889-1.558 1.607-.39.718-.587 1.596-.587 2.628s.19 1.93.573 2.651c.384.718.894 1.256 1.535 1.606a4.32 4.32 0 002.109.528 4.49 4.49 0 002.155-.54l.007.002zm8.905-15.15V27.72h-2.132V10.366h2.132zm14.554 4.504v12.854H80.56v-1.9a4.14 4.14 0 01-1.698 1.536 5.25 5.25 0 01-2.403.55c-1 0-1.898-.206-2.696-.62-.797-.415-1.424-1.036-1.885-1.864-.46-.828-.69-1.836-.69-3.025v-7.53h2.108v7.246c0 1.265.32 2.24.961 2.918.64.682 1.515 1.019 2.626 1.019s2.039-.35 2.696-1.055.984-1.727.984-3.072v-7.06h2.132l-.003.003zm6.209 1.76v7.577c0 .625.134 1.069.397 1.326.267.257.727.387 1.381.387h1.572v1.807h-1.922c-1.187 0-2.078-.274-2.672-.821-.594-.548-.891-1.446-.891-2.699V16.63H85.1v-1.76h1.665v-3.235h2.132v3.236h3.35v1.76h-3.35.003zm5.999-4.27a1.407 1.407 0 01-.42-1.033c0-.407.14-.751.42-1.031a1.4 1.4 0 011.031-.421c.407 0 .724.14.995.42.273.281.41.625.41 1.032 0 .408-.137.752-.41 1.032-.274.28-.608.421-.995.421s-.75-.14-1.03-.42zm2.062 2.51v12.854H94.83V14.87h2.132zm5.495 12.243a5.835 5.835 0 01-2.295-2.335c-.554-1.008-.83-2.177-.83-3.506 0-1.33.283-2.474.853-3.483.571-1.008 1.348-1.783 2.332-2.32.985-.542 2.086-.809 3.304-.809 1.217 0 2.318.27 3.303.808a5.929 5.929 0 012.332 2.311c.57 1.002.854 2.167.854 3.493s-.293 2.498-.877 3.506a6.106 6.106 0 01-2.379 2.335c-1.001.547-2.109.821-3.327.821s-2.292-.274-3.27-.821zm5.426-1.597c.67-.36 1.214-.898 1.628-1.62.413-.717.62-1.595.62-2.627 0-1.032-.203-1.907-.61-2.628-.407-.718-.938-1.256-1.595-1.607a4.46 4.46 0 00-2.132-.527c-.764 0-1.495.177-2.145.527-.648.351-1.168.889-1.558 1.607-.391.718-.588 1.596-.588 2.628s.19 1.93.574 2.651c.384.718.894 1.256 1.535 1.606a4.32 4.32 0 002.108.528c.764 0 1.485-.18 2.156-.54l.007.002zm16.825-9.463c.968.945 1.455 2.31 1.455 4.094v7.577h-2.108v-7.27c0-1.282-.321-2.264-.961-2.945-.641-.682-1.515-1.022-2.626-1.022s-2.019.35-2.683 1.055c-.664.704-.994 1.726-.994 3.072v7.106h-2.132V14.87h2.132v1.83a4.215 4.215 0 011.722-1.526 5.328 5.328 0 012.402-.54c1.561 0 2.826.473 3.797 1.419h-.004zm7.231 11.26c-.851-.384-1.518-.915-2.005-1.596-.484-.681-.735-1.466-.751-2.358h2.272a2.98 2.98 0 00.947 1.934c.554.524 1.362.784 2.426.784s1.815-.253 2.402-.761c.588-.508.878-1.162.878-1.957 0-.624-.174-1.132-.517-1.526a3.31 3.31 0 00-1.288-.892c-.517-.203-1.211-.42-2.086-.657-1.077-.281-1.941-.565-2.589-.845a4.157 4.157 0 01-1.665-1.326c-.46-.601-.69-1.413-.69-2.428 0-.891.226-1.68.68-2.367.454-.688 1.091-1.22 1.909-1.597.821-.374 1.762-.564 2.823-.564 1.531 0 2.786.384 3.76 1.149.977.764 1.528 1.783 1.651 3.049h-2.342c-.077-.625-.407-1.176-.984-1.653-.577-.478-1.345-.715-2.296-.715-.89 0-1.618.23-2.179.691-.563.461-.843 1.106-.843 1.934 0 .594.166 1.078.503 1.452.337.374.751.662 1.241.855.491.197 1.185.418 2.073.668 1.077.297 1.944.591 2.602.878.657.29 1.218.735 1.688 1.336.467.601.704 1.42.704 2.451 0 .798-.21 1.546-.634 2.251-.42.705-1.047 1.276-1.875 1.713-.827.438-1.805.658-2.929.658-1.125 0-2.042-.19-2.893-.574l.007.013zm13.603-10.683v7.577c0 .625.133 1.069.397 1.326.266.257.727.387 1.381.387h1.571v1.807h-1.921c-1.188 0-2.079-.274-2.673-.821-.594-.548-.891-1.446-.891-2.699V16.63h-1.665v-1.76h1.665v-3.235h2.132v3.236h3.35v1.76h-3.35.004zm9.666-1.386c.693-.407 1.541-.61 2.542-.61v2.203h-.564c-2.389 0-3.587 1.3-3.587 3.894v6.99h-2.132V14.87h2.132v2.087a4.103 4.103 0 011.605-1.714h.004zm15.711 6.849h-10.263c.076 1.266.511 2.255 1.301 2.966.788.711 1.745 1.069 2.869 1.069.922 0 1.692-.214 2.309-.645a3.419 3.419 0 001.302-1.723h2.295a5.527 5.527 0 01-2.062 3.015c-1.031.775-2.312 1.162-3.844 1.162-1.217 0-2.308-.273-3.269-.821-.961-.548-1.715-1.326-2.262-2.334-.547-1.009-.821-2.178-.821-3.507 0-1.329.263-2.494.797-3.493a5.6 5.6 0 012.239-2.31c.961-.541 2.066-.809 3.316-.809 1.252 0 2.296.268 3.234.798a5.508 5.508 0 012.168 2.194c.508.932.761 1.984.761 3.156 0 .408-.023.838-.07 1.29v-.008zm-2.672-3.833a3.5 3.5 0 00-1.465-1.336 4.584 4.584 0 00-2.052-.457c-1.078 0-1.995.344-2.753 1.032-.757.687-1.191 1.643-1.301 2.861h8.108c0-.811-.18-1.512-.541-2.1h.004zm5.555-.47c.53-.993 1.261-1.764 2.192-2.312.931-.547 1.965-.821 3.106-.821 1.141 0 2.102.243 2.93.728.827.484 1.444 1.095 1.851 1.83V14.87h2.155v12.854h-2.155v-2.391c-.42.751-1.051 1.372-1.885 1.863-.837.491-1.808.738-2.916.738-1.108 0-2.172-.28-3.093-.845-.921-.564-1.648-1.352-2.179-2.367-.53-1.016-.797-2.174-.797-3.473 0-1.3.264-2.465.797-3.46h-.006zm9.492.948c-.391-.718-.918-1.27-1.581-1.654a4.3 4.3 0 00-2.193-.574c-.797 0-1.521.187-2.178.564-.657.374-1.181.922-1.572 1.643-.39.718-.587 1.563-.587 2.535 0 .972.197 1.84.587 2.568.391.728.915 1.282 1.572 1.666a4.23 4.23 0 002.178.575 4.3 4.3 0 002.193-.575c.663-.384 1.19-.938 1.581-1.666.39-.728.587-1.576.587-2.545 0-.968-.197-1.813-.587-2.53v-.008zm24.463-3.48c.781.414 1.399 1.035 1.852 1.863.454.828.681 1.837.681 3.026v7.577h-2.109v-7.27c0-1.282-.317-2.264-.947-2.945-.634-.682-1.488-1.022-2.566-1.022-1.078 0-1.992.357-2.649 1.068-.654.712-.984 1.74-.984 3.086v7.083h-2.109v-7.27c0-1.282-.317-2.264-.951-2.945-.634-.682-1.488-1.022-2.566-1.022-1.078 0-1.992.357-2.649 1.068-.658.712-.984 1.74-.984 3.086v7.083h-2.132V14.87h2.132v1.854a4.22 4.22 0 011.698-1.55c.711-.36 1.495-.54 2.356-.54 1.077 0 2.032.243 2.859.727s1.445 1.196 1.852 2.134c.36-.908.954-1.61 1.781-2.11.828-.501 1.749-.752 2.766-.752 1.018 0 1.892.207 2.673.622l-.004.003zm6.88-1.513a2.074 2.074 0 00-.83-.821 2.296 2.296 0 00-1.098-.288c-.377 0-.741.097-1.088.288-.36.19-.637.464-.838.821a2.297 2.297 0 00-.296 1.115c0 .384.096.755.293 1.106.197.35.474.628.821.825.35.193.724.293 1.104.293.381 0 .755-.1 1.111-.293a2.1 2.1 0 00.824-.825c.201-.354.291-.722.291-1.106 0-.384-.097-.758-.294-1.115zm-.317 2.037c-.16.294-.39.521-.684.688a1.889 1.889 0 01-.927.244 1.855 1.855 0 01-1.609-.932 1.882 1.882 0 01.004-1.853c.17-.297.403-.524.697-.685a1.86 1.86 0 011.819 0c.3.16.53.39.697.685a1.881 1.881 0 01.003 1.853z"/><path d="M213.183 15.074a.623.623 0 00-.204-.127.743.743 0 00.497-.217.622.622 0 00.187-.457.617.617 0 00-.414-.581c-.123-.044-.323-.067-.61-.067h-.744a.082.082 0 00-.077.07v2.328s.013.063.194.063c.18 0 .193-.063.193-.063v-.979s0-.033.03-.04h.194c.133 0 .24.027.307.084.103.073.237.26.403.554l.214.384s.063.04.253.04c.191 0 .217-.04.217-.04l-.29-.468a2.378 2.378 0 00-.354-.474m-.504-.41h-.426c-.037 0-.041-.03-.041-.04v-.645s.007-.037.037-.04h.404c.187 0 .317.017.383.043.074.03.124.07.167.127.04.053.057.117.057.187 0 .117-.04.197-.12.267-.084.067-.233.1-.461.1z"/></g></g><defs><clipPath id="clip0_1_2502"><path fill="#fff" d="M0 0h215v37.703H0z"/></clipPath></defs></svg>