<svg data-name="Layer 1" xmlns="http://www.w3.org/2000/svg" viewBox="0 0 910.58 526.89"><path d="M24.48 20.26v211.85c0 6.86.4 9.31-4.46 12.33s-9.64 3.44-17.48 4.78H2.4c-.79.2-.64 3.15.14 3.15h171.32c72.28 0 102.69-28.69 102.69-73.43 0-33.08-15.41-53.3-45.91-60.9a.5.5 0 010-1c19.43-6.06 37.3-20.13 37.3-54.57C267.95 15.82 236.39 0 167.56 0H2.55c-.79 0-1 3-.17 3.15h.14C10.37 4.52 15.26 5 20 8s4.46 5.44 4.46 12.31m80.41 177.85v-50.93a41.29 41.29 0 00-.41-6 48.62 48.62 0 006 .42h28c22.37 0 49.75 0 49.75 31 0 22.94-19.6 31-46 31h-31.79a43.7 43.7 0 00-5.87.45s.33-3.1.33-5.98zm0-101v-44a36.46 36.46 0 00-.49-6 43.92 43.92 0 006.05.49h33.16c25.25 0 40.06 3.91 40.06 26.86 0 14.91-9.19 28.21-39 28.21h-34.2a52.75 52.75 0 00-5.94.39 50.7 50.7 0 00.37-5.97zM888 20.26c0-6.87-.4-9.28 4.46-12.3s9.65-3.44 17.5-4.78h.13c.79-.19.65-3.15-.13-3.15H783.51c-.79 0-1 3-.16 3.15h.14c8 1 11.68 1.83 16.45 4.78s4.45 5.45 4.45 12.32v127.31c0 29-16.62 51.33-49.63 51.33s-49.66-22.31-49.66-51.33V20.3c0-6.87-.4-9.31 4.46-12.33s8.77-3.7 16.44-4.78h.14C727 3 726.82 0 726 0H606.74c-.88 0-.71 3 0 3.14h.14c4.37.28 7.35.52 10 2.8 4 3.38 4.62 7.41 4.62 14.28v125.19c0 60.33 33 111.57 133.2 111.57S888 205.74 888 145.41V20.26M504.9 252.4c.79 0 1-2.95.17-3.14a.79.79 0 00-.16 0c-7.82-1.34-12.71-1.82-17.47-4.78S483 239 483 232.12v-80.4l87.39-129.8c4.79-7.12 7.85-10.84 11.78-14.14a37.78 37.78 0 013.26-2.26 17.62 17.62 0 019.45-2.36h.14c.79-.11 1-3.13.12-3.13H477.25c-1 0-.77 3.08.06 3.16a.47.47 0 01.14 0c5.72 0 12.77 0 11.62 8.25-.66 8-34.64 57.1-46.74 75.76a23.19 23.19 0 00-3.67 8.8c-.45-3.31-2.52-6.68-3.92-8.76-16.85-25.1-45.74-65.82-46.53-75.8-.7-8.52 5.9-8.28 11.62-8.28a.52.52 0 01.14 0c.82-.08 1.12-3.14.14-3.14H276.32c-.73 0-.65 2.84.08 3.13h.14c5.28.54 8.17.17 14.37 3.19A22.66 22.66 0 01294 8.42c3.92 3.31 6.33 6.37 11.13 13.49l87.29 129.25v80.95c0 6.87.41 9.31-4.45 12.33s-9.65 3.44-17.48 4.78h-.14c-.79.19-.64 3.14.14 3.14H504.9M189.46 374.8c-14.69 0-20.82 2-22.53 4.16-1.47 2-3.67 12.73-3.67 48.49v36.48c0 31.35 2.2 43.6 5.38 47 4.43 4.64 10 6.37 22.79 6.37 48 0 70-22.78 70-68.82 0-37.47-25.23-73.72-72-73.72m69.07 126.37c-16.89 16.88-35.5 24.24-66.86 24.24-10.78 0-28.17-.49-37.23-.49s-20.32.49-31.09.49c-.75 0-1-2.94.24-3.19 9.54-1 13.72-2.44 16.65-4.16 3.19-1.71 5.13-5.87 5.13-54.11v-35.72c0-48.24-1.94-52.65-5.13-54.14-2.94-1.71-7.11-3.16-16.65-4.15-1.23-.24-1-3.18-.24-3.18 10.77 0 22 .49 31.09.49s31.6-.49 42.61-.49c49.23 0 84.73 33.06 84.73 77.39a82.05 82.05 0 01-23.21 57.06zm130.8-104.28l-21.55 59h43.34l-21.79-59m30.37 128.56c-.73 0-1-2.94 0-3.19 7.57-.73 12.24-2.19 12.24-5.87 0-4.16-3.19-15.17-17.15-50.46h-50.67c-11.52 31.6-14.21 43.6-14.21 48.75 0 4.4 3.42 6.61 14 7.58 1 .25.73 3.19 0 3.19h-50.2c-.75 0-1.23-2.94 0-3.19 7.35-.73 11.74-2.19 15.41-4.63 2.45-2 6.86-5.4 24.49-53.64l13-35.75c7.59-20.56 15.69-41.88 21.8-61 .48-1.72 7.83-1.72 8.32 0 7.35 21.3 13.73 38.69 22.3 61l14 35.75c19.08 48.24 22.29 51.91 25.7 54.11 4.16 2.71 7.85 3.43 14.7 4.16 1 .25.73 3.19 0 3.19zm200.08 0c-1 0-1-2.94.25-3.19 9.54-1 13.72-2.44 16.64-4.16s5.13-5.87 5.13-54.11v-15.19H549.2v15.19c0 48.24 2.23 52.4 5.16 54.11s7.09 3.19 16.65 4.16c1.23.25 1.23 3.19.49 3.19h-62.2c-.73 0-1-2.94.25-3.19 9.54-1 13.72-2.44 16.64-4.16 3.18-1.71 5.14-5.87 5.14-54.11v-35.76c0-48.24-2-52.65-5.14-54.14-2.92-1.71-7.1-3.16-16.64-4.15-1.24-.24-1-3.18-.25-3.18h62.21c.73 0 .73 2.94-.49 3.18-9.57 1-13.72 2.44-16.65 4.15-2.94 1.49-5.16 5.9-5.16 54.14v11.5h92.57v-11.5c0-48.24-2.18-52.65-5.13-54.14-2.92-1.71-7.1-3.16-16.64-4.15-1.24-.24-1.24-3.18-.25-3.18h62c1 0 1 2.94-.24 3.18-9.58 1-13.73 2.44-16.68 4.15-2.92 1.49-5.14 5.9-5.14 54.14v35.75c0 48.24 2.21 52.4 5.14 54.11s7.1 3.19 16.68 4.16c1.23.25 1.23 3.19.24 3.19h-62m191.97-151.09c-43.83 0-58.28 35-58.28 66.62 0 39.93 25.22 76.89 64.4 76.89 43.6 0 58-35 58-66.62 0-39.91-25-76.89-64.17-76.89M813 526.89c-46.52 0-79.84-34.54-79.84-78.87 0-42.12 33.32-82.78 83.29-82.78 46.76 0 79.83 34.54 79.83 78.87-.04 42.12-33.11 82.78-83.28 82.78zM2.06 307.41a2.05 2.05 0 100 4.1h880.56a2.05 2.05 0 100-4.1H2.06m-.19 217.95c-.72 0-.72-2.92.25-3.18C11.67 521.2 18 519.74 21 518s5.13-5.87 5.13-54.09v-35.73c0-48.23-2.19-52.65-5.13-54.13-2.94-1.71-9.31-3.16-18.87-4.15-1-.25-1-3.19-.25-3.19H68c.73 0 1 2.94-.24 3.19-9.54 1-15.67 2.44-18.6 4.15-3.18 1.48-5.39 5.9-5.39 54.13v35.74c0 48.22 2.21 52.39 5.39 54.09 2.94 1.73 9.06 3.19 18.6 4.18 1.22.25 1 3.18.24 3.18H1.87" fill="#fff"/></svg>