<svg width="513" height="136" fill="none" xmlns="http://www.w3.org/2000/svg"><g clip-path="url(#clip0_151_1141)" fill="#4B626D"><path d="M56.39.076H0v134.888L56.39.076zm39.721 0h56.314v134.888L96.111.076zm-19.88 49.699l35.905 85.189H88.59l-10.734-27.099H51.59l24.642-58.09zM244.454 85.87l6.652 19.085c.227.492.567.681 1.134.681h12.774c.681 0 .794-.341.681-1.021l-26.419-73.397c-.113-.604-.226-.68-.793-.68h-15.874c-.453 0-.68.34-.68.794-.227 3.855-.567 5.026-1.021 6.16l-23.546 67.01c-.113.793.152 1.134.794 1.134h11.414c.68 0 1.02-.227 1.285-.907l6.274-18.86h27.325zm-23.659-12.473c3.439-10.431 8.012-23.81 9.864-31.445h.114c2.267 8.012 7.634 23.886 10.053 31.445h-20.031zm78.915 33.373c6.879 0 14.173-1.248 21.618-4.46.605-.227.718-.491.718-1.021-.226-2.04-.491-5.026-.491-7.294V24.907c0-.454 0-.68-.567-.68h-12.472c-.491 0-.68.226-.68.793v23.395c-1.966-.227-3.288-.34-4.914-.34-20.106 0-32.465 13.266-32.465 29.82 0 19.237 12.661 28.799 29.253 28.799v.076zm8.126-12.775c-2.041.68-4.347.907-6.652.907-9.109 0-16.592-5.14-16.592-17.65 0-11.074 7.672-17.612 17.877-17.612 2.041 0 3.855.227 5.367.794v33.561zm53.895-45.883c-17.159 0-27.779 13.153-27.779 29.404 0 14.513 8.466 29.253 27.514 29.253 16.138 0 27.439-11.867 27.439-29.63 0-15.647-9.6-29.027-27.174-29.027zm-.681 11.528c9.713 0 13.833 8.352 13.833 17.876 0 11.754-6.047 17.613-13.115 17.613-8.692 0-13.87-7.295-13.87-17.877 0-10.847 5.48-17.612 13.152-17.612zm40.78-35.413c-.491 0-.793.226-.793.793v78.197c0 .34.34.907.793 1.02 5.48 1.701 11.225 2.495 17.121 2.495 16.932 0 33.41-10.507 33.41-31.672 0-15.307-10.506-26.985-26.985-26.985-3.779 0-7.294.605-10.393 1.625l-.151-24.566c0-.794-.227-.907-1.021-.907H401.83zm36.472 52.27c0 12.66-8.655 18.632-18.028 18.632-1.965 0-3.666-.114-5.253-.605V61.152c1.814-.68 3.968-1.285 7.974-1.285 9.033 0 15.307 5.745 15.307 16.592v.037zm60.547 4.118c5.593 0 10.166-.113 11.754-.49.604-.114.793-.341.907-.794.34-1.248.491-3.856.491-7.068 0-10.885-6.538-24.15-23.432-24.15-17.272 0-26.872 14.059-26.872 29.933 0 14.059 7.407 28.685 28.232 28.685 7.786 0 12.813-1.247 17.159-3.288.453-.226.68-.604.68-1.247v-9.524c0-.567-.34-.68-.68-.454-4.346 1.852-9.033 2.76-14.173 2.76-11.641 0-16.932-6.426-17.272-14.4h23.206v.037zm-23.206-9.864c.907-5.593 4.46-11.64 12.359-11.64 8.692 0 10.998 7.294 10.998 10.62v.907c-.491.113-1.965.113-6.274.113h-17.083z"/></g><defs><clipPath id="clip0_151_1141"><path fill="#fff" d="M0 0h512.001v135.039H0z"/></clipPath></defs></svg>