<svg width="947" height="169" fill="none" xmlns="http://www.w3.org/2000/svg"><path d="M236.52 10.303c0-2.742 0-8.974-4.484-8.974h-66.012c-4.484 0-4.484 6.149-4.484 8.974 0 2.575 0 8.973 4.484 8.973h66.012c4.484 0 4.484-6.314 4.484-8.973z" fill="#4B626D"/><path d="M236.52 10.552c0-2.742 0-8.973-4.484-8.973h-66.012c-4.484 0-4.484 6.148-4.484 8.973 0 2.576 0 8.974 4.484 8.974h66.012c4.484 0 4.484-6.315 4.484-8.974zm16.441 66.47c-2.325-7.644-5.812-14.125-10.545-19.442-4.65-5.318-10.546-9.39-17.521-12.214-6.975-2.825-15.278-4.238-24.661-4.238-9.383 0-18.35 1.579-25.657 4.736-7.307 3.158-13.452 7.561-18.268 13.211-4.899 5.65-8.552 12.463-10.96 20.274-2.408 7.893-3.654 16.45-3.654 25.757 0 9.305 1.162 18.362 3.404 26.006 2.325 7.644 5.813 14.125 10.463 19.526 4.65 5.317 10.545 9.389 17.52 12.214 6.975 2.824 15.278 4.237 24.661 4.237 9.383 0 18.185-1.579 25.575-4.736 7.39-3.157 13.451-7.644 18.35-13.294 4.899-5.65 8.553-12.463 11.044-20.273 2.491-7.811 3.736-16.452 3.736-25.758 0-9.305-1.162-18.196-3.487-25.84v-.166zm-20.343 45.449c-1.412 5.484-3.488 10.303-6.394 14.291-2.906 3.988-6.643 7.062-11.21 9.306-4.567 2.243-9.881 3.323-16.108 3.323-6.809 0-12.456-1.246-17.022-3.656-4.567-2.409-8.138-5.649-10.878-9.804-2.74-4.154-4.65-8.973-5.812-14.457-1.163-5.484-1.744-11.383-1.744-17.698 0-6.314.664-12.546 2.159-18.113 1.411-5.484 3.57-10.303 6.477-14.29 2.906-3.989 6.642-7.146 11.126-9.39 4.484-2.243 9.881-3.323 16.109-3.323 6.809 0 12.455 1.246 17.022 3.656 4.567 2.41 8.137 5.733 10.794 9.887 2.657 4.154 4.567 8.974 5.73 14.54 1.162 5.484 1.743 11.383 1.743 17.615 0 6.647-.664 12.712-2.075 18.196l.083-.083zm187.076 43.704h79.214c.665 0 1.329-.166 1.827-.499.581-.332.997-.913 1.495-1.661.415-.748.747-1.745.913-2.825.166-1.163.249-2.493.249-3.988 0-1.662-.083-3.158-.249-4.238-.166-1.163-.498-2.077-.913-2.825-.415-.748-.914-1.246-1.495-1.579a3.555 3.555 0 00-1.827-.498h-65.431V89.07h55.384c.665 0 1.329-.166 1.827-.416.581-.332.996-.747 1.412-1.495.415-.665.664-1.579.83-2.659.166-1.08.249-2.41.249-3.905 0-1.579-.083-2.991-.249-4.238-.166-1.163-.415-2.16-.83-2.825-.416-.664-.831-1.246-1.412-1.578a2.986 2.986 0 00-1.827-.582h-55.384V19.61h64.518c.664 0 1.329-.167 1.827-.499.581-.332.996-.83 1.328-1.578.333-.748.582-1.662.831-2.825.249-1.164.332-2.493.332-3.989 0-1.661-.083-3.157-.332-4.237s-.498-2.077-.831-2.908c-.332-.748-.747-1.33-1.328-1.662a3.555 3.555 0 00-1.827-.499h-78.301c-1.993 0-3.82.665-5.564 1.995-1.743 1.329-2.574 3.655-2.574 6.979v146.982c0 3.323.831 5.65 2.574 6.979 1.744 1.329 3.571 1.994 5.564 1.994v-.166zM922.965 16.95c-.416-1.745-1.08-2.742-2.325-3.074v-.167c1.577-.498 2.657-1.578 2.657-3.074 0-1.163-.582-2.16-1.246-2.742-.913-.581-1.993-.997-4.484-.997-2.076 0-3.736.25-4.899.499v12.712h2.99V15.04h1.411c1.661 0 2.408.665 2.657 1.994.415 1.495.665 2.576.997 3.074h3.238s-.581-1.163-.913-3.157h-.083zm-5.813-4.071h-1.411V9.223s.83-.166 1.66-.166c1.91 0 2.74.747 2.74 1.91 0 1.33-1.328 1.829-2.989 1.829v.083z" fill="#4B626D"/><path d="M917.733.748c-7.307 0-13.202 5.65-13.202 12.795 0 7.146 5.812 12.879 13.202 12.879 7.391 0 13.12-5.65 13.12-12.879 0-7.228-5.73-12.795-13.037-12.795h-.083zm0 22.932c-5.729 0-9.964-4.487-9.964-10.22 0-5.733 4.235-10.22 9.798-10.22 5.73 0 9.798 4.57 9.798 10.22s-4.151 10.303-9.715 10.22h.083zM108.98 2.326c-.416-.581-.997-.997-1.744-1.246-.748-.332-1.827-.581-3.155-.748C102.752.083 101.008 0 98.849 0c-2.159 0-3.736.083-5.065.332-1.328.25-2.408.499-3.238.748-.83.332-1.412.748-1.744 1.246-.332.582-.415 1.164-.415 1.745v56.334c-5.48-5.65-10.96-9.97-16.524-12.962-5.563-2.908-11.708-4.404-18.433-4.404-8.055 0-15.196 1.496-21.34 4.487-6.145 2.991-11.293 7.312-15.528 12.962-4.151 5.567-7.307 12.38-9.466 20.273-2.158 7.977-3.155 16.867-3.155 26.671 0 8.309.83 16.202 2.574 23.763 1.744 7.478 4.401 14.042 8.138 19.609 3.736 5.567 8.552 9.97 14.447 13.211 5.979 3.24 13.12 4.902 21.59 4.902 7.722 0 14.863-1.828 21.34-5.484 6.476-3.656 12.787-8.724 18.848-15.288v15.122c0 .665.166 1.246.498 1.745.332.498.914.914 1.66 1.246.748.332 1.745.499 2.907.665 1.163.166 2.657.249 4.484.249s3.155-.083 4.318-.249a16.948 16.948 0 002.906-.665c.747-.332 1.245-.665 1.495-1.246.332-.499.415-1.08.415-1.745V4.071c0-.581-.166-1.163-.581-1.745zM88.387 128.62c-3.321 4.155-6.477 7.645-9.466 10.553-2.99 2.825-5.812 5.151-8.552 6.979-2.74 1.745-5.398 3.074-7.972 3.822a29.176 29.176 0 01-8.137 1.163c-5.563 0-10.13-1.329-13.784-3.905-3.653-2.576-6.56-6.065-8.801-10.303-2.242-4.32-3.737-9.222-4.65-14.706-.914-5.484-1.329-11.134-1.329-16.95 0-5.4.498-10.802 1.578-16.036 1.08-5.235 2.74-9.97 5.065-14.125 2.325-4.154 5.397-7.478 9.134-10.053 3.736-2.576 8.303-3.823 13.617-3.823 5.813 0 11.293 1.828 16.607 5.567 5.314 3.656 10.795 9.057 16.524 16.12v45.864l.166-.167zm696.658 31.407c-.332-1.247-1.08-3.407-2.325-6.398l-14.78-36.309c-1.661-4.155-3.405-7.894-5.065-11.217-1.744-3.324-3.488-6.232-5.398-8.808a38.983 38.983 0 00-6.144-6.564c-2.242-1.827-4.65-3.323-7.39-4.486 4.816-1.662 9.216-3.74 13.119-6.232 3.903-2.492 7.307-5.4 10.047-8.724 2.823-3.323 4.982-7.229 6.477-11.632 1.495-4.404 2.242-9.306 2.242-14.873s-.83-10.884-2.491-15.62a36.292 36.292 0 00-7.473-12.547c-3.322-3.655-7.39-6.647-12.289-9.056-4.899-2.41-10.546-4.154-16.939-5.235a147.53 147.53 0 00-7.473-.664c-2.741-.25-6.228-.333-10.38-.333h-35.04c-1.993 0-3.82.665-5.563 1.994-1.744 1.33-2.575 3.656-2.575 6.98V162.85c0 .665.167 1.247.499 1.828.332.499.913.914 1.826 1.247.831.332 1.993.581 3.405.748 1.411.249 3.155.332 5.314.332 2.159 0 3.903-.083 5.314-.332 1.412-.25 2.491-.499 3.322-.748.83-.333 1.411-.665 1.826-1.247.416-.498.582-1.08.582-1.828V92.642h14.697c4.982 0 9.3.748 12.87 2.244a28.612 28.612 0 019.3 6.231c2.657 2.659 4.899 5.9 6.809 9.556 1.909 3.738 3.736 7.727 5.563 12.13l15.195 38.802a10.58 10.58 0 001.246 2.576c.498.665 1.162 1.246 1.993 1.579.83.415 1.992.664 3.404.83 1.412.167 3.238.25 5.397.25 2.574 0 4.567-.083 6.145-.25 1.494-.166 2.74-.415 3.57-.747.831-.333 1.412-.748 1.661-1.247.249-.498.415-1.08.415-1.828 0-.747-.166-1.661-.498-2.908l-.415.167zm-51.232-87.076c-4.235 1.412-9.217 2.077-14.947 2.077h-21.423V19.442h18.517c4.318 0 7.888.167 10.545.416 2.658.25 5.066.665 7.224 1.246 6.809 1.994 11.625 5.152 14.531 9.638 2.907 4.487 4.318 9.888 4.318 16.369 0 3.988-.664 7.727-1.993 11.05-1.328 3.407-3.404 6.315-6.227 8.89-2.823 2.493-6.311 4.487-10.545 5.9zm208.166 85.497l-55.3-153.13c-.333-.914-.831-1.745-1.412-2.327-.581-.665-1.411-1.163-2.574-1.495-1.079-.333-2.574-.582-4.318-.665-1.744-.166-4.068-.166-6.726-.166-2.574 0-4.649 0-6.31.166-1.661.166-2.989.332-4.069.665-1.079.332-1.91.83-2.408 1.412-.581.582-.996 1.33-1.328 2.326L802.15 158.282c-.665 1.828-.997 3.406-1.08 4.486 0 1.164.249 1.995.914 2.576.664.582 1.743.997 3.321 1.246 1.578.25 3.571.333 6.062.333s4.317-.083 5.812-.249c1.495-.167 2.657-.416 3.404-.831.831-.416 1.412-.831 1.827-1.413a7.49 7.49 0 00.997-1.994l13.534-39.633h68.586l14.116 40.132c.332.747.665 1.412 1.08 1.911.415.498.996.914 1.826 1.246.831.332 1.993.498 3.571.665 1.578.166 3.653.166 6.311.166 2.657 0 4.733-.083 6.31-.249 1.578-.167 2.657-.582 3.405-1.164.664-.581.996-1.495.996-2.575 0-1.164-.415-2.659-1.079-4.487h-.084zm-99.558-53.01l28.398-82.174h.166l28.813 82.174h-57.377zm-197.04 54.588c-.332-1.246-1.079-3.406-2.325-6.397l-14.78-36.309c-1.744-4.155-3.404-7.894-5.065-11.217-1.744-3.324-3.488-6.232-5.397-8.808a38.988 38.988 0 00-6.145-6.564c-2.242-1.827-4.65-3.323-7.39-4.486 4.816-1.662 9.217-3.74 13.119-6.232 3.903-2.492 7.307-5.4 10.048-8.724 2.823-3.323 4.982-7.229 6.476-11.632 1.495-4.404 2.242-9.306 2.242-14.873s-.83-10.884-2.491-15.62a36.292 36.292 0 00-7.473-12.547c-3.321-3.655-7.39-6.647-12.289-9.056-4.899-2.41-10.545-4.154-16.856-5.235a147.53 147.53 0 00-7.473-.664c-2.74-.25-6.228-.333-10.379-.333h-35.124c-1.993 0-3.819.665-5.563 1.994-1.744 1.33-2.574 3.656-2.574 6.98V162.85c0 .665.166 1.247.498 1.745.332.499.913.914 1.827 1.247.83.332 1.993.581 3.404.747 1.412.25 3.155.333 5.314.333 2.159 0 3.903-.083 5.315-.333 1.411-.249 2.491-.498 3.321-.747.83-.333 1.412-.665 1.827-1.247.415-.498.581-1.08.581-1.745V92.642h14.697c4.982 0 9.3.748 12.87 2.244a28.6 28.6 0 019.3 6.231c2.657 2.659 4.899 5.9 6.809 9.556 1.91 3.655 3.736 7.727 5.563 12.13l15.195 38.885c.333.997.748 1.911 1.246 2.576s1.162 1.246 1.993 1.579c.83.415 1.993.664 3.404.83 1.412.167 3.239.25 5.397.25 2.575 0 4.567-.083 6.145-.25 1.495-.166 2.74-.415 3.57-.747.831-.333 1.412-.748 1.661-1.247.249-.498.415-1.08.415-1.744 0-.665-.166-1.662-.498-2.909h-.415zm-51.232-87.075c-4.235 1.412-9.217 2.077-14.946 2.077H557.78V19.442h18.516c4.318 0 7.806.167 10.546.416 2.657.25 5.065.665 7.224 1.246 6.809 1.994 11.625 5.152 14.531 9.638 2.906 4.487 4.318 9.888 4.318 16.369 0 3.988-.665 7.727-1.993 11.05-1.329 3.407-3.405 6.315-6.145 8.89-2.823 2.493-6.31 4.487-10.545 5.9h-.083zM384.902 3.573c-.415-.748-.83-1.33-1.411-1.662a3.555 3.555 0 00-1.827-.499H266.911c-.665 0-1.329.167-1.827.499-.581.332-.996.914-1.329 1.662-.332.748-.581 1.745-.83 2.99-.249 1.247-.332 2.66-.332 4.238 0 1.579.083 2.992.332 4.238.249 1.163.498 2.16.83 2.825.333.748.748 1.246 1.329 1.578a3.553 3.553 0 001.827.499h46.416v142.911c0 .664.166 1.246.498 1.744.332.499.913.914 1.744 1.247.83.332 1.993.581 3.404.747 1.412.25 3.155.333 5.231.333s3.903-.083 5.315-.333a37.53 37.53 0 003.404-.747c.83-.333 1.412-.665 1.827-1.247.332-.498.498-1.08.498-1.744V20.024h46.416c.664 0 1.329-.166 1.827-.498.581-.333.996-.831 1.411-1.58.416-.747.665-1.66.831-2.824.166-1.163.249-2.576.249-4.238 0-1.661-.083-3.074-.249-4.237-.166-1.246-.415-2.243-.831-2.991v-.083z" fill="#4B626D"/></svg>