<svg width="800" height="363" fill="none" xmlns="http://www.w3.org/2000/svg"><g clip-path="url(#clip0_155_1166)" fill="#4B626D"><path d="M478.323 152.584c6.664-.106 10.423-5.038 10.663-17.78-.253-12.808-4.079-17.753-10.663-17.846-4.598.08-5.638 1.733-8.437 4.172v27.576a12.604 12.604 0 008.384 3.878h.053zm101.988 72.439h-.32c-8.823-.106-13.635 8.41-14.754 15.621h29.815c-1.973-10.383-6.344-15.407-14.741-15.621zm-241.748.04c-10.915.134-15.26 7.211-15.634 23.991.374 16.807 4.732 23.884 15.608 24.057v-.066c10.916-.107 15.274-7.197 15.66-23.991-.386-16.74-4.744-23.818-15.634-23.991zm321.504-109.078c-4.825.173-7.651 2.612-8.61 8.65h17.22c-.946-5.984-3.785-8.49-8.61-8.65zM512.15 251.24c9.223-.467 12.915-3.199 13.328-12.888-.386-9.943-4.158-12.902-13.328-13.329v.027c-8.836.267-13.061 4.692-13.328 13.262.2 9.409 5.478 12.621 13.328 12.928zm20.486-102.507c.226 3.612 1.399 4.545 4.345 4.784h.986c2.719.12 6.651-2.852 9.463-5.211v-9.13c-3.385.6-6.704 1.6-9.863 2.972-3.372 1.773-4.851 3.373-4.931 6.585zm176.425-44.983c4.412 0 7.997-3.585 7.997-7.997s-3.585-7.997-7.997-7.997c-4.411 0-7.997 3.585-7.997 7.997s3.586 7.997 7.997 7.997zm-3.918-13.755h3.772a5.947 5.947 0 012.865.613 2.736 2.736 0 011.4 2.666 2.67 2.67 0 01-1.533 2.479l-.04.027c.746.413 1.2 1.2 1.2 2.052a19.58 19.58 0 00.746 3.385h-2.812v-.239c-.107-.574-.28-1.267-.36-1.906-.107-.933-.227-1.706-.52-2.053-.293-.346-.72-.346-1.333-.346h-1.079v4.478h-2.306V89.995zM499.009 291.758c2.425 1.439 6.69 2.492 12.795 2.492h.173c7.477 0 12.688-1.133 15.594-2.666v.12c3.026-1.759 3.705-3.105 3.812-5.331-.133-2.026-.293-3.039-2.959-4.691-2.586-1.48-7.864-2.813-16.86-2.813h-.133c-13.742.36-15.474 4.265-15.648 7.811.094 2.172.8 3.638 3.226 5.078z"/><path d="M399.767.296C229.405.296 110.064 28.046 0 73.215v216.304c98.016 43.49 238.575 73.065 399.713 73.065 161.139 0 302.151-30.655 399.967-73.172V73.242C688.056 28.044 567.636.296 399.767.296zM783.046 277.95c-90.552 38.798-220.382 67.88-383.586 67.88s-287.503-28.549-382.826-68.04V84.77c89.152-37.332 217.61-67.76 382.879-67.76 165.27 0 295.314 31.588 383.533 67.774V277.95z"/><path d="M399.513 27.712c-175.599 0-298.432 34.28-372.177 64.269v178.598c106.253 42.824 231.405 64.535 372.124 64.535 76.557 0 149.596-6.45 217.064-19.205 57.484-10.85 109.864-26.004 155.846-45.05V91.968c-46.902-18.7-98.242-33.507-152.714-44.17-68.454-13.355-142.519-20.126-220.143-20.126v.04zM172.027 168.285l-59.937-.053v-85.9h58.711v17.913h-38.292v14.487h27.803v17.913h-27.803v17.794h39.518v17.846zm1.853-67.241h21.179l6.757 14.101 6.837-14.101h20.592l-17.646 32.428 19.246 34.8h-20.592l-8.304-16.447-8.023 16.447h-21.299l19.273-34.787-18.02-32.441zm81.062 158.699v-.066c-.013 17.246-14.674 26.749-30.095 26.736h-.706c-17.567 0-28.949-9.036-33.827-26.163l-.827-2.666 10.276-3.225 2.906-.907.333 1.4.4 1.533c3.545 12.861 9.33 17.26 22.658 17.58 9.85-.254 14.661-5.438 14.954-15.101-.093-5.038-2.199-7.784-6.264-10.583-4.065-2.799-9.943-4.705-15.994-6.904-11.995-4.225-26.043-10.116-26.07-27.123a25.506 25.506 0 017.531-18.793c4.998-4.771 12.208-7.463 21.018-7.463h.2c15.114 0 26.896 8.796 31.175 23.684l.813 2.759-12.489 3.772-.413-1.267-.466-1.412c-3.146-9.263-8.69-14.888-18.767-15.008-9.329.28-14.474 4.558-14.661 13.728 0 2.666.134 4.279 2.08 6.344 1.946 2.066 6.157 4.532 14.248 7.704 24.843 9.05 32.134 16.994 31.987 31.015v.426zm-10.422-94.817c-2.893-3.118-3.999-7.423-3.999-12.182v-34.6h-8.143v-17.113h8.17v-18.1h18.873v18.26h11.475v16.967h-11.475v32.6a2.934 2.934 0 00.306 1.467c.706.293 1.48.413 2.239.359h.133c2-.159 3.959-.546 5.878-1.132l2.972-.733v17.606l-1.079.133s-8.33 1.107-12.422 1.107c-5.545 0-10.036-1.52-12.928-4.639zm56.471 60.497h-13.874v43.983c0 1.84.293 2.666.613 3.013.32.346 1.106.666 2.972.666a23.338 23.338 0 006.557-1.213l3.719-1.173v12.529l-1.16.173-1.266.2c-2.585.573-5.224.96-7.863 1.146-5.425 0-9.57-.866-12.609-3.372-3.039-2.506-3.998-6.397-3.998-10.662v-45.17h-9.503v-11.649h9.503v-20.938h13.008v20.885h13.861v10.249h.04v1.333zm7.171-104.933h-.427c-2.265-.013-4.918 1.586-6.97 3.492a17.888 17.888 0 00-3.479 4.265v40.145H278.4v-67.228h17.766v5.065a18.766 18.766 0 0114.222-6.251l2.452-.067v21.179l-1.479-.267-1.333-.24c-.613-.093-1.24-.12-1.866-.093zm52.82 152.875c-4.385 6.771-11.903 11.235-22.285 11.235h-.293c-10.343.014-17.914-4.491-22.339-11.222-4.425-6.731-6.011-15.461-6.011-24.324 0-8.863 1.613-17.58 6.011-24.324 4.399-6.744 11.929-11.209 22.312-11.209h.32c10.396-.027 17.913 4.438 22.325 11.209 4.438 6.784 6.024 15.421 5.984 24.297-.04 8.877-1.586 17.594-6.024 24.338zm-10.57-104.987l-.626-3.732a29.76 29.76 0 01-16.407 4.919h-.173a17.589 17.589 0 01-13.662-5.865 19.97 19.97 0 01-4.598-13.128c-.027-15.381 12.049-23.631 33.68-26.55v-3.052c-.106-3.279-1.866-4.692-6.131-4.932-5.584.054-8.25 2.866-10.915 6.585l-1.48 2.145-12.715-10.249.52-.933.533-.96c4.225-7.463 14.114-12.541 23.444-12.635h.627c7.997.054 14.367 1.88 18.659 6.291 4.292 4.412 6.291 11.156 6.291 20.486v30.108c-.093 2.759.24 5.505.986 8.157l1.053 3.345h-19.086zm62.35 56.499v1.333h-6.171c-2.799 0-6.851 1.919-9.916 5.331a20.004 20.004 0 00-5.398 13.328v38.452h-12.849v-68.587h12.849v5.758a21.33 21.33 0 0115.407-6.944h6.078v11.329zm196.751 41.677l-.8 1.333c-6.584 11.276-14.141 16.74-26.27 16.74h-.946c-8.703.013-16.287-2.919-21.498-9.023-5.212-6.104-7.877-15.008-7.877-26.51 0-10.236 2.545-19.033 7.477-25.417a25.735 25.735 0 0120.952-10.129h.16c9.143 0 16.393 3.838 20.992 10.329 4.598 6.491 6.664 15.314 6.664 25.444v2.825H565.09c.88 12.342 5.891 20.966 17.06 20.966 7.277-.227 9.41-1.6 15.847-11.383l1.413-2.239.053.053 10.783 5.798-.733 1.213zM709.061 85.21c5.851 0 10.623 4.732 10.663 10.583 0 5.824-4.705 10.569-10.529 10.609-5.851.04-10.623-4.678-10.663-10.53-.04-5.85 4.678-10.622 10.529-10.662zm-69.386 24.458a25.306 25.306 0 0120.592-9.677h.253c16.874.054 26.203 15.354 26.203 31.108v8.597H651.39c.986 10.223 4.865 12.702 9.61 12.888 5.718-.133 7.65-2.265 11.249-6.517l1.319-1.679-.026-.027h.04v.027l13.981 9.169-.64 1.053-.666 1.053c-5.758 9.597-14.795 13.902-26.497 13.902h-.16a24.399 24.399 0 01-20.019-9.717c-4.718-6.171-7.21-14.754-7.21-25.043 0-10.29 2.492-18.94 7.317-25.137h-.013zm-58.285-.08a25.242 25.242 0 0120.632-9.663h.134c11.662-.347 22.098 7.197 25.43 18.379l.706 2.226-13.754 5.665-2.2.893-.479-1.147-.453-1.039c-2.493-5.332-3.759-7.837-9.33-7.997a6.957 6.957 0 00-6.664 3.772c-1.533 2.692-2.559 7.277-2.479 14.074.08 6.798.946 11.396 2.519 14.048 1.572 2.653 3.598 3.759 7.024 3.759 4.758 0 7.463-3.199 10.276-8.53v-.027l1.146-2.346 14.848 8.81-.534 1.053-.533 1.053c-5.664 11.502-13.888 16.954-25.03 16.954h-.653a25.181 25.181 0 01-20.606-9.73c-4.838-6.198-7.33-14.781-7.33-25.07 0-10.29 2.492-18.926 7.33-25.137zm-40.144 6.41c-5.545.067-8.21 2.866-10.876 6.585l-1.479 2.159-12.716-10.25.52-.919.52-.973c4.238-7.464 14.115-12.542 23.444-12.635.2-.014.413-.014.613 0 8.077.053 14.448 1.879 18.74 6.291 4.292 4.411 6.291 11.169 6.291 20.498v30.109c-.093 2.772.24 5.544.999 8.21l1.093 3.305h-19.112l-.613-3.718a29.93 29.93 0 01-16.407 4.905h-.16a17.604 17.604 0 01-13.755-5.905 19.964 19.964 0 01-4.598-13.128c-.027-15.381 12.062-23.631 33.68-26.55v-3.052c-.133-3.279-1.853-4.692-6.184-4.932zm-27.71 97.55a27.528 27.528 0 0114.168 3.705 20.873 20.873 0 0113.422-4.891h2.719v12.235h-3.079a16.822 16.822 0 00-5.691.813 22.426 22.426 0 013.225 12.302v.213c0 8.397-3.105 14.861-8.143 18.979-5.038 4.119-11.729 5.838-18.78 5.838a30.606 30.606 0 01-9.916-1.732c-2.479 1.146-3.025 2.279-3.025 2.905 0 .28.039.547.079.826.067.067.147.12.227.16.347.187.706.36 1.08.494 1.986.719 6.717 1.212 14.967 1.212h.107c9.623.027 16.78 1.52 21.805 4.785a16.298 16.298 0 017.517 14.235h.067v.266a16.894 16.894 0 01-7.358 14.208c-5.144 3.625-12.821 5.611-23.87 5.598-11.05 0-18.38-1.866-23.218-5.118a14.687 14.687 0 01-6.838-12.489v-.453a14.79 14.79 0 017.011-12.835 9.895 9.895 0 01-4.372-8.476v-.24a13.855 13.855 0 016.838-11.383 22.448 22.448 0 01-6.478-15.66.393.393 0 010-.174 24.335 24.335 0 017.597-18.433c4.905-4.504 11.796-6.89 19.873-6.89h.066zM450.96 101.191h18.367v2.785a21.072 21.072 0 0112.542-3.998v-.04c17.473.067 25.923 16.607 25.923 36.506 0 15.994-8.877 32.987-25.963 33.121a22.795 22.795 0 01-11.996-3.999v25.55H450.96v-89.925zm-5.051 112.357c7.437 0 13.501 1.519 17.647 5.371 4.145 3.852 6.024 9.61 6.024 16.807v33.32c0 3.692.306 7.384.906 11.036l.027.067.533 3.305h-12.782l-.653-5.331a33.006 33.006 0 01-20.179 6.464h-.266a20.5 20.5 0 01-14.128-5.091 18.797 18.797 0 01-5.865-14.208v-.213a20.783 20.783 0 0111.716-19.58c6.931-3.745 16.26-5.931 28.256-8.596v-2.039c-.147-3.839-.8-6.078-2.226-7.451-1.426-1.373-4.212-2.199-9.237-2.346-6.37.04-11.422 3.319-15.7 10.05l-1.506 2.359-9.45-5.745.6-1.119.639-1.253c5.665-10.889 14.648-15.807 25.431-15.807h.213zM410.163 75.894c13.914-.027 25.83 7.584 31.001 21.072l.187.453.4 1.08.373.96-.373.132-1.72.574-16.833 5.517-.413-1.159-.387-1.08c-2.252-6.05-6.011-9.53-12.289-9.61-6.357.32-9.036 1.947-9.209 7.158v.24c-.054 2.026 1.932 4.092 5.544 6.117 3.612 2.026 8.65 3.946 13.981 6.185 10.503 4.451 22.498 11.515 22.498 27.109v.094c0 9.249-2.878 16.66-8.343 21.645-5.465 4.984-13.262 7.29-22.658 7.29-14.208 0-27.736-8.437-32.801-22.085l-.839-2.185 17.18-7.997.533 1.119.52 1.093c3.758 7.77 7.437 11.876 15.514 11.995l-.04.08c7.45-.333 11.249-2.185 11.382-8.956v-.253c.32-5.558-8.783-9.463-19.526-13.928-10.543-4.545-22.538-11.009-22.538-26.004-.013-17.02 13.781-26.656 28.736-26.656h.12z"/><path d="M430.088 265.101c.227 5.571 2.879 7.731 8.317 7.997 5.331.04 12.715-3.279 18.34-8.756l.08-.067v-15.847c-11.982 2.892-18.846 5.637-22.405 8.223-3.852 2.959-4.198 4.812-4.332 8.45zM710.501 93.22a.724.724 0 00-.24-.64c-.347-.2-.733-.28-1.133-.24h-1.693v2.08h1.426c1.493-.107 1.56-.507 1.64-1.2zm-361.928 45.956a44.812 44.812 0 00-9.863 2.972c-3.372 1.773-4.851 3.373-4.931 6.585.24 3.612 1.426 4.558 4.345 4.784h.106c2.733.12 7.557-2.852 10.356-5.211h-.013v-9.13z"/></g><defs><clipPath id="clip0_155_1166"><path fill="#fff" d="M0 0h799.68v362.88H0z"/></clipPath></defs></svg>