<svg width="582" height="183" fill="none" xmlns="http://www.w3.org/2000/svg"><path d="M43.368 136.24H7.518l28.91-102.757h73.726l-7.228 24.246H65.341l-4.626 17.607h37.586l-6.36 22.514H54.354l-10.987 38.39zm83.267 0H91.073l21.106-75.048h35.562l-21.106 75.048zm23.13-82.264h-35.562l5.782-20.493h35.562l-5.782 20.493zm69.389 82.264H184.17l2.602-8.371c-6.939 6.639-16.191 10.391-25.732 10.103-11.565 0-18.793-5.485-18.793-17.319a110.061 110.061 0 0112.722-45.606c5.493-9.814 15.901-15.875 27.177-15.298 10.119 0 17.636 4.33 20.528 9.814l9.83-36.369h35.562L219.154 136.24zm-26.889-52.822c-3.758-.289-6.939 2.02-8.095 5.484-2.891 5.773-4.626 12.123-4.915 18.762 0 2.886 2.313 5.196 5.204 5.484h.289c2.024 0 4.337-.577 6.072-1.732l7.228-24.534c-1.446-2.31-3.47-3.464-5.783-3.464zm127.503 19.916h-49.151c-1.156 3.175-1.735 6.639-2.024 9.814-.289 2.598 1.446 4.907 4.048 5.484h1.156c4.915 0 7.228-2.02 9.252-9.236h34.984c-4.337 21.36-29.78 28.576-45.392 28.576-21.106 0-37.586-2.887-37.586-23.381.868-14.143 5.204-27.71 13.011-39.255 8.962-11.834 24.575-16.164 39.031-16.164 21.973 0 36.429 4.618 36.429 23.38-.578 6.927-1.735 14.144-3.758 20.782zm-35.562-25.112c-4.337 0-7.517 2.887-9.252 10.68h14.745c.578-1.732.867-3.463.867-5.195-.289-4.33-2.602-5.485-6.36-5.485zm71.413 58.018h-35.851L348.68 33.483h35.561L355.619 136.24zm46.837 0h-35.562L388 61.192h35.562l-21.106 75.048zm23.13-82.264h-35.851l5.782-20.493h35.562l-5.493 20.493zm63.895 6.928l3.181 17.03h-27.178l-8.095 28.575c-.578 2.31-1.157 4.33-1.157 6.639 0 3.464 1.446 4.33 6.072 4.33h7.517l-5.204 18.473h-31.803c-10.409 0-14.456-5.195-14.456-12.7 0-3.464.578-7.216 1.445-10.391l19.371-68.409h35.562l-4.626 16.741h19.371v-.288zm59.559 67.542c0-1.443-1.445-1.443-2.602-1.443h-1.445v2.887h1.734c.868 0 2.313 0 2.313-1.444z" fill="#4B626D"/><path d="M546.438 122.673c-4.337 0-8.095 3.464-8.095 8.083 0 4.329 3.469 8.082 8.095 8.082 4.337 0 8.096-3.464 8.096-8.082 0-4.33-3.759-8.083-8.096-8.083zm2.602 13.567l-2.602-4.619h-1.445v4.619h-2.024v-10.969h4.337c2.602 0 4.047 1.155 4.047 3.464 0 1.443-1.156 2.886-2.602 2.886l2.891 4.619h-2.602z" fill="#4B626D"/><path d="M546.438 120.942c-5.493 0-9.541 4.329-9.541 9.814 0 5.484 4.337 9.525 9.83 9.525 5.494 0 9.541-4.33 9.541-9.814-.289-5.196-4.626-9.525-9.83-9.525zm0 17.607c-4.337 0-8.095-3.464-8.095-7.793 0-4.33 3.469-8.082 7.806-8.082s8.095 3.463 8.095 7.793c.29 4.618-3.469 8.082-7.806 8.082z" fill="#4B626D"/><path d="M550.486 128.735c0-2.02-1.157-2.886-3.47-2.886h-3.758v9.813h1.735v-4.041h1.445l2.602 4.041h2.024l-2.602-4.329c.867 0 2.024-1.155 2.024-2.598zm-5.493 1.155v-2.887h1.445c1.157 0 2.313 0 2.313 1.443 0 1.444-1.156 1.444-2.313 1.444h-1.445zm-7.229-68.986l-19.371 41.564.579-41.564h-36.14l6.938 75.047c-.867 4.33-2.313 6.928-5.204 8.082-4.047 1.155-8.095 1.443-12.143.866h-.578l-5.783 20.494h24.287c14.456 0 21.395-7.216 31.514-23.092l51.752-81.397h-35.851z" fill="#4B626D"/></svg>