<svg width="800" height="144" fill="none" xmlns="http://www.w3.org/2000/svg"><g clip-path="url(#clip0_152_1241)" fill="#4B626D"><path d="M179.86 36.26h47.29v12.37h-32.67V65.4h30.22v12.66h-30.22v29.82h-14.62V36.26zm49.64 29.53c0-3.82 0-6.47-.1-9.51h13v2.35c0 1.67 0 3.34-.1 4.91h.3c2.65-5.59 7.55-8.44 14.62-8.44.983.003 1.965.07 2.94.2L260 68.15a11.998 11.998 0 00-3.63-.49c-10 0-13.24 5.39-13.24 18.44v21.78H229.5V65.79zm29.43 27.57c0-9.42 5.79-13.44 20-16.09l8.44-1.57c4-.78 5.2-.78 5.2-3.43 0-4.32-3.34-7.06-9.23-7.06-6.28 0-9.41 3.33-9.81 8.33l-12.95-.78c.79-10.5 9.13-17.56 23-17.56 14.62 0 22.17 6.18 22.17 20v30.22c0 1.18.1 2.06.1 2.45h-11.69a22.543 22.543 0 01-.1-2.65v-2H294c-3.53 3.44-8.73 5.59-16.19 5.59-11.52.05-18.88-5.64-18.88-15.45zm33.95-5.49V86a4.872 4.872 0 01.2-2.07c-2.46.69-3.93.79-7.17 1.48-8.83 1.76-13.24 2.45-13.24 7.75 0 4.22 3 6.57 8.53 6.57 7.36.01 11.68-4.11 11.68-11.86zm20.31-21.78c0-2.65 0-7.06-.1-9.81h13.15v2.06c0 1.27 0 2.84-.1 4.12h.19c3.05-4.61 8.74-7.56 16.19-7.56 11.68 0 18.74 6.87 18.74 21.29v31.69h-13.73V83c0-11.38-2.26-16.58-9.62-16.58-7.85 0-11 5-11 15.7v25.8h-13.72V66.09zm55.72-29.83h13.64v25.51c0 6.28-.1 12.36-.1 16.68 4.22-5.1 7.95-9 11.09-12.85l7.95-9.32h16.77L397.17 79l22.56 28.84h-17.36l-14.52-19.77-5.3 5.69v14.12h-13.64V36.26zm54.36 0h13.93v71.62h-13.93V36.26zm23.73 0h13.93v13H447v-13zm0 20h13.93v51.6H447v-51.6zm23.75 9.83c0-2.65 0-7.06-.1-9.81h13.15v2.06c0 1.27 0 2.84-.1 4.12h.2c3-4.61 8.73-7.56 16.18-7.56 11.68 0 18.74 6.87 18.74 21.29v31.69h-13.73V83c0-11.38-2.26-16.58-9.62-16.58-7.85 0-11 5-11 15.7v25.8h-13.72V66.09zM524 72.17c0-21.88 14.72-37.28 35.81-37.28 15.8 0 27 8.14 30.91 21.19l-14.13 3c-2.85-7.45-8.54-11.48-17.17-11.48-12.66 0-20.21 10.6-20.21 24.43 0 14.52 7.95 24.82 20.6 24.82 8.24 0 14-4.51 16.78-11.57L591 88c-4 13.24-15.4 21.29-31.39 21.29-21.46-.03-35.61-15.14-35.61-37.12zm70.56 9.91c0-16.09 11.09-27.27 27.28-27.27S648.91 66 648.91 82.08s-11.08 27.08-27.17 27.08c-16.09 0-27.18-10.99-27.18-27.08zm40.32.1c0-9.42-4.61-16.19-13.14-16.19-8.53 0-13.34 6.67-13.34 16.09 0 9.81 4.7 16 13.34 16s13.14-6.19 13.14-15.9zm11.58-25.9H661l7.16 23c1.67 5.5 3.24 10.21 4.71 15.21h.3c1.47-5 2.65-9.81 4.51-15.3l7.36-23h14.32l-19.23 51.6h-15.2l-18.47-51.51zm49.94 25.9c0-15.7 10.59-27.28 26.78-27.28 17.86 0 25.61 12.66 25.61 30.71h-38.95c.69 8 6.08 13 13.83 13 7.16 0 11.58-3.82 13.64-7.35l11.18 4.41c-3.92 7.55-12.46 13.54-25 13.54-16.49-.05-27.09-10.55-27.09-27.03zm38.85-5.79c-.49-6.08-4.51-11.58-12.17-11.58-7.45 0-12.06 4.91-13.14 11.58h25.31z"/><path d="M752.52 126.33l-1.28-10.4c1.47.1 2.65.1 3.83.1 5.88 0 9.22-.89 11.57-8l-19.81-51.8h14.91l5.69 17.66c2.06 6.57 4.22 13.34 6.18 20.11h.39c2.36-8.14 3.53-12.36 5.89-20l5.59-17.76H800l-20.8 55.23c-4.71 12.17-11.38 15-22.56 15-1.28.05-2.64-.04-4.12-.14zm-710-77.45L2.29 66.38a1.63 1.63 0 01-2.16-2.12l14.67-36A24.49 24.49 0 0128.26 14.8l36-14.67a1.63 1.63 0 012.12 2.16l-17.5 40.23a12.27 12.27 0 01-6.36 6.36zm58.93 0l40.23 17.5a1.64 1.64 0 002.17-2.12l-14.67-36a24.562 24.562 0 00-13.46-13.46L79.71.13a1.63 1.63 0 00-2.12 2.16L95.1 42.52a12.29 12.29 0 006.35 6.36zm-6.35 52.57l-17.51 40.23a1.64 1.64 0 002.12 2.17l36-14.67a24.606 24.606 0 008.083-5.377 24.606 24.606 0 005.377-8.083l14.67-36a1.635 1.635 0 00-.375-1.787 1.637 1.637 0 00-1.795-.333l-40.22 17.5a12.3 12.3 0 00-6.35 6.35zM42.52 95.1L2.29 77.59a1.63 1.63 0 00-2.16 2.12l14.67 36a24.555 24.555 0 0013.46 13.46l36 14.67a1.635 1.635 0 001.787-.375 1.637 1.637 0 00.333-1.795l-17.5-40.23a12.29 12.29 0 00-6.36-6.34z"/></g><defs><clipPath id="clip0_152_1241"><path fill="#fff" d="M0 0h800v143.98H0z"/></clipPath></defs></svg>