<svg version="1.1" id="Layer_1" xmlns="http://www.w3.org/2000/svg" xmlns:xlink="http://www.w3.org/1999/xlink" x="0" y="0" viewBox="0 0 167 30" xml:space="preserve"><style/><defs><path id="SVGID_1_" d="M0 0h167.4v29.6H0z"/></defs><clipPath id="SVGID_00000120529752407379698110000011397923853692921774_"><use xlink:href="#SVGID_1_" overflow="visible"/></clipPath><path d="M87 17.9C87 24.3 82.6 29 74.9 29H64.1V6.7h10.8c7.5 0 12.1 4.8 12.1 11.2m-19.5-8v15.8h7.4c5.6 0 8.5-3.3 8.5-7.9 0-4.5-3.3-7.9-8.5-7.9h-7.4z" clip-path="url(#SVGID_00000120529752407379698110000011397923853692921774_)" fill="#4b626e"/><path fill="none" d="M0 0h167.4v29.6H0z"/><path fill="#4b626e" d="M91.9 6.7h20.9V10H95.4v6h13v3.2h-13v6.6h17.4V29H91.9z"/><defs><path id="SVGID_00000091015406318035869390000010937092408535903163_" d="M0 0h167.4v29.6H0z"/></defs><clipPath id="SVGID_00000067223518600803351860000013782042625294707332_"><use xlink:href="#SVGID_00000091015406318035869390000010937092408535903163_" overflow="visible"/></clipPath><path d="M121.8 29h-3.5V6.7h15.3c4.5 0 7.3 2.3 7.3 6.2 0 3.1-2.1 5.7-5.5 6.2l6.2 9.8h-3.8l-6.3-9.8h-9.7V29zm11.9-13.1c2.4 0 3.7-1.1 3.7-3s-1.3-2.9-3.7-2.9h-11.9v6c0-.1 11.9-.1 11.9-.1z" clip-path="url(#SVGID_00000067223518600803351860000013782042625294707332_)" fill="#4b626e"/><defs><path id="SVGID_00000080208209644137308950000010348359404388718755_" d="M0 0h167.4v29.6H0z"/></defs><clipPath id="SVGID_00000018918657824677521860000001666482997115289753_"><use xlink:href="#SVGID_00000080208209644137308950000010348359404388718755_" overflow="visible"/></clipPath><path clip-path="url(#SVGID_00000018918657824677521860000001666482997115289753_)" fill="#4b626e" d="M146.5 6.7h20.9V10H150v6h13v3.2h-13v6.6h17.4V29h-20.9z"/><defs><path id="SVGID_00000035494453369930662900000011236957722605012659_" d="M0 0h167.4v29.6H0z"/></defs><clipPath id="SVGID_00000011720550924421489220000002859498647821801100_"><use xlink:href="#SVGID_00000035494453369930662900000011236957722605012659_" overflow="visible"/></clipPath><path d="M31.9 17.9c0-6.6 5.4-11.7 13.6-11.7s13.7 5.1 13.7 11.7-5.4 11.8-13.7 11.8c-8.1-.1-13.6-5.3-13.6-11.8m23.7 0c0-4.8-4-8.5-10.1-8.5s-10 3.7-10 8.5 3.9 8.5 10 8.5c6.2 0 10.1-3.8 10.1-8.5" clip-path="url(#SVGID_00000011720550924421489220000002859498647821801100_)" fill="#4b626e"/><defs><path id="SVGID_00000122706984268653759900000005577629731139561374_" d="M0 0h167.4v29.6H0z"/></defs><clipPath id="SVGID_00000010276320126798638330000015575446580170205367_"><use xlink:href="#SVGID_00000122706984268653759900000005577629731139561374_" overflow="visible"/></clipPath><path clip-path="url(#SVGID_00000010276320126798638330000015575446580170205367_)" fill="#4b626e" d="M36.6 0h17.9v2.8H36.6z"/><defs><path id="SVGID_00000129168064749416766490000011926271886336041349_" d="M0 0h167.4v29.6H0z"/></defs><clipPath id="SVGID_00000036245990045352660550000009923049935984450486_"><use xlink:href="#SVGID_00000129168064749416766490000011926271886336041349_" overflow="visible"/></clipPath><path clip-path="url(#SVGID_00000036245990045352660550000009923049935984450486_)" fill="#4b626e" d="M23.1 6.7l-9.6 15-9.6-15H0V29h3.5V12.4L12 25.7h3.1l8.5-13.3V29h3.5V6.7z"/></svg>