<svg width="1041" height="184" fill="none" xmlns="http://www.w3.org/2000/svg"><path fill-rule="evenodd" clip-rule="evenodd" d="M1040.9 146.73h-1.74v-12.435h-.06l-4.85 12.435h-1.13l-4.84-12.435h-.07v12.435h-1.75v-13.882h3.21l4.01 10.26h.06l3.95-10.26h3.21v13.882zm-17.03-12.562h-4.48v12.562h-1.74v-12.562h-4.47v-1.32h10.69v1.32zM219.556 93.776c0 22.575 12.312 45.157 37.158 45.157 24.84 0 37.158-22.582 37.158-45.163 0-22.575-12.312-45.156-37.158-45.156-24.846 0-37.164 22.581-37.164 45.156m87.262 0c0 30.379-17.662 56.044-50.098 56.044-32.443 0-50.098-25.665-50.098-56.044 0-30.379 17.655-56.031 50.098-56.031 32.436 0 50.098 25.652 50.098 56.031zm-2.31-52.954h14.368l33.261 92.984h.413l32.849-92.984h13.346L359.112 146.73H345.36L304.502 40.816zm174.785 45.569c-.616-19.51-12.731-37.771-33.674-37.771-21.146 0-32.849 18.476-34.905 37.77h68.579zM410.708 97.26c.203 18.888 10.059 41.673 34.905 41.673 18.893 0 29.155-11.085 33.255-27.093h12.947c-5.547 24.015-19.509 37.968-46.202 37.968-33.674 0-47.839-25.862-47.839-56.038 0-27.917 14.165-56.031 47.839-56.031 34.08 0 47.636 29.757 46.608 59.52h-81.513zm214.418-25.45c-.616-16.014-12.934-23.196-27.715-23.196-11.499 0-25.049 4.518-25.049 18.273 0 11.49 13.137 15.596 21.971 17.855l17.243 3.901c14.787 2.253 30.184 10.876 30.184 29.352 0 22.987-22.79 31.819-42.502 31.819-24.643 0-41.473-11.497-43.529-37.365h12.94c1.028 17.449 13.962 26.484 31.205 26.484 12.121 0 28.952-5.336 28.952-20.113 0-12.316-11.5-16.427-23.202-19.301l-16.628-3.693c-16.837-4.518-29.574-10.266-29.574-28.33 0-21.553 21.153-29.757 39.836-29.757 21.146 0 37.983 11.084 38.802 34.072h-12.934zm48.378-30.994h21.559v10.875h-21.559v71.437c0 8.413 1.231 13.343 10.472 13.958 3.693 0 7.393-.209 11.087-.615v11.084c-3.903 0-7.597.406-11.5.406-17.249 0-23.202-5.742-22.993-23.805V51.698h-12.521V40.81h12.521V9.003h12.934v31.813zm36.904 52.96c0 22.575 12.319 45.157 37.164 45.157 24.846 0 37.165-22.582 37.165-45.163 0-22.575-12.319-45.156-37.165-45.156-24.845 0-37.164 22.588-37.164 45.163zm87.263-.006c0 30.379-17.662 56.044-50.099 56.044-32.436 0-50.098-25.665-50.098-56.044 0-30.379 17.662-56.031 50.098-56.031 32.437 0 50.099 25.652 50.099 56.031zm91.66-19.7c-3.491-15.805-13.137-25.456-29.974-25.456-24.846 0-37.164 22.581-37.164 45.156 0 22.588 12.312 45.163 37.164 45.163 16.012 0 29.155-12.525 30.793-30.176h12.933c-3.49 25.455-20.117 41.051-43.726 41.051-32.442 0-50.098-25.652-50.098-56.038 0-30.379 17.656-56.037 50.098-56.037 22.587 0 40.033 12.118 42.908 36.337h-12.934zm27.34-73.9h12.934v91.962l58.723-51.317h17.242L960.404 80.02l48.256 66.709h-16.226l-41.886-57.674-20.943 17.448v40.226h-12.934V.171zM552.759 39.846C537.895 41.9 526.707 51.24 521.147 65.65h-.412V40.816h-11.912V146.73h12.946V90.287c0-19.225 12.255-34.82 30.996-37.6l-.006-12.841zM4.326.38v93.016C18.046 56.443 56.049 28.19 94.66 28.19c42.774 0 70.064 34.668 60.982 77.42-7.013 32.961-33.604 61.088-65.006 72.254h91.223V.387H4.326V.381z" fill="#4B626D"/><path fill-rule="evenodd" clip-rule="evenodd" d="M127.28 105.61c0-36.953-21.977-66.92-49.083-66.92-27.105 0-49.082 29.967-49.082 66.92 0 36.958 21.977 66.918 49.082 66.918 27.106 0 49.083-29.96 49.083-66.918z" fill="#4B626D"/></svg>