<svg width="511" height="151" fill="none" xmlns="http://www.w3.org/2000/svg"><path fill-rule="evenodd" clip-rule="evenodd" d="M304.222 98.716c-1.24 1.633-5.287 6.508-10.321 6.508-6.807 0-8.236-4.537-8.236-8.342 0-6.259 5.046-9.154 18.557-12.321v14.155zm16.819 7.666a1.091 1.091 0 00-1.251-.644l-.165.04c-1.552.319-2.747.228-3.582-.307-1.188-.764-1.765-2.483-1.765-5.257v-25.09c0-9.798-6.155-14.767-18.294-14.767-10.875 0-19.393 4.887-19.393 11.125 0 3.207 2.059 5.525 5.098 5.874 1.987.227 3.88-.627 5.257-2.006 2.673-2.678 2.326-5.862-.914-9.283 1.916-1.904 5.312-3.031 9.184-3.031 6.311 0 9.004 3.553 9.004 11.882v6.34c-1.48.434-2.865.846-5.397 1.41-5.109 1.14-12.119 2.654-17.406 5.428-4.365 2.27-6.579 5.858-6.579 10.661 0 5.227 3.614 11.332 13.8 11.332 5.702 0 10.812-2.569 16.058-8.079.451 5.726 2.737 7.871 8.28 7.871 2.666 0 4.799-.59 7.335-1.754.685-.316 1.013-1.073.73-1.745zm110.011-43.374c-6.156 0-13.22 2.52-13.22 22.164 0 14.983 4.644 22.265 14.195 22.265 9.14 0 13.218-6.866 13.218-22.265 0-14.914-4.644-22.164-14.193-22.164zm.545 47.081c-14.244 0-24.986-10.623-24.986-24.712 0-13.796 11.21-25.02 24.986-25.02 13.951 0 24.882 10.808 24.882 24.609 0 15.517-12.916 25.123-24.882 25.123zM188.36 97.375V79.474h6.882c10.27 0 18.082-2.178 23.221-6.472 5.371-4.487 6.498-10.174 6.498-14.153 0-16.369-15.77-19.804-29-19.804l.052-.002h-26.835c-.607 0-1.102.495-1.102 1.104v.073-.024c0 .562.342 1.063.869 1.256 2.39.88 8.883-.358 8.883 6.615v49.298c0 3.586-1.588 6.115-8.846 6.802a1.106 1.106 0 00-1.011 1.098v.169c0 .608.495 1.103 1.102 1.103h28.67c.608 0 1.102-.495 1.102-1.103v-.151c0-.57-.451-1.053-1.027-1.097-7.885-.633-9.467-3.079-9.467-6.821v-17.86m24.754-20.862c0 11.389-2.804 17.663-17.136 17.663h-7.6V41.892h7.908c14.828 0 16.828 8.467 16.828 16.75zm23.427 20.402c1.143-10.303 5.513-15.951 12.377-15.951 3.436 0 5.982.874 7.783 2.675 2.474 2.473 3.52 6.94 3.109 13.276h-23.269zm13.167-18.688c-13.64 0-24.737 11.363-24.737 25.33 0 14.14 10.403 24.402 24.737 24.402 12.045 0 17.906-6.621 21.265-11.6.331-.49.186-1.14-.33-1.48l-.158-.103c-.519-.34-1.243-.245-1.643.22-4.429 5.108-8.305 8.065-14.999 8.065-8.467 0-17.513-5.367-17.513-20.43v-.111a50.63 50.63 0 01.03-2.429h34.64a.176.176 0 00.18-.154l.02-.256c.488-6.18-1.411-11.728-5.348-15.626-3.854-3.812-9.437-5.828-16.144-5.828zM383.81 79.604l-.011-.002c-9.158-2.445-12.727-4.92-12.727-8.826 0-4.451 3.712-7.681 8.828-7.681 6.018 0 8.595 2.736 14.946 12.842l.084.135c.031.05.089.083.15.083h.871c.642 0 1.164-.498 1.164-1.108V60.524a.17.17 0 00-.175-.167h-1.148c-.35 0-.679.148-.901.406l-2.026 2.347c-2.56-1.343-6.729-2.753-10.911-2.753-10.519 0-17.866 6.188-17.866 15.046 0 8.314 5.794 11.43 15.796 14.001 9.721 2.532 13.166 5.166 13.166 10.062 0 5.439-5.541 7.885-9.475 7.885-7.317 0-10.413-2.588-17.425-14.578l-.083-.142a.175.175 0 00-.152-.087h-.878c-.642 0-1.164.497-1.164 1.108v16.271a.17.17 0 00.175.166h1.19c.307 0 .606-.118.823-.324l3.207-3.052c3.753 2.217 9.363 3.376 13.01 3.376 5.471 0 9.97-1.649 13.01-4.77 2.71-2.781 4.203-6.722 4.203-11.098 0-7.578-4.251-11.54-15.681-14.617zm-52.973 24.588c0 2.555-.691 3.391-5.018 3.647-.627.038-1.12.531-1.12 1.124 0 .621.537 1.126 1.199 1.126h21.374c.65 0 1.178-.497 1.178-1.107 0-.602-.498-1.096-1.137-1.126-4.947-.224-6.227-.976-6.227-3.666V74.737c3.517-5.499 6.047-8.376 10.315-9.246-.207.695-.342 1.529-.342 2.204 0 3.577 2.661 6.076 6.467 6.076 3.74 0 6.354-2.499 6.354-6.076 0-3.385-2.249-7.338-8.588-7.338-5.197 0-10.164 2.8-14.429 9.5V62.28c0-.773-.677-1.393-1.498-1.373l-13.467.338c-.654.017-1.164.51-1.164 1.122v.164c0 .556.43 1.031.999 1.107 4.489.6 5.108 2.606 5.104 4.684v35.869zM471.058 60.69c.302 0 .586.113.804.318.226.214.355.501.355.809l.049 8.442s4.248-9.902 18.045-9.902h.12c8.598 0 13.531 5.344 13.531 14.658v29.148c0 2.569.67 3.41 4.861 3.667.608.036 1.088.532 1.088 1.128 0 .624-.52 1.131-1.159 1.131h-18.61c-.64 0-1.164-.509-1.164-1.134 0-.605.467-1.099 1.062-1.149 3.382-.281 3.919-1.113 3.919-3.643V77.857c0-8.685-2.533-12.068-9.038-12.068-4.394 0-7.994 3.74-10.238 6.875 0 0-1.146 1.402-2.39 4.039l.138 27.459c0 2.525.524 3.357 3.808 3.641a1.147 1.147 0 011.057 1.126c0 .651-.52 1.16-1.16 1.16h-18.493c-.64 0-1.16-.507-1.16-1.132 0-.595.475-1.091 1.084-1.129 4.195-.257 4.861-1.098 4.861-3.665V68.182c0-2.1-.6-4.127-4.972-4.732a1.131 1.131 0 01-.973-1.118v-.165c0-.619.498-1.116 1.133-1.134l13.442-.343zM112.476 9.722c32.056 18.178 39.517 58.941 17.214 100.182-19.602 36.254-62.403 51.737-94.295 33.28-31.899-18.46-38.123-69.957-24.416-99.59C30.883.562 77.06-10.369 112.476 9.721zM72.558 115.769c-1.001-.762-2.124-1.285-3.255-1.506a6.253 6.253 0 00-1.171-.114c-2.137 0-4.23 1.148-5.599 3.079-1.145 1.602-1.613 3.517-1.309 5.377.193 1.183.647 2.211 1.317 2.977.752.867 1.904 1.528 3.33 1.926a9.668 9.668 0 002.518.342c1.842 0 3.502-.539 4.79-1.562 1.497-1.192 2.313-2.893 2.295-4.786-.016-2.21-1.108-4.356-2.916-5.733zm41.499-76.583c6.427 6.708 8.429 16.886 7.311 25.233-1.278 9.519-7.179 18.327-16.997 24.167-7.785 4.631-18.013 6.48-28.078 6.567-.08 1.56-.399 6.932-.56 7.783-.236 1.254-.684 1.93-1.234 2.631-1.081 1.377-2.956 2.266-4.819 2.785-1.48.411-2.944.588-3.982.588-.175 0-.347-.009-.515-.03-1.095-.122-2.31-.623-3.06-1.444-.75-.819-1.176-1.855-1.276-3.03l-.083-1.06c-.214-.914-1.38-47.167-1.153-46.344.168-5.541 9.322-6.509 14.289-5.53 4.977.981 3.716 6.892 3.582 14.158 0 0-.237 9.556-.696 19.651 6.337-.242 11.371-2.007 16.082-4.295 9.515-4.61 14.552-11.682 14.552-22.098 0-10.417-10.375-22.081-29.512-22.081S50.557 41.555 41.29 49.048c-2.089 1.69-3.698 3.392-5.22 4.512-1.521 1.121-5.562 1.293-6.646-1.33-1.305-3.162 1.135-6.686 2.568-8.392 2.25-2.677 7.801-8.07 13.954-11.203 7.046-3.596 15.667-7.468 27.669-7.764 10.857-.267 28.001.592 40.35 14.226" fill="#4B626D"/></svg>