<svg width="725" height="215" fill="none" xmlns="http://www.w3.org/2000/svg"><g clip-path="url(#clip0_152_1316)" fill="#4B626D"><path d="M13.931 30.523c-.568-2.843-3.696-5.117-6.255-5.117H0V4.371h65.677v21.32H51.745l17.059 75.044h.284l23.598-96.08h27.863l23.314 96.08h.284l15.069-60.831c2.559-9.665 1.137-14.213-7.392-14.213h-5.687V4.37h58.285v21.32h-5.971c-3.127 0-6.539 2.558-7.676 5.97L161.49 145.646h-39.519l-19.902-80.729h-.285l-19.902 80.729h-39.52L13.933 30.523zM197.882 75.72c0-47.187 26.726-73.338 70.226-73.338 10.235 0 18.48 1.137 23.029 1.705h27.01v46.334h-25.02l-3.98-20.466c-3.696-1.422-9.951-2.559-17.059-2.559-19.617 0-33.549 13.076-33.549 46.618 0 33.543 9.383 49.177 29.853 49.177 7.108 0 10.804-.568 15.069-1.706v-24.73h-12.226V76.29h58.853v20.75h-3.98c-2.843 0-5.686 3.696-5.686 5.97v42.638h-19.618s-1.706-4.263-5.686-4.263c-7.393 3.695-17.059 5.969-29.285 5.969-44.068.284-67.951-25.015-67.951-71.633zm145 17.055v-61.4c0-2.558-2.843-5.969-5.686-5.969h-6.539V4.371h65.961v21.32h-15.069V95.05c0 21.319 8.814 28.141 24.735 28.141 15.922 0 24.736-6.538 24.736-28.142V25.406h-15.069V4.371h55.725v21.32h-6.539c-2.559 0-5.686 3.41-5.686 5.97V93.06c0 35.816-18.48 54.577-57.716 54.577-38.666-.284-58.853-19.045-58.853-54.862zm218.353 4.265c-10.235 0-18.764-8.528-18.764-18.762 0-10.233 8.529-18.76 18.764-18.76 2.843 0 5.402.568 7.961 1.705-1.137-.284-2.559-.569-3.98-.569a13.346 13.346 0 00-13.363 13.36c0 7.391 5.971 13.36 13.363 13.36a13.345 13.345 0 0013.362-13.36c0-1.705-.284-3.41-1.137-5.116 1.706 2.842 2.559 5.97 2.559 9.38 0 10.234-8.529 18.761-18.765 18.761zm109.177-23.31c0-.853 0-1.99-.285-2.842.853 2.274 1.422 4.548 1.422 7.106 0 10.233-8.529 18.761-18.765 18.761-10.235 0-18.764-8.528-18.764-18.76 0-10.234 8.529-18.762 18.764-18.762 2.559 0 4.834.569 7.108 1.421-.853-.284-1.706-.284-2.559-.284a13.345 13.345 0 00-13.362 13.36c0 7.39 5.97 13.36 13.362 13.36 7.108 0 13.079-5.97 13.079-13.36zm27.578-31.837l-11.657 9.665c6.255 7.39 9.667 17.056 9.667 26.72 0 23.309-18.765 42.07-42.078 42.07-10.804 0-21.04-4.263-29-11.654v-17.34c5.117 10.518 15.637 17.624 27.862 17.624 17.059 0 30.991-13.928 30.991-30.984 0-12.507-7.677-23.31-18.481-28.141 0 0 .284 0 .284-.285 6.255-3.127 10.236-5.685 10.236-5.685L725 3.803C713.343.392 697.706-.745 683.775 1.244c-18.481 2.559-34.402 9.381-34.402 9.381-15.069-6.254-24.167-8.243-42.648-8.528-18.48.285-27.578 1.99-42.647 8.528 0 0-15.921-6.822-34.402-9.38-14.215-1.99-29.852-.853-41.225 2.558l48.902 40.364s3.98 2.843 10.235 5.686c.285 0 .569.284.569.284a30.753 30.753 0 00-18.196 28.141c0 17.056 13.931 30.984 30.99 30.984 11.657 0 21.892-6.538 27.01-16.202V62.928c0-5.116 4.264-9.096 9.098-9.096 5.117 0 9.098 4.264 9.098 9.096v71.633l-17.912-17.624-3.412-3.695c-5.686 5.685-12.794 6.822-23.313 6.822-23.314 0-42.079-18.761-42.079-42.07 0-11.37 2.275-18.76 8.245-25.583l-11.657-9.665c-8.245 9.38-11.941 20.467-11.941 35.248 0 31.553 25.588 57.136 57.147 57.136 4.834 0 9.951-.284 15.069-1.137 7.676 6.822 30.421 27.289 30.421 27.289L638 133.14c4.833 1.421 9.667 1.99 14.784 1.99 31.559 0 57.147-25.583 57.147-57.136 1.138-13.076-3.411-25.867-11.941-36.1zM23.314 182.885c-.285-.853-1.137-1.705-1.99-1.705h-.853v-3.412h13.078l.284 3.412h-4.549l5.97 25.014h.285l7.677-28.426h4.833l7.676 28.426 5.402-21.603c.853-2.274.285-3.411-1.99-3.411h-1.99v-3.412h12.226v3.412h-.853c-.853 0-1.99.852-2.275 1.989L58 214.153h-6.54l-6.823-25.867-7.108 25.867h-6.255l-7.96-31.268zm44.921 28.142h1.422c.569 0 1.137-.569 1.137-1.137v-17.056c0-.568-.569-1.137-1.137-1.137h-1.422v-3.127h20.187v7.391H85.01l-.569-3.98h-8.245v7.675h3.696l.285-2.842h3.411v9.096h-3.411l-.285-2.843h-3.696v7.96h8.53l.568-4.264h3.696v7.675H68.235v-3.411zm29.285 2.842h-4.265v-7.675h3.98l.569 3.98c.853.284 1.99.568 3.696.568 3.127 0 4.549-1.421 4.549-3.695 0-2.843-3.127-3.411-6.54-4.264-3.41-.853-5.401-2.842-5.401-7.106 0-4.833 3.412-7.391 8.814-7.391 1.705 0 3.127.284 3.98.284h3.98v6.822h-3.696l-.568-3.411c-.853-.284-1.706-.568-3.412-.568-2.559 0-4.265 1.137-4.265 3.411 0 2.558 2.559 3.127 5.686 3.98 4.549 1.137 6.824 2.842 6.824 7.39 0 5.117-3.412 7.959-9.382 7.959-2.275 0-3.696 0-4.55-.284zm21.607-2.842h1.706c.569 0 1.138-.569 1.138-1.137v-17.909h-3.981l-.284 5.401h-3.98v-8.527h21.892v8.527h-3.412l-.569-5.401h-3.98v17.909c0 .568.569 1.137 1.137 1.137h1.706v3.126h-11.088v-3.126h-.285zm20.187 0h1.421c.569 0 1.138-.569 1.138-1.137v-17.056c0-.568-.569-1.137-1.138-1.137h-1.421v-3.127H159.5v7.391h-3.127l-.569-3.98h-8.245v7.675h3.696l.284-2.842h3.412v9.096h-3.412l-.284-2.843h-3.696v7.96h8.529l.569-4.264h3.696v7.675h-21.039v-3.411zm32.696-7.96v7.96h3.127v3.127h-11.372v-3.127h1.421c.569 0 1.138-.569 1.138-1.137v-17.056c0-.568-.569-1.137-1.138-1.137h-1.421v-3.127h11.088c6.255 0 10.235 2.274 10.235 7.107 0 3.411-1.99 5.116-5.686 5.685v.284c2.843.569 3.98 1.706 5.118 5.97l.568 2.558c.285.568.569.853.853.853h1.137v3.127h-7.107l-1.138-6.823c-.284-3.127-1.421-3.979-4.264-3.979h-2.559v-.285zm0-2.842h2.843c3.696 0 4.549-1.706 4.549-4.264 0-2.558-.853-4.264-4.549-4.264h-2.843v8.528zm18.48 10.802h1.422c.568 0 1.137-.569 1.137-1.137v-17.056c0-.568-.569-1.137-1.137-1.137h-1.422v-3.127h8.245l10.236 16.203v-13.076h-2.844v-3.127h9.383v3.127h-1.422c-.568 0-1.137.569-1.137 1.137v21.32h-4.833l-11.089-17.909v14.782h2.844v3.127h-9.383v-3.127zm38.383-15.066c0-11.939 7.392-18.477 17.627-18.477 3.98 0 5.971.853 7.108 1.422.284 0 .853-.285.853-.853h3.696v10.802h-3.981l-.568-4.549c-1.706-1.421-3.981-2.558-6.824-2.558-6.539 0-11.372 4.264-11.372 14.213 0 9.949 3.696 14.781 10.804 14.781 3.127 0 5.117-.852 6.823-1.705v-8.244h-4.264v-3.411h13.362v3.411h-1.421c-.853 0-1.706.853-1.706 1.706v11.654h-3.412c0-.568-.284-1.421-1.422-1.421-1.705.569-3.98 1.99-8.245 1.99-10.519-.284-17.058-6.822-17.058-18.761zm34.402 5.117c0-8.528 5.686-13.076 12.509-13.076 6.824 0 12.51 4.548 12.51 13.076 0 8.527-5.686 13.075-12.51 13.075-6.823 0-12.509-4.548-12.509-13.075zm19.049.284c0-6.254-2.844-9.381-6.54-9.381-3.98 0-6.539 3.127-6.539 9.381 0 6.254 2.843 9.38 6.539 9.38 3.696-.284 6.54-3.126 6.54-9.38zm8.245-8.812c-.285-.569-.569-.853-1.138-.853h-.853v-3.127h10.52v3.127h-3.127l5.686 17.056 4.833-14.498c.569-1.705.285-2.558-1.137-2.558h-1.137v-3.127h9.666v3.127h-.853c-.568 0-1.137.569-1.421 1.137l-7.677 21.32h-5.686l-7.676-21.604zm24.735 18.477h1.422c.568 0 1.137-.569 1.137-1.137v-17.056c0-.568-.569-1.137-1.137-1.137h-1.422v-3.127h20.186v7.391h-3.412l-.568-3.98h-8.245v7.675h3.696l.284-2.842h3.412v9.096h-3.412l-.284-2.843h-3.696v7.96h8.529l.569-4.264h3.696v7.675h-20.755v-3.411zm32.696-7.96v7.96h3.127v3.127h-11.372v-3.127h1.421c.569 0 1.138-.569 1.138-1.137v-17.056c0-.568-.569-1.137-1.138-1.137h-1.421v-3.127h11.088c6.255 0 10.235 2.274 10.235 7.107 0 3.411-1.99 5.116-5.686 5.685v.284c2.843.569 3.981 1.706 5.118 5.97l.568 2.558c.285.568.569.853.853.853h1.138v3.127h-7.108l-1.137-6.823c-.285-3.127-1.422-3.979-4.265-3.979H348v-.285zm0-2.842h2.843c3.696 0 4.549-1.706 4.549-4.264 0-2.558-.853-4.264-4.549-4.264H348v8.528zm18.196 10.802h1.422c.568 0 1.137-.569 1.137-1.137v-17.056c0-.568-.569-1.137-1.137-1.137h-1.422v-3.127h8.245l10.235 16.203v-13.076h-2.843v-3.127h9.383v3.127h-1.422c-.568 0-1.137.569-1.137 1.137v21.32h-4.833l-11.089-17.624v14.781h2.843v3.127h-9.382v-3.411zm27.01-9.949c0-8.528 5.686-13.076 12.51-13.076 6.823 0 12.51 4.548 12.51 13.076 0 8.527-5.687 13.075-12.51 13.075-6.824 0-12.51-4.548-12.51-13.075zm19.049.284c0-6.254-2.843-9.381-6.539-9.381-3.981 0-6.54 3.127-6.54 9.381 0 6.254 2.844 9.38 6.54 9.38 3.696-.284 6.539-3.126 6.539-9.38zm15.922 1.705v7.96h3.127v3.127h-11.373v-3.127h1.422c.569 0 1.137-.569 1.137-1.137v-17.056c0-.568-.568-1.137-1.137-1.137h-1.422v-3.127h11.089c6.255 0 10.235 2.274 10.235 7.107 0 3.411-1.99 5.116-5.686 5.685v.284c2.843.569 3.98 1.706 5.117 5.97l.569 2.558c.284.568.569.853.853.853h1.137v3.127h-7.108L435 207.331c-.284-3.127-1.422-3.979-4.265-3.979h-2.558v-.285zm0-2.842h2.843c3.696 0 4.549-1.706 4.549-4.264 0-2.558-.853-4.264-4.549-4.264h-2.843v8.528zm22.176 13.644h-4.265v-7.675h3.981l.568 3.98c.853.284 1.99.568 3.696.568 3.128 0 4.549-1.421 4.549-3.695 0-2.843-3.127-3.411-6.539-4.264-3.412-.853-5.402-2.842-5.402-7.106 0-4.833 3.412-7.391 8.814-7.391 1.706 0 3.127.284 3.98.284h3.981v6.822h-3.696l-.569-3.411c-.853-.284-1.706-.568-3.412-.568-2.559 0-4.264 1.137-4.264 3.411 0 2.558 2.558 3.127 5.686 3.98 4.549 1.137 6.823 2.842 6.823 7.39 0 5.117-3.411 7.959-9.382 7.959-2.275 0-3.412 0-4.549-.284zm30.706-13.076v-17.908c0-.853-.853-1.705-1.706-1.705h-1.99v-3.412h14.215v3.412h-4.549v19.898c0 7.39 3.696 9.096 8.814 9.096s8.814-1.706 8.814-9.096V181.18h-4.549v-3.412h12.794v3.412h-1.99c-.853 0-1.706.852-1.706 1.705v17.908c0 9.097-4.833 13.645-13.931 13.645-9.099 0-14.216-4.264-14.216-13.645zm32.412 10.234h1.421c.569 0 1.137-.569 1.137-1.137v-17.056c0-.568-.568-1.137-1.137-1.137h-1.421v-3.127h8.245l9.951 16.203v-13.076h-2.843v-3.127h9.382v3.127h-1.422c-.568 0-1.137.569-1.137 1.137v21.32h-4.833l-10.52-17.909v14.782h2.843v3.127h-9.382v-3.127h-.284zm28.715 0h1.706c.569 0 1.137-.569 1.137-1.137v-17.056c0-.568-.568-1.137-1.137-1.137h-1.706v-3.127h11.089v3.127h-1.706c-.569 0-1.138.569-1.138 1.137v17.056c0 .568.569 1.137 1.138 1.137h1.706v3.127h-11.089v-3.127zm14.785-18.477c-.285-.569-.569-.853-1.138-.853h-.853v-3.127h10.52v3.127h-3.127l5.686 17.056 4.833-14.498c.569-1.705.285-2.558-1.137-2.558h-1.422v-3.127H580v3.127h-.853c-.569 0-1.137.569-1.421 1.137l-7.677 21.32h-5.686l-7.392-21.604zm24.451 18.477h1.421c.569 0 1.137-.569 1.137-1.137v-17.056c0-.568-.568-1.137-1.137-1.137h-1.421v-3.127h20.186v7.391h-3.412l-.569-3.98h-8.245v7.675h3.696l.285-2.842h3.411v9.096h-3.411l-.285-2.843h-3.696v7.96h8.53l.568-4.264h3.696v7.675h-20.754v-3.411zm32.98-7.96v7.96h3.127v3.127h-11.372v-3.127h1.421c.569 0 1.138-.569 1.138-1.137v-17.056c0-.568-.569-1.137-1.138-1.137h-1.421v-3.127h11.088c6.255 0 10.235 2.274 10.235 7.107 0 3.411-1.99 5.116-5.686 5.685v.284c2.843.569 3.98 1.706 5.118 5.97l.568 2.558c.285.568.569.853.853.853h1.138v3.127h-7.108l-1.138-6.823c-.284-3.127-1.421-3.979-4.264-3.979h-2.559v-.285zm0-2.842h2.843c3.696 0 4.549-1.706 4.549-4.264 0-2.558-.853-4.264-4.549-4.264h-2.843v8.528zm22.176 13.644h-4.264v-7.675h3.98l.569 3.98c.853.284 1.99.568 3.696.568 3.127 0 4.549-1.421 4.549-3.695 0-2.843-3.128-3.411-6.539-4.264-3.412-.853-5.402-2.842-5.402-7.106 0-4.833 3.411-7.391 8.813-7.391 1.706 0 3.128.284 3.981.284h3.98v6.822h-4.549l-.568-3.411c-.853-.284-1.706-.568-3.412-.568-2.559 0-4.265 1.137-4.265 3.411 0 2.558 2.559 3.127 5.686 3.98 4.549 1.137 6.824 2.842 6.824 7.39 0 5.117-3.412 7.959-9.382 7.959-1.422 0-2.844 0-3.697-.284zm16.491-2.842h1.706c.568 0 1.137-.569 1.137-1.137v-17.056c0-.568-.569-1.137-1.137-1.137h-1.706v-3.127h11.088v3.127h-1.706c-.569 0-1.137.569-1.137 1.137v17.056c0 .568.568 1.137 1.137 1.137h1.706v3.127h-11.088v-3.127zm20.186 0h1.706c.568 0 1.137-.569 1.137-1.137v-17.909h-3.98l-.285 5.401h-3.696v-8.527h21.892v8.527h-3.411l-.569-5.401h-3.98v17.909c0 .568.568 1.137 1.137 1.137h1.706v3.126h-11.089v-3.126h-.568zm25.872 0h1.706c.569 0 1.138-.569 1.138-1.137v-6.254l-7.108-11.086c-.285-.569-.853-.853-1.137-.853h-.853v-3.127h10.519v3.127h-2.843l5.118 8.528 3.696-5.97c.853-1.705.284-2.558-1.137-2.558h-1.138v-3.127h9.383v3.127h-.569c-.569 0-1.137.284-1.422.853l-6.539 10.802v6.538c0 .568.569 1.137 1.137 1.137h1.706v3.127h-11.088v-3.127h-.569z"/></g><defs><clipPath id="clip0_152_1316"><path fill="#fff" d="M0 0h725v215H0z"/></clipPath></defs></svg>