<svg width="763" height="236" fill="none" xmlns="http://www.w3.org/2000/svg"><path d="M460.16 0s-6.686 23.207-37.757 36.58c-6.686 2.753-13.372 6.687-19.272 11.407-7.866 6.686-14.158 14.946-18.091 24.78-1.967 4.326-3.54 8.653-4.327 12.98-.786 4.72-.393 13.766 1.967 19.666 5.113-4.326 11.012-7.866 16.518-11.013 28.711-16.127 52.702-33.04 55.456-60.573 0 30.68-25.172 46.02-55.456 64.506-5.112 3.147-10.619 6.687-14.945 10.62l-4.326 4.327c.393 4.327 1.18 8.653 2.753 12.587 4.326-12.587 19.665-22.027 47.982-37.76C478.645 60.573 460.16 0 460.16 0zm-98.325 165.987c-3.54-4.327-1.18-20.06 1.573-24.78-2.753 13.766-1.966 20.453-1.573 24.78zm14.945-50.74c-12.979 12.98-22.024 31.466-21.238 49.166.394 10.62 9.439 18.88 20.058 18.094 10.62-.394 18.879-9.44 18.092-20.06-.786-16.52-15.732-28.32-16.912-47.2zM47.59 166.773c0 12.194 1.572 14.16 11.798 14.16v2.754H26.351v-2.754c10.226 0 11.799-1.966 11.799-14.16v-11.8l-20.451-31.466c-5.113-7.867-9.046-10.62-17.699-10.62v-2.754h35.004v2.754c-10.226 0-10.226 3.54-6.686 9.44l17.698 26.746 17.698-26.746c4.327-6.687 3.54-9.44-6.686-9.44v-2.754H85.74v2.754c-10.226 0-12.979 3.54-17.698 10.62l-20.058 30.68-.394 12.586zm55.848-33.433c-14.552 0-19.665 13.373-19.665 23.993s5.506 23.994 19.665 23.994c14.158 0 19.665-13.374 19.665-23.994 0-11.013-5.113-23.993-19.665-23.993zm0 52.313c-16.519 0-29.891-12.98-29.891-28.713 0-15.34 13.372-28.32 29.891-28.32 16.518 0 29.89 12.98 29.89 28.32-.393 15.733-13.765 28.713-29.89 28.713zm68.434-5.506c8.652 0 14.945-4.72 14.945-15.34V147.5c0-12.193-1.573-14.16-9.832-14.16v-2.36h24.777v2.36c-7.866 0-9.832 1.967-9.832 14.16v16.52c0 14.16-9.833 21.633-22.025 21.633-11.799 0-21.631-7.473-21.631-21.633V147.5c0-12.193-1.573-14.16-9.833-14.16v-2.36h27.925v2.36c-7.866 0-9.833 1.967-9.833 14.16v17.307c.787 10.226 6.686 15.34 15.339 15.34zm38.15-47.2v-2.36h14.945l32.644 38.546v-22.026c0-12.194-1.573-14.16-9.833-14.16v-2.36h23.992v2.36c-8.26 0-9.833 1.966-9.833 14.16v38.153h-2.36l-35.397-42.48v23.993c0 12.194 1.574 14.16 9.833 14.16v2.36h-23.991v-2.36c8.259 0 9.832-1.966 9.832-14.16v-19.666c0-12.194-1.573-14.16-9.832-14.16zm93.605 52.706c-15.339 0-27.531-12.98-27.531-28.713 0-15.34 12.192-28.32 27.531-28.32 5.899 0 12.585 3.54 16.125 8.26.787-.787 1.573-3.933 2.36-5.9h2.36v21.24h-2.36c-2.36-11.407-8.653-18.487-18.092-18.487-13.765 0-18.092 13.374-18.092 23.994 0 10.226 4.327 23.993 18.092 23.993 6.293 0 15.339-3.933 15.339-10.227 0-4.72-4.327-7.473-10.619-7.473v-2.36h27.137v2.36c-8.259 0-9.832 1.967-9.832 14.16v3.54c-7.473-.787-14.946 3.933-22.418 3.933zm116.416-4.72c10.226 0 11.799-1.966 11.799-14.16v-39.726c0-12.194-1.573-14.16-11.799-14.16v-2.754h33.037v2.754c-10.225 0-11.799 1.966-11.799 14.16v37.76c0 12.193 1.574 14.16 11.799 14.16h5.113c11.013 0 12.586-2.754 14.159-9.44l.787-2.36h2.753l-.787 16.126h-55.062v-2.36zm62.928 2.754v-2.36c8.259 0 9.833-1.967 9.833-14.16V147.5c0-12.193-1.574-14.16-9.833-14.16v-2.36h27.924v2.36c-8.259 0-9.832 1.967-9.832 14.16v19.667c0 12.193 1.573 14.16 9.832 14.16v2.36h-27.924zm84.559-39.727l-18.091 41.693h-1.574l-18.091-41.693c-3.933-9.44-5.506-10.62-11.799-10.62v-2.36h27.531v2.36c-8.653 0-9.833 2.36-6.686 9.44l12.585 28.713 12.192-28.713c3.147-7.08 3.147-9.44-6.292-9.44v-2.36h22.811v2.36c-7.473-.393-8.653 1.18-12.586 10.62zm19.665 39.727v-2.36c8.26 0 9.833-1.967 9.833-14.16V147.5c0-12.193-1.573-14.16-9.833-14.16v-2.36h27.925v2.36c-8.26 0-9.833 1.967-9.833 14.16v19.667c0 12.193 1.573 14.16 9.833 14.16v2.36h-27.925zm38.15-50.74v-2.36h14.946l32.644 38.546v-22.026c0-12.194-1.574-14.16-9.833-14.16v-2.36h23.991v2.36c-8.259 0-9.832 1.966-9.832 14.16v38.153h-2.36l-35.397-42.48v23.993c0 12.194 1.573 14.16 9.833 14.16v2.36h-23.992v-2.36c8.26 0 9.833-1.966 9.833-14.16v-19.666c-.393-12.194-1.967-14.16-9.833-14.16zm93.606 52.706c-15.339 0-27.531-12.98-27.531-28.713 0-15.34 12.192-28.32 27.531-28.32 5.899 0 12.585 3.54 16.125 8.26.786-.787 1.573-3.933 2.36-5.9h2.359v21.24h-2.359c-2.36-11.407-8.653-18.487-18.092-18.487-13.766 0-18.092 13.374-18.092 23.994 0 10.226 4.326 23.993 18.092 23.993 6.293 0 15.339-3.933 15.339-10.227 0-4.72-4.327-7.473-10.619-7.473v-2.36h27.137v2.36c-8.259 0-9.832 1.967-9.832 14.16v3.54c-7.866-.787-15.339 3.933-22.418 3.933zm-534.887 28.32h13.372v2.36h-10.619v6.687h9.439v2.36h-9.832v7.473h11.405v2.36h-13.765v-21.24zm40.903 3.934c-.787-1.18-2.36-1.967-3.933-1.967-2.36 0-4.326 1.18-4.326 3.54 0 1.967 1.18 2.753 4.326 3.933 3.146 1.18 6.293 1.967 6.293 6.294 0 4.326-3.54 6.293-7.473 6.293-2.36 0-5.113-.787-6.293-2.753l1.967-1.574c.786 1.574 2.753 2.36 4.326 2.36 1.967 0 4.72-1.18 4.72-3.54 0-2.753-1.574-3.146-5.507-4.326-3.146-.787-5.112-2.36-5.112-5.9 0-3.934 3.539-5.9 7.079-5.9 2.36 0 4.326.786 5.899 2.36l-1.966 1.18zm29.891 0c-.787-1.18-2.36-1.967-3.933-1.967-2.36 0-4.327 1.18-4.327 3.54 0 1.967 1.18 2.753 4.327 3.933 3.146 1.18 6.292 1.967 6.292 6.294 0 4.326-3.539 6.293-7.472 6.293-2.36 0-5.113-.787-6.293-2.753l1.967-1.574c.786 1.574 2.753 2.36 4.326 2.36 1.966 0 4.719-1.18 4.719-3.54 0-2.753-1.573-3.146-5.506-4.326-3.146-.787-5.113-2.36-5.113-5.9 0-3.934 3.54-5.9 7.08-5.9 2.359 0 4.326.786 5.899 2.36l-1.966 1.18zm19.665-3.934h13.372v2.36h-10.619v6.687h9.832v2.36h-9.832v7.473h11.405v2.36h-13.765v-21.24h-.393zm31.07 0h3.147l12.192 17.307v-17.307h2.36v20.847h-3.147l-12.192-17.307v17.307h-2.36v-20.847zm50.343 2.36h-6.687v18.88h-2.359v-18.88h-7.08v-2.36h16.126v2.36zm18.485-2.36h-2.36v20.847h2.36v-20.847zm26.744 3.147l-4.326 10.227h8.652l-4.326-10.227zm-1.18-3.147h2.36l9.046 20.847h-2.753l-1.967-5.113h-10.619l-2.36 5.113h-2.753l9.046-20.847zm27.531 0h2.36v18.88h9.439v2.36h-12.192v-21.24h.393zm68.041 10.62c0-4.72-3.54-8.653-8.26-8.653-5.112 0-8.259 3.933-8.259 8.653 0 4.72 3.54 8.654 8.259 8.654 4.72 0 8.26-3.934 8.26-8.654zm-19.272 0c0-6.293 4.72-11.013 11.012-11.013 6.293 0 11.013 4.72 11.013 11.013 0 6.294-4.72 11.014-11.013 11.014-6.292 0-11.012-4.72-11.012-11.014zm41.69-10.62h-2.36v20.847h2.36v-20.847zm18.878 0h2.36v18.88h9.439v2.36H536.46v-21.24h.393zm38.15 3.934c-.787-1.18-2.36-1.967-3.933-1.967-2.36 0-4.326 1.18-4.326 3.54 0 1.967 1.18 2.753 4.326 3.933 3.146 1.18 6.293 1.967 6.293 6.294 0 4.326-3.54 6.293-7.473 6.293-2.36 0-5.113-.787-6.293-2.753l1.967-1.574c.787 1.574 2.753 2.36 4.326 2.36 1.967 0 4.72-1.18 4.72-3.54 0-2.753-1.573-3.146-5.506-4.326-3.147-.787-5.113-2.36-5.113-5.9 0-3.934 3.539-5.9 7.079-5.9 2.36 0 4.326.786 5.9 2.36l-1.967 1.18zM754.348 135.7h2.753l.393-.393v-1.18l-.393-.394h-2.36l-.393 1.967zm0 3.933h-.787v-7.08h2.753c.787 0 1.18 0 1.573.394.393.393.394.786.394 1.573v.787c0 .393-.394.393-.394.393l-.393.393c-.393 0-.393 0-.787.394l1.967 3.146h-1.18l-1.967-3.146h-1.179v3.146zm-3.933-3.54c0 .787-.001 1.574.393 1.967.393.787.786 1.18 1.18 1.573.393.394 1.18.787 1.573 1.18.787.394 1.18.394 1.966.394.787 0 1.574 0 1.967-.394.787-.393 1.18-.786 1.573-1.18.393-.393.787-1.18 1.18-1.573.393-.787.393-1.18.393-1.967 0-.786 0-1.573-.393-1.966-.393-.787-.787-1.18-1.18-1.574-.393-.393-1.18-.786-1.573-1.18-.787-.393-1.18-.393-1.967-.393-.786 0-1.573 0-1.966.393-.787.394-1.18.787-1.573 1.18-.394.394-.787 1.18-1.18 1.574-.394.786-.393 1.573-.393 1.966zm-1.18 0c0-.786 0-1.573.393-2.36.393-.786.786-1.573 1.18-1.966.393-.394 1.18-1.18 1.966-1.18.787-.394 1.574-.394 2.36-.394.787 0 1.573 0 2.36.394.787.393 1.573.786 1.966 1.18.394.393 1.18 1.18 1.18 1.966.394.787.394 1.574.394 2.36 0 .787 0 1.574-.394 2.36-.393.787-.786 1.574-1.18 1.967-.393.393-1.179 1.18-1.966 1.18-.787.393-1.573.393-2.36.393-.786 0-1.573 0-2.36-.393-.786-.393-1.573-.787-1.966-1.18-.394-.393-1.18-1.18-1.18-1.967 0-.393-.393-1.18-.393-2.36z" fill="#4B626D"/></svg>