<svg xmlns="http://www.w3.org/2000/svg" viewBox="-432 269.6 763 255.4"><path d="M-396.2 321c-.6-2.8-3.7-5.1-6.2-5.1h-7.6V295h65.1v21.1h-13.8l16.9 74.4h.3l23.4-95.3h27.6l23.1 95.3h.3l14.9-60.3c2.5-9.6 1.1-14.1-7.3-14.1h-5.6V295h57.8v21.1h-5.9c-3.1 0-6.5 2.5-7.6 5.9l-29 113.1H-289l-19.7-80.1h-.3l-19.7 80.1H-368L-396.2 321zm182.4 44.9c0-46.8 26.5-72.7 69.6-72.7 10.2 0 18.3 1.1 22.8 1.7h26.8v46h-24.8l-3.9-20.3c-3.7-1.4-9.9-2.5-16.9-2.5-19.5 0-33.3 13-33.3 46.2 0 31.9 9.3 48.8 29.6 48.8 7 0 10.7-.6 14.9-1.7v-24.5h-12v-20.3h58.4V387h-3.9c-2.8 0-5.6 3.7-5.6 5.9v42.3h-19.5s-1.7-4.2-5.6-4.2c-7.3 3.7-16.9 5.9-29 5.9-43.9.3-67.6-24.8-67.6-71M-70 382.8v-60.9c0-2.5-2.8-5.9-5.6-5.9h-6.5v-20.9h65.4v21.1h-14.9V385c0 21.1 8.7 27.9 24.5 27.9 16.1 0 24.5-6.5 24.5-27.9v-69H2.5v-20.9h55.3v21.1h-6.5c-2.5 0-5.6 3.4-5.6 5.9V383c0 35.5-18.3 54.1-57.2 54.1-38.4-.2-58.5-18.8-58.5-54.3m216.6 4.2c-10.2 0-18.6-8.5-18.6-18.6 0-10.2 8.5-18.6 18.6-18.6 2.8 0 5.4.6 7.9 1.7-1.1-.3-2.5-.6-3.9-.6-7.3 0-13.3 5.9-13.3 13.3 0 7.3 5.9 13.3 13.3 13.3 7.3 0 13.3-5.9 13.3-13.3 0-1.7-.3-3.4-1.1-5.1 1.7 2.8 2.5 5.9 2.5 9.3-.1 10.1-8.6 18.6-18.7 18.6m108.3-23.1c0-.8 0-2-.3-2.8.8 2.3 1.4 4.5 1.4 7 0 10.2-8.5 18.6-18.6 18.6-10.2 0-18.6-8.5-18.6-18.6 0-10.2 8.5-18.6 18.6-18.6 2.5 0 4.8.6 7 1.4-.8-.3-1.7-.3-2.5-.3-7.3 0-13.3 5.9-13.3 13.3 0 7.3 5.9 13.3 13.3 13.3 7-.1 13-6 13-13.3m27.3-31.6l-11.6 9.6c6.2 7.3 9.6 16.9 9.6 26.5 0 23.1-18.6 41.7-41.7 41.7-10.7 0-20.9-4.2-28.8-11.6v-17.2c5.1 10.4 15.5 17.5 27.6 17.5 16.9 0 30.7-13.8 30.7-30.7 0-12.4-7.6-23.1-18.3-27.9 0 0 .3 0 .3-.3 6.2-3.1 10.2-5.6 10.2-5.6l48.8-39.8c-11.6-3.4-27.1-4.5-40.9-2.5-18.3 2.5-34.1 9.3-34.1 9.3-14.9-6.2-24-8.2-42.3-8.5-18.3.3-27.4 2-42.3 8.5 0 0-15.8-6.8-34.1-9.3-14.1-2-29.6-.8-40.9 2.5l48.5 40s3.9 2.8 10.2 5.6c.3 0 .6.3.6.3-10.7 4.8-18 15.5-18 27.9 0 16.9 13.8 30.7 30.7 30.7 11.6 0 21.7-6.5 26.8-16.1v-29.7c0-5.1 4.2-9 9-9 5.1 0 9 4.2 9 9v71l-17.8-17.5-3.4-3.7c-5.6 5.6-12.7 6.8-23.1 6.8-23.1 0-41.7-18.6-41.7-41.7 0-11.3 2.3-18.6 8.2-25.4l-11.6-9.6c-8.2 9.3-11.8 20.3-11.8 35 0 31.3 25.4 56.7 56.7 56.7 4.8 0 9.9-.3 14.9-1.1 7.6 6.8 30.2 27.1 30.2 27.1l31-27.9c4.8 1.4 9.6 2 14.7 2 31.3 0 56.7-25.4 56.7-56.7 1-13.1-3.5-25.7-12-35.9m-669.1 139.9c-.3-.8-1.1-1.7-2-1.7h-.8v-3.4h13l.3 3.4h-4.5l5.9 24.8h.3l7.6-28.2h4.8l7.6 28.2 5.4-21.4c.8-2.3.3-3.4-2-3.4h-2v-3.4h12.1v3.4h-.8c-.8 0-2 .8-2.3 2l-8.2 30.7h-6.5l-6.8-25.7-7 25.7h-6.2l-7.9-31zm44.6 27.9h1.4c.6 0 1.1-.6 1.1-1.1v-17c0-.6-.6-1.1-1.1-1.1h-1.4v-3.1h20v7.3h-3.4l-.6-3.9h-8.2v7.6h3.7l.3-2.8h3.4v9h-3.4l-.3-2.8h-3.7v7.9h8.5l.6-4.2h3.7v7.6h-20.6v-3.4zm29 2.8h-4.2v-7.6h3.9l.6 3.9c.8.3 2 .6 3.7.6 3.1 0 4.5-1.4 4.5-3.7 0-2.8-3.1-3.4-6.5-4.2-3.4-.8-5.4-2.8-5.4-7 0-4.8 3.4-7.3 8.7-7.3 1.7 0 3.1.3 3.9.3h3.9v6.8h-3.7l-.6-3.4c-.8-.3-1.7-.6-3.4-.6-2.5 0-4.2 1.1-4.2 3.4 0 2.5 2.5 3.1 5.6 3.9 4.5 1.1 6.8 2.8 6.8 7.3 0 5.1-3.4 7.9-9.3 7.9-2 0-3.4 0-4.3-.3zm21.4-2.8h1.7c.6 0 1.1-.6 1.1-1.1v-17.8h-3.9l-.3 5.4h-3.9v-8.5h21.7v8.5h-3.4l-.6-5.4h-3.9V499c0 .6.6 1.1 1.1 1.1h1.7v3.1h-11v-3.1h-.3zm20.1 0h1.4c.6 0 1.1-.6 1.1-1.1v-17c0-.6-.6-1.1-1.1-1.1h-1.4v-3.1h20v7.3h-3.1l-.6-3.9h-8.2v7.6h3.7l.3-2.8h3.4v9h-3.4l-.3-2.8h-3.7v7.9h8.5l.6-4.2h3.7v7.6h-20.9v-3.4zm32.4-7.9v7.9h3.1v3.1h-11.3v-3.1h1.4c.6 0 1.1-.6 1.1-1.1v-17c0-.6-.6-1.1-1.1-1.1h-1.4v-3.1h11c6.2 0 10.2 2.3 10.2 7 0 3.4-2 5.1-5.6 5.6v.3c2.8.6 3.9 1.7 5.1 5.9l.6 2.5c.3.6.6.8.8.8h1.1v3.1h-7l-1.1-6.8c-.3-3.1-1.4-3.9-4.2-3.9h-2.5v-.1zm0-2.8h2.8c3.7 0 4.5-1.7 4.5-4.2s-.8-4.2-4.5-4.2h-2.8v8.4zm18.3 10.7h1.4c.6 0 1.1-.6 1.1-1.1v-17c0-.6-.6-1.1-1.1-1.1h-1.4v-3.1h8.2l10.2 16.1v-13h-2.8v-3.1h9.3v3.1h-1.4c-.6 0-1.1.6-1.1 1.1v21.1h-4.8l-11-17.8V500h2.8v3.1h-9.3v-3zm38.1-15c0-11.8 7.3-18.3 17.5-18.3 3.9 0 5.9.8 7 1.4.3 0 .8-.3.8-.8h3.7v10.7h-3.9l-.6-4.5c-1.7-1.4-3.9-2.5-6.8-2.5-6.5 0-11.3 4.2-11.3 14.1 0 9.6 3.7 14.7 10.7 14.7 3.1 0 5.1-.8 6.8-1.7V490h-4.2v-3.4h13.3v3.4h-1.4c-.8 0-1.7.8-1.7 1.7v11.6h-3.4c0-.6-.3-1.4-1.4-1.4-1.7.6-3.9 2-8.2 2-10.4-.4-16.9-6.9-16.9-18.8zm34.1 5.1c0-8.5 5.6-13 12.4-13 6.8 0 12.4 4.5 12.4 13s-5.6 13-12.4 13c-6.8 0-12.4-4.5-12.4-13zm18.9.3c0-6.2-2.8-9.3-6.5-9.3-3.9 0-6.5 3.1-6.5 9.3 0 6.2 2.8 9.3 6.5 9.3 3.7-.3 6.5-3.1 6.5-9.3zm8.2-8.8c-.3-.6-.6-.8-1.1-.8h-.8v-3.1h10.4v3.1h-3.1l5.6 16.9 4.8-14.4c.6-1.7.3-2.5-1.1-2.5h-1.1v-3.1h9.6v3.1h-.8c-.6 0-1.1.6-1.4 1.1l-7.6 21.1h-5.6l-7.8-21.4zm24.5 18.4h1.4c.6 0 1.1-.6 1.1-1.1v-17c0-.6-.6-1.1-1.1-1.1h-1.4v-3.1h20v7.3h-3.4l-.6-3.9h-8.2v7.6h3.7l.3-2.8h3.4v9h-3.4l-.3-2.8h-3.7v7.9h8.5l.6-4.2h3.7v7.6h-20.6v-3.4zm32.4-7.9v7.9h3.1v3.1h-11.3v-3.1h1.4c.6 0 1.1-.6 1.1-1.1v-17c0-.6-.6-1.1-1.1-1.1h-1.4v-3.1h11c6.2 0 10.2 2.3 10.2 7 0 3.4-2 5.1-5.6 5.6v.3c2.8.6 3.9 1.7 5.1 5.9l.6 2.5c.3.6.6.8.8.8h1.1v3.1h-7l-1.1-6.8c-.3-3.1-1.4-3.9-4.2-3.9h-2.5v-.1zm0-2.8h2.8c3.7 0 4.5-1.7 4.5-4.2s-.8-4.2-4.5-4.2h-2.8v8.4zm18.1 10.7h1.4c.6 0 1.1-.6 1.1-1.1v-17c0-.6-.6-1.1-1.1-1.1h-1.4v-3.1h8.2l10.2 16.1v-13h-2.8v-3.1h9.3v3.1h-1.4c-.6 0-1.1.6-1.1 1.1v21.1h-4.8l-11-17.5v14.7h2.8v3.1h-9.3l-.1-3.3zm26.8-9.9c0-8.5 5.6-13 12.4-13s12.4 4.5 12.4 13-5.6 13-12.4 13c-6.8 0-12.4-4.5-12.4-13zm18.8.3c0-6.2-2.8-9.3-6.5-9.3-3.9 0-6.5 3.1-6.5 9.3 0 6.2 2.8 9.3 6.5 9.3 3.7-.3 6.5-3.1 6.5-9.3zm15.8 1.7v7.9h3.1v3.1H6.5v-3.1h1.4c.6 0 1.1-.6 1.1-1.1v-17c0-.6-.6-1.1-1.1-1.1H6.5v-3.1h11c6.2 0 10.2 2.3 10.2 7 0 3.4-2 5.1-5.6 5.6v.3c2.8.6 3.9 1.7 5.1 5.9l.6 2.5c.3.6.6.8.8.8h1.1v3.1h-7l-1.1-6.8c-.3-3.1-1.4-3.9-4.2-3.9h-2.5v-.1zm0-2.8h2.8c3.7 0 4.5-1.7 4.5-4.2s-.8-4.2-4.5-4.2h-2.8v8.4zm22 13.5h-4.2v-7.6h3.9l.6 3.9c.8.3 2 .6 3.7.6 3.1 0 4.5-1.4 4.5-3.7 0-2.8-3.1-3.4-6.5-4.2s-5.4-2.8-5.4-7c0-4.8 3.4-7.3 8.7-7.3 1.7 0 3.1.3 3.9.3h3.9v6.8H46l-.6-3.4c-.8-.3-1.7-.6-3.4-.6-2.5 0-4.2 1.1-4.2 3.4 0 2.5 2.5 3.1 5.6 3.9 4.5 1.1 6.8 2.8 6.8 7.3 0 5.1-3.4 7.9-9.3 7.9-2 0-3.1 0-4.3-.3zm30.5-13v-17.8c0-.8-.8-1.7-1.7-1.7h-2V467h14.1v3.4H73v19.7c0 7.3 3.7 9 8.7 9s8.7-1.7 8.7-9v-19.7H86V467h12.7v3.4h-2c-.8 0-1.7.8-1.7 1.7v17.8c0 9-4.8 13.5-13.8 13.5-8.8.1-14.1-4.2-14.1-13.5zm32.1 10.2h1.4c.6 0 1.1-.6 1.1-1.1v-17c0-.6-.6-1.1-1.1-1.1h-1.4v-3.1h8.2l9.9 16.1v-13h-2.8v-3.1h9.3v3.1h-1.4c-.6 0-1.1.6-1.1 1.1v21.1h-4.8L106 485.4v14.7h2.8v3.1h-9.3v-3.1h-.3zm28.5 0h1.7c.6 0 1.1-.6 1.1-1.1v-17c0-.6-.6-1.1-1.1-1.1h-1.7v-3.1h11v3.1H137c-.6 0-1.1.6-1.1 1.1v16.9c0 .6.6 1.1 1.1 1.1h1.7v3.1h-11v-3zm14.7-18.4c-.3-.6-.6-.8-1.1-.8h-.8v-3.1h10.4v3.1h-3.1l5.6 16.9 4.8-14.4c.6-1.7.3-2.5-1.1-2.5h-1.4v-3.1h9.6v3.1h-.8c-.6 0-1.1.6-1.4 1.1l-7.6 21.1h-5.6l-7.5-21.4zm24.2 18.4h1.4c.6 0 1.1-.6 1.1-1.1v-17c0-.6-.6-1.1-1.1-1.1h-1.4v-3.1h20v7.3h-3.4l-.6-3.9h-8.2v7.6h3.7l.3-2.8h3.4v9h-3.4l-.3-2.8h-3.7v7.9h8.5l.6-4.2h3.7v7.6h-20.6v-3.4zm32.7-7.9v7.9h3.1v3.1h-11.3v-3.1h1.4c.6 0 1.1-.6 1.1-1.1v-17c0-.6-.6-1.1-1.1-1.1h-1.4v-3.1h11c6.2 0 10.2 2.3 10.2 7 0 3.4-2 5.1-5.6 5.6v.3c2.8.6 3.9 1.7 5.1 5.9l.6 2.5c.3.6.6.8.8.8h1.1v3.1h-7l-1.1-6.8c-.3-3.1-1.4-3.9-4.2-3.9h-2.5v-.1zm0-2.8h2.8c3.7 0 4.5-1.7 4.5-4.2s-.8-4.2-4.5-4.2h-2.8v8.4zm22 13.5h-4.2v-7.6h3.9l.6 3.9c.8.3 2 .6 3.7.6 3.1 0 4.5-1.4 4.5-3.7 0-2.8-3.1-3.4-6.5-4.2-3.4-.8-5.4-2.8-5.4-7 0-4.8 3.4-7.3 8.7-7.3 1.7 0 3.1.3 3.9.3h3.9v6.8h-4.5l-.6-3.4c-.8-.3-1.7-.6-3.4-.6-2.5 0-4.2 1.1-4.2 3.4 0 2.5 2.5 3.1 5.6 3.9 4.5 1.1 6.8 2.8 6.8 7.3 0 5.1-3.4 7.9-9.3 7.9-1.2 0-2.6 0-3.5-.3zm16.4-2.8h1.7c.6 0 1.1-.6 1.1-1.1v-17c0-.6-.6-1.1-1.1-1.1h-1.7v-3.1h11v3.1H247c-.6 0-1.1.6-1.1 1.1v16.9c0 .6.6 1.1 1.1 1.1h1.7v3.1h-11v-3zm20 0h1.7c.6 0 1.1-.6 1.1-1.1v-17.8h-3.9l-.3 5.4h-3.7v-8.5h21.7v8.5h-3.4l-.6-5.4h-3.9V499c0 .6.6 1.1 1.1 1.1h1.7v3.1h-11v-3.1h-.5zm25.6 0h1.7c.6 0 1.1-.6 1.1-1.1v-6.2l-7-11c-.3-.6-.8-.8-1.1-.8h-.8v-3.1h10.4v3.1h-2.8l5.1 8.5 3.7-5.9c.8-1.7.3-2.5-1.1-2.5h-1.1V478h9.3v3.1h-.7c-.6 0-1.1.3-1.4.8l-6.5 10.7v6.5c0 .6.6 1.1 1.1 1.1h1.7v3.1h-11v-3.1h-.6z" fill="#fff"/></svg>