<svg width="363" height="286" fill="none" xmlns="http://www.w3.org/2000/svg"><g clip-path="url(#clip0_2717_3107)"><path d="M219.187 126.181h-83.173a8.71 8.71 0 01-6.143-2.545 8.684 8.684 0 01-2.549-6.135V9.099a8.683 8.683 0 012.549-6.135A8.707 8.707 0 01136.014.42h83.173a8.705 8.705 0 016.143 2.545 8.68 8.68 0 012.549 6.135v108.402a8.683 8.683 0 01-2.548 6.135 8.712 8.712 0 01-6.144 2.545z" fill="#E1E1E1"/><path d="M219.187 126.6h-83.173a9.128 9.128 0 01-6.44-2.668 9.106 9.106 0 01-2.672-6.431V9.099a9.105 9.105 0 012.672-6.43A9.128 9.128 0 01136.014 0h83.173a9.128 9.128 0 016.44 2.668 9.105 9.105 0 012.672 6.431v108.402a9.106 9.106 0 01-2.672 6.431 9.128 9.128 0 01-6.44 2.668zM136.014.838a8.289 8.289 0 00-5.847 2.423 8.265 8.265 0 00-2.425 5.838v108.402a8.263 8.263 0 002.425 5.838 8.29 8.29 0 005.847 2.423h83.173a8.29 8.29 0 005.847-2.423 8.259 8.259 0 002.425-5.838V9.099a8.26 8.26 0 00-2.425-5.838 8.289 8.289 0 00-5.847-2.423h-83.173z" fill="#00ABDF"/><path d="M354.308 126.181h-83.173a8.708 8.708 0 01-6.143-2.545 8.68 8.68 0 01-2.549-6.135V9.099a8.68 8.68 0 012.549-6.135A8.705 8.705 0 01271.135.42h83.173a8.705 8.705 0 016.143 2.545A8.683 8.683 0 01363 9.1v108.402a8.684 8.684 0 01-2.549 6.135 8.708 8.708 0 01-6.143 2.545z" fill="#E1E1E1"/><path d="M176.129 139.597c8.303 0 15.033-6.721 15.033-15.012s-6.73-15.012-15.033-15.012c-8.302 0-15.033 6.721-15.033 15.012s6.731 15.012 15.033 15.012z" fill="#00ABDF"/><path d="M174.078 132.398a1.678 1.678 0 01-1.337-.668l-4.102-5.461a1.675 1.675 0 01.335-2.338 1.685 1.685 0 011.855-.101c.189.112.354.26.486.435l2.683 3.573 6.891-10.323a1.673 1.673 0 012.783 1.853l-8.202 12.286a1.677 1.677 0 01-1.345.743l-.047.001z" fill="#fff"/><path d="M163.086 184.153H3.568A3.566 3.566 0 010 180.59V36.383a3.565 3.565 0 011.046-2.518 3.575 3.575 0 012.522-1.045h159.518a3.575 3.575 0 012.522 1.045 3.564 3.564 0 011.046 2.518V180.59a3.565 3.565 0 01-3.568 3.563z" fill="#3F3D56"/><path d="M159.728 180.8H6.927a3.575 3.575 0 01-2.522-1.045 3.565 3.565 0 01-1.047-2.518v-137.5a3.565 3.565 0 011.047-2.519 3.574 3.574 0 012.522-1.044h152.801a3.575 3.575 0 012.522 1.044 3.564 3.564 0 011.046 2.519v137.5a3.564 3.564 0 01-1.046 2.518 3.575 3.575 0 01-2.522 1.045z" fill="#fff"/><path d="M14.69 51.112a1805.966 1805.966 0 01138.127 2.878c.81.047.807-1.21 0-1.258A1805.697 1805.697 0 0014.69 49.854c-.81.014-.812 1.272 0 1.258zm125.32-7.886l7.863-.584c.804-.06.81-1.318 0-1.258l-7.863.584c-.803.06-.81 1.318 0 1.258zm0 7.546l7.863-.585c.804-.06.81-1.317 0-1.257l-7.863.584c-.803.06-.81 1.318 0 1.258zm-.591-3.446l11.179 1.014c.807.073.802-1.185 0-1.258l-11.179-1.014c-.807-.073-.802 1.185 0 1.258zM19.343 41.535a2.788 2.788 0 00-2.574 1.679 2.5 2.5 0 00.577 2.974 2.983 2.983 0 002.825.573 2.52 2.52 0 001.689-2.365 2.809 2.809 0 00-1.755-2.712.633.633 0 00-.774.44.646.646 0 00.44.773c.11.042-.1-.054.002.002.042.023.085.044.126.068.035.02.07.044.103.066.118.076-.057-.056.018.012.065.06.13.118.189.184.022.025.11.095.042.046-.052-.037-.02-.028 0 .002l.046.067c.05.074.094.151.134.23l.027.056c.018.034.043.043.002 0-.04-.04-.015-.038 0 .002.009.026.02.051.028.077.03.085.055.171.075.259.009.04.016.081.024.122.028.144-.004-.09.003.017.005.09.012.179.01.269 0 .04-.002.082-.005.123l-.005.061c-.006.099-.007-.036.007-.045-.029.084-.048.17-.057.258-.011.04-.024.078-.037.116-.044.135.041-.073-.006.02a2.479 2.479 0 01-.128.23c-.02.03-.098.101-.035.052.069-.053-.036.038-.058.062a1.674 1.674 0 01-.152.142c-.004-.002.105-.073.046-.036-.074.048-.145.099-.224.14l-.11.053c-.004-.017.13-.047.038-.017l-.057.02c-.084.029-.17.051-.256.068-.02.004-.041.006-.06.011-.066.017.062-.01.065-.007a.548.548 0 00-.143.012c-.09.005-.179.005-.268 0-.02 0-.042-.003-.062-.004-.048-.003-.083-.037-.02 0 .05.029.046.008.002 0l-.061-.01a2.433 2.433 0 01-.262-.065c-.046-.014-.092-.03-.138-.046a.362.362 0 01-.058-.023c0-.005.118.057.056.023-.079-.042-.16-.078-.237-.124l-.12-.078a.379.379 0 01-.05-.036c.001-.005.098.084.047.036-.064-.06-.132-.115-.193-.18l-.04-.045-.014-.015c-.034-.042-.035-.042-.002 0 .034.01.032.046 0-.001-.01-.017-.023-.033-.034-.05a1.315 1.315 0 01-.13-.232c.003-.003.054.15.015.035l-.023-.066a1.746 1.746 0 01-.038-.132c-.011-.044-.017-.09-.028-.133-.018-.074.011.058.008.055-.01-.01-.006-.075-.007-.09-.005-.099.006-.194.008-.292.001-.076-.007.059-.008.055a.19.19 0 01.012-.067c.011-.052.022-.104.036-.155.016-.058.034-.116.055-.173l.024-.064c.027-.08-.052.095-.008.024.06-.098.104-.204.168-.3.015-.024.106-.151.058-.087-.049.064.05-.057.068-.078.077-.086.168-.157.248-.239.047-.048-.033.024-.038.028l.075-.054a2.13 2.13 0 01.134-.085c.052-.03.11-.053.16-.085.06-.038-.045.017-.047.018a.463.463 0 01.084-.032c.049-.017.261-.109.306-.08-.002-.002-.162.013-.033.004.03-.002.06-.005.091-.006a1.99 1.99 0 01.184.002.635.635 0 00.63-.629.642.642 0 00-.63-.628zm8.816 0a2.788 2.788 0 00-2.575 1.679 2.5 2.5 0 00.577 2.974 2.983 2.983 0 002.825.573 2.52 2.52 0 001.689-2.365 2.808 2.808 0 00-1.754-2.712.633.633 0 00-.775.44.646.646 0 00.44.773c.11.042-.1-.054.002.002.042.023.085.044.127.068.035.02.069.044.103.066.117.076-.058-.056.017.012.066.06.13.118.19.184.022.025.11.095.041.046-.052-.037-.02-.028 0 .002l.047.067c.049.074.093.151.134.23.009.019.017.038.027.056.017.034.043.043.001 0-.04-.04-.014-.038 0 .002l.029.077c.03.085.054.171.074.259.01.04.017.081.024.122.029.144-.004-.09.003.017.006.09.012.179.01.269 0 .04-.002.082-.005.123 0 .02-.003.04-.005.061-.006.099-.006-.036.008-.045-.03.084-.048.17-.057.258-.012.04-.025.078-.038.116-.043.135.041-.073-.005.02a2.49 2.49 0 01-.129.23c-.02.03-.098.101-.034.052.068-.053-.036.038-.059.062a1.753 1.753 0 01-.152.142c-.003-.002.106-.073.047-.036-.075.048-.146.099-.225.14l-.11.053c-.004-.017.13-.047.038-.017l-.057.02a2.05 2.05 0 01-.256.068c-.02.004-.04.006-.06.011-.065.017.062-.01.066-.007a.548.548 0 00-.144.012 2.33 2.33 0 01-.268 0c-.02 0-.041-.003-.062-.004-.048-.003-.083-.037-.019 0 .05.029.045.008.002 0l-.062-.01a2.429 2.429 0 01-.262-.065c-.046-.014-.091-.03-.137-.046a.366.366 0 01-.058-.023c0-.005.118.057.055.023-.078-.042-.16-.078-.236-.124a3.073 3.073 0 01-.12-.078.38.38 0 01-.05-.036c0-.005.097.084.047.036-.064-.06-.133-.115-.193-.18l-.041-.045-.013-.015c-.035-.042-.035-.042-.002 0 .033.01.032.046 0-.001l-.035-.05a1.315 1.315 0 01-.13-.232c.003-.003.055.15.015.035l-.023-.066a1.746 1.746 0 01-.038-.132c-.01-.044-.016-.09-.027-.133-.019-.074.01.058.007.055-.01-.01-.006-.075-.007-.09-.005-.099.006-.194.008-.292.002-.076-.006.059-.008.055 0-.023.005-.046.012-.067.012-.052.022-.104.036-.155a2.67 2.67 0 01.055-.173c.008-.022.018-.043.025-.064.026-.08-.052.095-.009.024.06-.098.105-.204.168-.3.015-.024.107-.151.058-.087-.048.064.05-.057.069-.078.077-.086.168-.157.248-.239.047-.048-.033.024-.038.028l.074-.054a2.16 2.16 0 01.134-.085c.052-.03.11-.053.16-.085.06-.038-.045.017-.047.018a.466.466 0 01.085-.032c.048-.017.26-.109.305-.08-.002-.002-.161.013-.032.004l.09-.006c.062-.002.123 0 .185.002a.635.635 0 00.63-.629.643.643 0 00-.63-.628zm8.815 0a2.788 2.788 0 00-2.574 1.679 2.501 2.501 0 00.577 2.974 2.982 2.982 0 002.824.573 2.52 2.52 0 001.69-2.365 2.809 2.809 0 00-1.755-2.712.633.633 0 00-.774.44.646.646 0 00.44.773c.11.042-.1-.054.002.002.042.023.085.044.126.068.035.02.069.044.103.066.118.076-.057-.056.018.012.065.06.13.118.189.184.022.025.11.095.042.046-.052-.037-.02-.028 0 .002l.046.067c.05.074.094.151.134.23l.027.056c.018.034.043.043.002 0-.04-.04-.015-.038 0 .002l.028.077c.03.085.054.171.074.259.01.04.017.081.025.122.028.144-.004-.09.003.017.005.09.012.179.01.269 0 .04-.002.082-.005.123l-.005.061c-.007.099-.007-.036.007-.045-.029.084-.048.17-.057.258-.011.04-.025.078-.037.116-.044.135.041-.073-.006.02a2.479 2.479 0 01-.128.23c-.02.03-.098.101-.035.052.069-.053-.036.038-.058.062a1.753 1.753 0 01-.152.142c-.004-.002.105-.073.046-.036-.075.048-.145.099-.224.14l-.11.053c-.004-.017.13-.047.038-.017l-.058.02a2.05 2.05 0 01-.256.068c-.02.004-.04.006-.06.011-.065.017.062-.01.066-.007a.548.548 0 00-.143.012 2.33 2.33 0 01-.268 0c-.021 0-.042-.003-.062-.004-.048-.003-.083-.037-.02 0 .05.029.045.008.002 0l-.061-.01a2.429 2.429 0 01-.262-.065c-.047-.014-.092-.03-.138-.046a.364.364 0 01-.058-.023c0-.005.118.057.056.023-.079-.042-.16-.078-.237-.124a3.073 3.073 0 01-.12-.078.38.38 0 01-.05-.036c.001-.005.098.084.047.036-.064-.06-.132-.115-.193-.18l-.04-.045-.014-.015c-.034-.042-.035-.042-.002 0 .033.01.032.046 0-.001l-.034-.05a1.309 1.309 0 01-.13-.232c.003-.003.054.15.015.035l-.023-.066a1.746 1.746 0 01-.039-.132c-.01-.044-.016-.09-.027-.133-.019-.074.01.058.008.055-.011-.01-.007-.075-.007-.09-.005-.099.006-.194.008-.292.001-.076-.007.059-.008.055a.19.19 0 01.012-.067c.011-.052.022-.104.036-.155.016-.058.034-.116.055-.173l.024-.064c.027-.08-.052.095-.009.024.06-.098.105-.204.169-.3.015-.024.106-.151.058-.087-.049.064.05-.057.068-.078.077-.086.168-.157.248-.239.047-.048-.033.024-.038.028l.074-.054c.044-.03.089-.058.135-.085.051-.03.11-.053.16-.085.059-.038-.045.017-.047.018a.462.462 0 01.084-.032c.049-.017.26-.109.305-.08-.002-.002-.16.013-.032.004.03-.002.06-.005.091-.006.062-.002.123 0 .184.002a.634.634 0 00.63-.629.643.643 0 00-.63-.628zM18.577 74.56l.561 21.466.562 21.465c.07 2.709-.313 6.403 2.439 7.99 1.147.661 2.52.806 3.82.843 1.727.047 3.459.012 5.186.014l21.514.023c2.827.003 5.931-.08 7.956-2.353 1.691-1.898 2.17-4.529 2.34-6.984.223-3.24.116-6.52.145-9.767l.096-10.787.097-10.788c.03-3.277.184-6.581.04-9.856-.11-2.5-.532-5.168-2.21-7.132-1.911-2.237-4.933-2.539-7.69-2.627-7.128-.228-14.258-.42-21.386-.63-1.64-.048-3.285-.136-4.926-.115a12.762 12.762 0 00-4.297.658c-2.305.861-4.106 2.928-4.026 5.492a3.81 3.81 0 001.303 2.832c.615.52 1.51-.365.89-.889-1.68-1.42-.866-4.079.603-5.338 2.127-1.826 5.463-1.53 8.058-1.453l20.195.595c1.566.046 3.137.062 4.701.153 1.397.082 2.855.264 4.105.935 2.162 1.161 3.005 3.544 3.289 5.848.357 2.9.142 5.891.116 8.804l-.092 10.264-.182 20.318c-.022 2.472.016 5.023-.816 7.386a6.236 6.236 0 01-1.893 2.818 6.815 6.815 0 01-3.79 1.294c-1.533.123-3.084.064-4.62.062l-5.248-.006-10.074-.01-5.248-.006c-1.533-.002-3.077.052-4.609-.032-1.175-.065-2.486-.268-3.352-1.141-.97-.977-1.06-2.488-1.105-3.785-.464-13.506-.708-27.024-1.061-40.534l-.132-5.026c-.021-.808-1.28-.811-1.26 0zm79.759 0l.561 21.466.562 21.465c.07 2.709-.313 6.403 2.439 7.99 1.147.661 2.519.806 3.82.843 1.727.047 3.459.012 5.186.014l21.514.023c2.827.003 5.931-.08 7.956-2.353 1.691-1.898 2.17-4.529 2.34-6.984.223-3.24.116-6.52.145-9.767l.096-10.787.097-10.788c.029-3.277.185-6.581.041-9.856-.11-2.5-.533-5.168-2.211-7.132-1.911-2.237-4.933-2.539-7.689-2.627-7.129-.228-14.258-.42-21.387-.63-1.641-.048-3.285-.136-4.926-.115a12.76 12.76 0 00-4.297.658c-2.305.861-4.106 2.928-4.025 5.492a3.809 3.809 0 001.302 2.832c.615.52 1.51-.365.89-.889-1.68-1.42-.866-4.079.603-5.338 2.128-1.826 5.464-1.53 8.058-1.453l20.195.595c1.566.046 3.137.062 4.701.153 1.397.082 2.855.264 4.105.935 2.162 1.161 3.005 3.544 3.289 5.848.357 2.9.142 5.891.116 8.804l-.092 10.264-.182 20.318c-.022 2.472.016 5.023-.816 7.386a6.244 6.244 0 01-1.893 2.818 6.817 6.817 0 01-3.79 1.294c-1.533.123-3.084.064-4.62.062l-5.247-.006-10.075-.01-5.248-.006c-1.533-.002-3.077.052-4.609-.032-1.175-.065-2.486-.268-3.352-1.141-.97-.977-1.06-2.488-1.105-3.785-.464-13.506-.708-27.024-1.061-40.534l-.132-5.026c-.021-.808-1.28-.811-1.26 0zm-58.022 56.448a3.569 3.569 0 00-3.376-.877 4.108 4.108 0 00-2.672 2.29c-1.19 2.53-.123 5.48 1.52 7.546 1.528 1.92 4.01 3.186 6.428 2.178a5.71 5.71 0 003.45-5.712c-.305-2.81-2.592-5.085-5.276-5.772-.786-.2-1.121 1.012-.335 1.213a5.902 5.902 0 014.128 3.645 4.404 4.404 0 01-1.523 4.933c-3.753 2.878-8.045-2.624-7.624-6.224a3.477 3.477 0 011.589-2.633 2.36 2.36 0 012.8.302.631.631 0 001.061-.449.628.628 0 00-.17-.44z" fill="#3F3D56"/><path d="M117.251 87.362c-1.47-.505-3.176-1.006-4.697-.414-1.434.558-2.224 1.925-2.38 3.408-.173 1.654.531 3.232 1.278 4.664.898 1.722 1.824 3.43 2.736 5.146l3.157 5.932a.632.632 0 00.705.278.632.632 0 00.468-.596 12.125 12.125 0 01.92-5.829c.808-1.857 2.127-3.426 3.064-5.212.863-1.644 1.439-3.53.982-5.383-.37-1.5-1.462-2.957-3.035-3.306a3.447 3.447 0 00-4.01 1.978c-.297.753.92 1.08 1.215.334.418-1.062 1.885-1.387 2.862-.98 1.273.529 1.877 2.048 1.876 3.34-.002 1.766-.908 3.38-1.827 4.83-.929 1.465-1.905 2.882-2.522 4.515a13.156 13.156 0 00-.784 5.713l1.173-.317c-2.049-3.852-4.212-7.665-6.146-11.575-.744-1.504-1.414-3.532-.273-5.032 1.17-1.538 3.402-.797 4.903-.281.768.264 1.098-.95.335-1.213zm-80.153 47.159l1.855 3.592a.632.632 0 00.624.297.64.64 0 00.527-.447 13.828 13.828 0 013.346-6.668c.545-.596-.343-1.488-.89-.889a15.052 15.052 0 00-3.67 7.222l1.15-.15-1.854-3.592c-.372-.719-1.459-.084-1.088.635z" fill="#3F3D56"/><path d="M58.133 117.94L43.48 130.864a.434.434 0 01-.592-.021.432.432 0 01-.01-.592l13.651-14.885 1.602 2.574z" fill="#3F3D56"/><path d="M77.665 275.218h5.76l2.74-22.182h-8.5v22.182z" fill="#FFB6B6"/><path d="M74.626 285.182h4.13l.737-3.894 1.888 3.894h10.953a2.463 2.463 0 002.351-1.727 2.454 2.454 0 00-.952-2.755l-8.747-6.033v-3.936l-9.2.548-1.16 13.903z" fill="#2F2E41"/><path d="M126.993 275.218h5.758l2.741-22.182h-8.499v22.182z" fill="#FFB6B6"/><path d="M123.953 285.182h4.13l.737-3.894 1.888 3.894h10.953a2.465 2.465 0 002.351-1.727 2.457 2.457 0 00-.951-2.755l-8.747-6.033v-3.936l-9.201.548-1.16 13.903zm-13.605-127.541L81.141 154.4s-12.98 16.852-8.113 31.435v16.239l3.57 63.483 8.924.486 2.597-28.842 2.434-11.505 2.05-43.831 10.444 12.558.973 4.861 3.245 2.269 6.004 8.238 12.332 50.581 10.867.162s-5.837-52.5-6.486-52.5-16.875-35.324-16.875-35.324v-1.869l-.649-3.64s1.622-1.296.973-1.945c-.649-.648-1.298-2.592-1.298-2.592l-1.785-5.023z" fill="#2F2E41"/><path d="M99.802 112.432l5.841 6.482 8.113 2.916-4.543 26.575 1.506 7.641 2.226 8.4c-8.574 4.736-18.758-1.805-28.115-4.71l-9.205 4.062.487-11.181.25-28.169a7.881 7.881 0 012.559-5.747 7.91 7.91 0 015.953-2.056l6.165-4.537 8.763.324z" fill="#0079C1"/><path d="M46.811 124.32a3.3 3.3 0 001.421 2.409 3.313 3.313 0 002.762.459l6.697 9.651 2.277-5.662-6.709-8.297a3.325 3.325 0 00-5.837-.84 3.318 3.318 0 00-.61 2.28z" fill="#FFB8B8"/><path d="M81.876 116.784s-8.717-.386-7.74 16.913l-3.709 7.599-7.459-6.951-.033-2.212-6.308-7.041-5.063 5.589 3.37 5.146.65 2.874 2.053 1.252 5.355 8.176 2.477 2.435s3.143 3.128 6.698 2.657a9.145 9.145 0 002.735-.804c1.691-.804 3.362-2.245 4.766-4.685a146.013 146.013 0 007.903-15.602l-5.695-15.346z" fill="#0079C1"/><path d="M120.036 97.254a3.303 3.303 0 002.844 4.196l2.701 11.428 4.192-4.44-3.208-10.172a3.325 3.325 0 00-5.126-2.912 3.322 3.322 0 00-1.403 1.9z" fill="#FFB8B8"/><path d="M101.485 120.29s4.609-7.398 18.347 3.185l8.373 1.242-1.525-10.074-1.809-1.279-2.25-9.176 7.479-1.01 2.345 5.685 2.007 2.159-.126 2.399 3.726 9.034.611 3.417s.807 4.357-1.592 7.018a9.148 9.148 0 01-2.21 1.8c-1.62.938-3.755 1.499-6.564 1.277a146.498 146.498 0 01-17.355-2.31l-9.457-13.367z" fill="#0079C1"/><path d="M100.834 109.73c5.448-2.973 7.45-9.794 4.472-15.234-2.978-5.44-9.808-7.439-15.255-4.465-5.448 2.973-7.45 9.794-4.472 15.234 2.978 5.44 9.808 7.439 15.255 4.465z" fill="#FFB6B6"/><path d="M110.233 96.007l-.097.038a1.56 1.56 0 01-.197.071 5.441 5.441 0 01-1.331.302 5.52 5.52 0 01-1.331-.02 5.284 5.284 0 01-1.188-.29 5.73 5.73 0 01-3.534-3.677v-.004a5.692 5.692 0 01-.256-1.698v-.008a5.664 5.664 0 011.07-3.316c.42-.59.903-.689.634-1.366-.859-2.163 2.683-3.92 4.769-2.964.075-.007.151-.01.226-.009 1.407 0 1.923 2.075 2.758 3.245l-.024.008a1.082 1.082 0 00-.725 1.022 1.074 1.074 0 00.734 1.017c.557.183 1.121.344 1.69.485 1.874 2.221-.297 8.7-3.198 7.164z" fill="#2F2E41"/><path d="M109.183 101.947c-.625 2.361-1.776 4.662-3.677 6.192-1.906 1.53-10.86 5.144-11.607 2.029.5 2.176.193 3.006-.622 3.781a9.38 9.38 0 00-.436-.545 7.076 7.076 0 00-1.973-1.588 22.695 22.695 0 00.273 3.923 13.31 13.31 0 00-.957.973c-1.436-4.31-4.594-9.475-2.288-13.39.915-1.553.156-1.768-.65-1.949-1.409-.315-2.171-6.09-2.503-7.495-.411-1.76-.57-3.786.525-5.228 1.096-1.442 3.858-1.496 4.412.227l1.167-1.577c1.511-3.299 5.499-2.628 9.105-2.192 3.606.432 6.784 2.972 8.4 6.221 1.612 3.249 1.759 7.11.831 10.618z" fill="#2F2E41"/><path d="M103.535 86.845a10.157 10.157 0 001.456 5.67 10.178 10.178 0 004.344 3.929c.732.333 1.373-.75.636-1.086a8.947 8.947 0 01-5.177-8.513c.044-.808-1.215-.806-1.259 0z" fill="#FF6584"/><path d="M312.696 56.717l-.01.008a5.316 5.316 0 00-9.085 3.288 5.304 5.304 0 001.162 3.767l-.01.009 7.082 7.932 7.944-7.072a5.326 5.326 0 001.774-3.663 5.313 5.313 0 00-5.01-5.612 5.328 5.328 0 00-3.847 1.343z" fill="#00ABDF"/></g><defs><clipPath id="clip0_2717_3107"><path fill="#fff" d="M0 0h363v286H0z"/></clipPath></defs></svg>