<svg width="290" height="239" fill="none" xmlns="http://www.w3.org/2000/svg"><g clip-path="url(#clip0_2717_3058)"><path d="M20.754 81.352c-2.26 0-4.467-.67-6.345-1.927a11.448 11.448 0 01-1.731-17.594 11.417 11.417 0 0112.446-2.48 11.425 11.425 0 015.126 4.212 11.446 11.446 0 011.925 6.353 11.456 11.456 0 01-3.349 8.082 11.427 11.427 0 01-8.072 3.354zm0-21.801c-2.048 0-4.05.608-5.752 1.747a10.377 10.377 0 00-1.569 15.947 10.349 10.349 0 0011.283 2.247 10.355 10.355 0 004.646-3.818 10.374 10.374 0 001.744-5.758 10.384 10.384 0 00-3.036-7.325 10.358 10.358 0 00-7.316-3.039v-.001z" fill="#D2D2D2"/><path d="M145.315 81.79a11.868 11.868 0 01-7.54-2.691 11.903 11.903 0 01-2.954-14.8 11.883 11.883 0 015.928-5.386 11.864 11.864 0 017.995-.396 11.877 11.877 0 016.431 4.773 11.903 11.903 0 01-1.479 15.02 11.864 11.864 0 01-8.381 3.48zm0-22.87a10.978 10.978 0 00-10.132 6.788 10.99 10.99 0 007.998 14.977 10.963 10.963 0 0011.265-4.667 11.004 11.004 0 001.853-6.102 11.013 11.013 0 00-3.221-7.773 10.986 10.986 0 00-7.763-3.224z" fill="#5F6062"/><path d="M145.316 65.135a4.768 4.768 0 00-4.405 2.95 4.78 4.78 0 003.477 6.512 4.768 4.768 0 004.897-2.029 4.788 4.788 0 00.806-2.652 4.786 4.786 0 00-2.948-4.417 4.768 4.768 0 00-1.827-.364zm124.561.002a4.766 4.766 0 00-4.404 2.95 4.78 4.78 0 001.035 5.204 4.767 4.767 0 007.338-.721 4.78 4.78 0 00-2.141-7.07 4.775 4.775 0 00-1.828-.363z" fill="#5F6062"/><path d="M251.159 0a1.817 1.817 0 000 3.634h36.808a1.815 1.815 0 001.282-3.1A1.815 1.815 0 00287.967 0h-36.808zm0 10.704a1.813 1.813 0 00-1.815 1.816 1.815 1.815 0 001.815 1.817h36.808a1.816 1.816 0 000-3.633h-36.808zm0 10.816a1.813 1.813 0 00-1.815 1.817 1.815 1.815 0 001.815 1.817h36.808a1.815 1.815 0 001.812-1.817 1.815 1.815 0 00-1.812-1.817h-36.808z" fill="#00ABDF"/><path d="M64.409 132.317a4.427 4.427 0 00-1.312-6.655l2.63-15.498-7.467 3.292-1.353 14.212a4.451 4.451 0 001.689 5.66 4.44 4.44 0 005.813-1.011z" fill="#FFB6B6"/><path d="M55.25 123.385l-1.36-38.757-.001-.026 7.31-35.574a5.576 5.576 0 014.973-4.408 5.532 5.532 0 014.565 1.815 5.546 5.546 0 011.328 4.735l-5.673 30.196-.12 42.269-11.02-.25z" fill="#0079C1"/><path d="M91.409 233.042h5.386l2.563-20.802h-7.95l.001 20.802z" fill="#FFB6B6"/><path d="M90.035 231.281h10.608c1.793 0 3.513.713 4.78 1.982a6.773 6.773 0 011.98 4.786v.22l-17.368.001v-6.989z" fill="#2F2E41"/><path d="M68.123 233.042h5.386l2.563-20.802h-7.95v20.802z" fill="#FFB6B6"/><path d="M66.748 231.281h10.608c1.794 0 3.513.713 4.78 1.982a6.774 6.774 0 011.981 4.786v.22l-17.368.001v-6.989zM97.86 87.905l2.056 4.414 6.175 57.486-6.067 76.315-10.725.353 1.853-70.509-13.277-28.585-.783 100.289h-9.38l-8.864-100.639s-3.056-28.001 8.033-39.124h30.98z" fill="#2F2E41"/><path d="M66.853 88.123l-.163-.022-5.4-33.704a9.679 9.679 0 011.08-6.221 9.661 9.661 0 014.685-4.227l5.583-2.378 17.452-.155 6.927 4.138a15.88 15.88 0 016.15 6.709 15.913 15.913 0 011.461 8.988l-4.059 31.314-33.716-4.442z" fill="#0079C1"/><path d="M99.845 135.581a4.422 4.422 0 01-.199-5.387c.375-.527.86-.965 1.422-1.284l-2.837-15.461 7.51 3.19 1.543 14.193c.473.981.57 2.101.272 3.148a4.442 4.442 0 01-4.975 3.177 4.441 4.441 0 01-2.736-1.576z" fill="#FFB6B6"/><path d="M91.815 88.421l-.005-.026 2.377-36.24a5.578 5.578 0 014.323-5.049 5.529 5.529 0 014.771 1.173 5.547 5.547 0 011.963 4.509l-1.491 30.688 5.661 41.888-10.95 1.263-6.65-38.206z" fill="#0079C1"/><path d="M83.518 38.542c6.364 0 11.524-5.166 11.524-11.538 0-6.373-5.16-11.538-11.524-11.538-6.365 0-11.524 5.165-11.524 11.538 0 6.372 5.16 11.538 11.524 11.538z" fill="#FFB6B6"/><path d="M63.872 41.627c1.225-1.043 2.724-1.702 4.057-2.602 1.333-.9 2.566-2.17 2.787-3.765.266-1.915-.962-3.667-1.752-5.431-2.457-5.487-.305-12.628 4.773-15.838 5.079-3.21 12.443-2.086 16.335 2.494 1.784-2.324 5.816-2.335 7.613-.021 1.797 2.314.792 6.223-1.897 7.382-1.888.813-4.188.38-5.962 1.42-1.852 1.084-2.552 3.518-2.223 5.64.329 2.123 1.48 4.015 2.605 5.844l-2.487-3.786c1.359 2.88 2.742 5.848 2.948 9.026.207 3.18-1.032 6.664-3.813 8.21-2.439 1.356-5.789 1.143-7.573 3.29a4.857 4.857 0 00-1.031 3.174c-2.688-.415-5.384-.78-8.076-1.16l-8.983-1.271a18.606 18.606 0 01-.575-2.936c-.383-3.52.56-7.375 3.254-9.67z" fill="#2F2E41"/><path d="M126.597 0a1.815 1.815 0 00-1.282 3.1c.34.341.801.533 1.282.534h36.808a1.813 1.813 0 001.815-1.817A1.815 1.815 0 00163.405 0h-36.808zm0 10.704a1.816 1.816 0 000 3.633h36.808a1.813 1.813 0 001.815-1.817 1.82 1.82 0 00-1.815-1.816h-36.808zm0 10.816a1.815 1.815 0 00-1.812 1.817 1.815 1.815 0 001.812 1.817h36.808a1.813 1.813 0 001.815-1.817 1.815 1.815 0 00-1.815-1.816h-36.808z" fill="#00ABDF"/><path d="M2.256 0A1.813 1.813 0 00.444 1.817a1.818 1.818 0 001.812 1.817h36.808a1.813 1.813 0 001.812-1.817A1.818 1.818 0 0039.064 0H2.256zm0 10.704A1.813 1.813 0 00.444 12.52a1.818 1.818 0 001.812 1.817h36.808a1.813 1.813 0 001.815-1.817 1.818 1.818 0 00-1.815-1.816H2.256zm0 10.816a1.813 1.813 0 00-1.812 1.817 1.818 1.818 0 001.812 1.817h36.808a1.813 1.813 0 001.812-1.817 1.818 1.818 0 00-1.812-1.816H2.256z" fill="#D2D2D2"/><path d="M251.377 0a1.817 1.817 0 000 3.634h36.809a1.815 1.815 0 001.811-1.817A1.815 1.815 0 00288.186 0h-36.809zm0 10.704a1.813 1.813 0 00-1.815 1.816 1.815 1.815 0 001.815 1.817h36.808a1.816 1.816 0 000-3.633h-36.808zm0 10.816a1.813 1.813 0 00-1.815 1.817 1.815 1.815 0 001.815 1.817h36.808a1.815 1.815 0 001.812-1.817 1.815 1.815 0 00-1.812-1.817h-36.808z" fill="#00ABDF"/><path d="M269.878 82.671c-2.519 0-4.982-.748-7.077-2.15a12.76 12.76 0 01-5.417-13.094 12.76 12.76 0 013.486-6.53 12.722 12.722 0 0113.883-2.765c2.328.966 4.318 2.6 5.718 4.698a12.764 12.764 0 012.147 7.086 12.776 12.776 0 01-3.736 9.015 12.744 12.744 0 01-9.004 3.74zm0-24.63a11.872 11.872 0 00-11.632 14.192 11.873 11.873 0 009.319 9.33 11.859 11.859 0 0012.175-5.05 11.888 11.888 0 001.999-6.597 11.896 11.896 0 00-3.478-8.393 11.865 11.865 0 00-8.383-3.482z" fill="#5F6062"/></g><defs><clipPath id="clip0_2717_3058"><path fill="#fff" d="M0 0h290v239H0z"/></clipPath></defs></svg>