<svg width="437" height="274" fill="none" xmlns="http://www.w3.org/2000/svg"><path d="M377.693 182.842a5.824 5.824 0 01-.556-4.893 5.804 5.804 0 013.384-3.569l-.82-20.669 9.177 5.556-.628 18.775a5.866 5.866 0 01-.23 4.152 5.846 5.846 0 01-2.922 2.95 5.822 5.822 0 01-4.139.26 5.836 5.836 0 01-3.266-2.562z" fill="#A0616A"/><path d="M389.942 169.444l-8.159 1.307a2.59 2.59 0 01-2.649-1.253c-.176-.3-.29-.632-.336-.977l-3.452-26.064-17.056-23.404a7.874 7.874 0 012.109-11.26h-.001a7.821 7.821 0 015.907-1.053 7.84 7.84 0 014.92 3.443l17.42 27.332 3.467 29.047a2.611 2.611 0 01-.684 2.095c-.394.42-.917.697-1.486.787z" fill="#0079C1"/><path d="M361.814 266.187h-7.078l-3.367-27.372 10.446.001-.001 27.371z" fill="#A0616A"/><path d="M349.68 264.16h13.65v8.617h-22.244a8.63 8.63 0 012.517-6.093 8.58 8.58 0 016.077-2.524z" fill="#2F2E41"/><path d="M391.675 254.041l-5.288 4.716-19.712-19.487 6.856-5.681 18.144 20.452z" fill="#A0616A"/><path d="M381.266 260.612l10.199-9.097 5.712 6.439-16.62 14.823a8.62 8.62 0 01-2.158-6.23 8.622 8.622 0 012.867-5.935z" fill="#2F2E41"/><path d="M290.688 109.665a5.788 5.788 0 014.807 1.017 5.819 5.819 0 012.308 4.347l19.818 5.748-8.157 6.976-17.568-6.528a5.83 5.83 0 01-3.856-1.53 5.86 5.86 0 012.648-10.03zm61.786-19.835c7.831 0 14.18-6.365 14.18-14.217s-6.349-14.217-14.18-14.217c-7.831 0-14.179 6.365-14.179 14.217s6.348 14.217 14.179 14.217z" fill="#A0616A"/><path d="M362.683 261.062l-9.851-.79a2.596 2.596 0 01-1.673-.798 2.608 2.608 0 01-.717-1.713l-2.749-83.256a2.592 2.592 0 012.237-2.666l19.64-2.748a2.6 2.6 0 012.92 3.018l-7.515 44.136a1.979 1.979 0 00-.029.368l.542 41.818a2.616 2.616 0 01-.75 1.865 2.581 2.581 0 01-2.055.766z" fill="#2F2E41"/><path d="M375.299 251.076l-33.841-37.762a2.617 2.617 0 01-.539-.939 2.626 2.626 0 01-.112-1.078l4.274-40.175a2.601 2.601 0 012.756-2.322l20.769 1.388a2.592 2.592 0 011.987 1.152 2.607 2.607 0 01.301 2.281l-12.444 36.911a2.031 2.031 0 00.46 2.056l28.746 29.87a2.597 2.597 0 01.705 2.158 2.615 2.615 0 01-1.253 1.893l-8.555 5.069a2.594 2.594 0 01-3.254-.502z" fill="#2F2E41"/><path d="M349.933 98.611s8.66-7.525 12.701-3.473c0 0 18.763 11.866 10.68 44.282 0 0 6.928 31.257 4.041 32.415-2.886 1.157-32.04 5.499-34.35 2.026-2.309-3.473-3.463-56.727 6.928-75.25z" fill="#0079C1"/><path d="M299.498 125.55l1.341-8.174a2.602 2.602 0 012.022-2.125 2.588 2.588 0 011.03-.01l25.755 4.949 27.534-8.833a7.819 7.819 0 018.603 2.695 7.875 7.875 0 01.517 8.819 7.836 7.836 0 01-4.812 3.592l-31.366 7.939-28.582-5.877a2.585 2.585 0 01-1.766-1.312 2.602 2.602 0 01-.276-1.663z" fill="#0079C1"/><path d="M358.559 87.145c1.296-3.007 2.392-7.011-.093-9.137-1.442-1.233-3.518-1.236-5.407-1.39-5.321-.432-10.799-2.886-13.4-7.561-2.601-4.675-1.148-11.626 3.759-13.735 3.307-1.421 7.099-.453 10.561.531l10.395 2.956c3.089.878 6.332 1.847 8.555 4.168 3.546 3.703 3.281 9.963.465 14.25-2.817 4.287-7.059 8.759-11.915 10.386l-2.92-.468z" fill="#2F2E41"/><path d="M285.191 0H4.041a4.04 4.04 0 00-2.856 1.188A4.062 4.062 0 000 4.052v208.383a4.06 4.06 0 001.185 2.863 4.038 4.038 0 002.856 1.188h281.15a4.039 4.039 0 002.856-1.188 4.061 4.061 0 001.185-2.863V4.052a4.064 4.064 0 00-1.185-2.864A4.041 4.041 0 00285.191 0zm2.886 212.435a2.896 2.896 0 01-2.886 2.894H4.041a2.89 2.89 0 01-2.886-2.894V4.052A2.9 2.9 0 012 2.006a2.884 2.884 0 012.041-.848h281.15a2.895 2.895 0 012.886 2.894v208.383z" fill="#3F3D56"/><path d="M288.655 16.23H.577v1.158h288.078v-1.157zM10.392 12.156a3.468 3.468 0 003.463-3.473 3.468 3.468 0 00-3.463-3.473 3.468 3.468 0 00-3.464 3.473 3.469 3.469 0 003.464 3.473zm9.958 0a3.468 3.468 0 003.464-3.473A3.468 3.468 0 0020.35 5.21a3.469 3.469 0 00-3.464 3.473 3.469 3.469 0 003.464 3.473zm9.959 0a3.469 3.469 0 003.464-3.473 3.468 3.468 0 00-3.464-3.473 3.468 3.468 0 00-3.464 3.473 3.468 3.468 0 003.464 3.473zm143.936 168.04a.578.578 0 01-.577-.579v-23.732a.578.578 0 111.154 0v23.732c0 .154-.06.301-.169.409a.574.574 0 01-.408.17zm-.791-33.573a.573.573 0 01-.291-.079l-32.799-19.161a.583.583 0 01-.208-.792.578.578 0 01.789-.209l32.8 19.162a.582.582 0 01.06.96.58.58 0 01-.351.119z" fill="#3F3D56"/><path d="M107.855 146.623a.579.579 0 01-.291-1.079l32.8-19.162a.58.58 0 01.787.21.583.583 0 01-.206.791l-32.8 19.162a.578.578 0 01-.29.078zm99.66 28.942a.578.578 0 01-.29-.078l-32.8-19.162a.583.583 0 01-.208-.792.58.58 0 01.789-.209l32.8 19.162a.577.577 0 01.267.651.577.577 0 01-.558.428z" fill="#3F3D56"/><path d="M141.916 175.565a.579.579 0 01-.291-1.079l32.8-19.162a.58.58 0 01.787.21.579.579 0 01-.206.791l-32.8 19.162a.578.578 0 01-.29.078zm-1.155-58.463a.58.58 0 01-.577-.577l-.054-21.063a.581.581 0 01.576-.58h.002c.153 0 .299.06.407.17a.57.57 0 01.17.408l.053 21.062a.566.566 0 01-.168.41.582.582 0 01-.407.17h-.002z" fill="#3F3D56"/><path d="M148.228 128.052h-15.04a2.6 2.6 0 01-1.836-.764 2.615 2.615 0 01-.762-1.841v-7.746c.001-.69.275-1.353.762-1.841a2.6 2.6 0 011.836-.764h15.04a2.6 2.6 0 011.836.764c.487.488.761 1.151.762 1.841v7.746a2.615 2.615 0 01-.762 1.841 2.6 2.6 0 01-1.836.764z" fill="#CCC"/><path d="M123.335 88.679H91.333a.577.577 0 01-.578-.579.58.58 0 01.578-.579h32.002a.576.576 0 01.577.579.58.58 0 01-.577.579zm17.373-8.268a.58.58 0 01-.578-.579V59.797a.58.58 0 01.578-.579.576.576 0 01.577.579v20.035a.58.58 0 01-.577.58zm-61.826 8.268a.575.575 0 01-.294-.081L47.52 70.135a.579.579 0 01.589-.996l31.068 18.463a.58.58 0 01-.295 1.077z" fill="#3F3D56"/><path d="M47.815 107.142a.577.577 0 01-.557-.426.58.58 0 01.262-.651l31.068-18.463a.576.576 0 01.854.641.578.578 0 01-.265.355l-31.068 18.463a.574.574 0 01-.294.081z" fill="#3F3D56"/><path d="M89.024 98.016h-7.726a2.6 2.6 0 01-1.836-.764 2.611 2.611 0 01-.762-1.841V80.33c.001-.69.275-1.353.762-1.841a2.597 2.597 0 011.836-.764h7.726c.688 0 1.349.275 1.836.764.487.488.76 1.15.761 1.84v15.08a2.61 2.61 0 01-.761 1.842 2.598 2.598 0 01-1.836.764zm59.204-36.661h-15.04a2.597 2.597 0 01-1.836-.764 2.612 2.612 0 01-.762-1.841v-7.746c.001-.69.275-1.353.762-1.841a2.596 2.596 0 011.836-.764h15.04c.689 0 1.349.276 1.836.764a2.61 2.61 0 01.762 1.84v7.747a2.612 2.612 0 01-.762 1.84 2.597 2.597 0 01-1.836.765zM45.725 80.071H38a2.596 2.596 0 01-1.836-.763 2.611 2.611 0 01-.762-1.841v-15.08c.001-.69.275-1.353.762-1.841A2.598 2.598 0 0138 59.782h7.725c.69 0 1.35.276 1.837.764.487.488.76 1.15.761 1.84v15.08a2.61 2.61 0 01-.761 1.842 2.598 2.598 0 01-1.837.763zm0 36.467H38a2.596 2.596 0 01-1.836-.763 2.613 2.613 0 01-.762-1.841v-15.08c.001-.69.275-1.353.762-1.841A2.597 2.597 0 0138 96.249h7.725c.69 0 1.35.275 1.837.764.487.488.76 1.15.761 1.84v15.081a2.61 2.61 0 01-.761 1.841 2.595 2.595 0 01-1.837.763z" fill="#CCC"/><path d="M190.083 88.679H158.08a.578.578 0 010-1.158h32.003a.576.576 0 01.577.579.58.58 0 01-.577.579zm12.451 0a.578.578 0 01-.295-1.077l31.068-18.463a.57.57 0 01.64.035.58.58 0 01-.052.961l-31.068 18.463a.57.57 0 01-.293.08z" fill="#3F3D56"/><path d="M233.6 107.142a.572.572 0 01-.293-.081l-31.068-18.463a.578.578 0 01.588-.996l31.068 18.463a.58.58 0 01-.295 1.077z" fill="#3F3D56"/><path d="M200.117 98.016h-7.725a2.597 2.597 0 01-1.836-.764 2.612 2.612 0 01-.762-1.841V80.33c.001-.69.275-1.353.762-1.841a2.596 2.596 0 011.836-.764h7.725a2.59 2.59 0 011.836.764 2.61 2.61 0 01.762 1.84v15.08a2.612 2.612 0 01-.762 1.842 2.597 2.597 0 01-1.836.764zm43.298-17.945h-7.725a2.597 2.597 0 01-1.836-.763 2.612 2.612 0 01-.762-1.841v-15.08c.001-.69.275-1.353.762-1.841a2.597 2.597 0 011.836-.764h7.725a2.6 2.6 0 012.598 2.605v15.08a2.6 2.6 0 01-2.598 2.605zm0 36.467h-7.725a2.594 2.594 0 01-1.836-.763 2.615 2.615 0 01-.762-1.841v-15.08c.001-.69.275-1.353.762-1.841a2.596 2.596 0 011.836-.764h7.725a2.6 2.6 0 012.598 2.605v15.08a2.598 2.598 0 01-2.598 2.604zm-128.671 41.034h-15.04c-.689 0-1.35-.275-1.836-.763a2.613 2.613 0 01-.762-1.841v-7.746c0-.691.275-1.353.762-1.841a2.6 2.6 0 011.836-.764h15.04a2.6 2.6 0 011.836.764c.487.488.761 1.15.762 1.841v7.746a2.615 2.615 0 01-.762 1.841 2.594 2.594 0 01-1.836.763zm66.861 0h-15.04a2.594 2.594 0 01-1.836-.763 2.615 2.615 0 01-.762-1.841v-7.746a2.611 2.611 0 01.762-1.841 2.6 2.6 0 011.836-.764h15.04a2.6 2.6 0 011.836.764c.487.488.761 1.15.762 1.841v7.746a2.615 2.615 0 01-.762 1.841 2.594 2.594 0 01-1.836.763zm-30.597 28.364h-15.04a2.601 2.601 0 01-2.598-2.605v-7.746a2.601 2.601 0 012.598-2.605h15.04a2.6 2.6 0 012.597 2.605v7.746a2.6 2.6 0 01-2.597 2.605zm64.081 0h-15.04a2.6 2.6 0 01-1.836-.764 2.613 2.613 0 01-.762-1.841v-7.746c.001-.69.275-1.353.762-1.841a2.6 2.6 0 011.836-.764h15.04a2.6 2.6 0 011.836.764c.487.488.761 1.151.762 1.841v7.746a2.613 2.613 0 01-.762 1.841 2.6 2.6 0 01-1.836.764zm-33.484 0h-15.04a2.6 2.6 0 01-1.836-.764 2.613 2.613 0 01-.762-1.841v-7.746c.001-.69.275-1.353.762-1.841a2.6 2.6 0 011.836-.764h15.04a2.6 2.6 0 011.836.764c.487.488.761 1.151.762 1.841v7.746a2.613 2.613 0 01-.762 1.841 2.6 2.6 0 01-1.836.764z" fill="#CCC"/><path d="M158.991 98.17h-36.566a2.597 2.597 0 01-1.836-.764 2.612 2.612 0 01-.762-1.841v-14.93a2.61 2.61 0 01.762-1.84 2.596 2.596 0 011.836-.764h36.566c.688 0 1.349.275 1.836.763.487.489.761 1.15.762 1.841v14.93a2.612 2.612 0 01-.762 1.84 2.599 2.599 0 01-1.836.764z" fill="#00ABDF"/></svg>