<svg width="311" height="290" fill="none" xmlns="http://www.w3.org/2000/svg"><path d="M110.865 75.858c-5.28 0-9.575 4.296-9.575 9.576v14.989c0 5.28 4.295 9.576 9.575 9.576h14.988c5.281 0 9.576-4.296 9.576-9.576V85.434c0-5.28-4.295-9.576-9.576-9.576h-14.988zm0 42.195c-5.28 0-9.575 4.296-9.575 9.577v14.988c0 5.281 4.295 9.577 9.575 9.577h14.988c5.281 0 9.576-4.296 9.576-9.577V127.63c0-5.281-4.295-9.577-9.576-9.577h-14.988zm0 42.196c-5.28 0-9.575 4.296-9.575 9.576v14.989c0 5.28 4.295 9.576 9.575 9.576h14.988c5.281 0 9.576-4.296 9.576-9.576v-14.989c0-5.28-4.295-9.576-9.576-9.576h-14.988z" fill="#F2F2F2"/><path d="M120.038 37.754c-6.653 0-12.065 5.413-12.065 12.067v18.886c0 6.653 5.412 12.066 12.065 12.066h18.886c6.653 0 12.066-5.413 12.066-12.066V49.82c0-6.654-5.413-12.067-12.066-12.067h-18.886zm62.176 52.78c-6.653 0-12.066 5.412-12.066 12.066v18.886c0 6.654 5.413 12.067 12.066 12.067H201.1c6.653 0 12.065-5.413 12.065-12.067V102.6c0-6.654-5.412-12.066-12.065-12.066h-18.886z" fill="#00ABDF"/><path d="M155.183 280.632l-3.836-.032-1.699-15.144 5.663.047-.128 15.129z" fill="#A0616A"/><path d="M142.894 286.733a1.718 1.718 0 001.701 1.731l7.628.063 1.335-2.707.491 2.721 2.878.026-.727-9.704-1.001-.066-4.085-.282-1.317-.088-.024 2.745-6.127 4.157a1.716 1.716 0 00-.752 1.404z" fill="#2F2E41"/><path d="M174.703 280.632l-3.836-.032-1.699-15.144 5.663.047-.128 15.129z" fill="#A0616A"/><path d="M162.414 286.733a1.718 1.718 0 001.701 1.731l7.628.063 1.336-2.707.49 2.721 2.878.026-.727-9.704-1.001-.066-4.084-.282-1.318-.088-.023 2.745-6.128 4.157a1.716 1.716 0 00-.752 1.404zm-22.286-128.54l15.552.491 14.733 3.274s-1.474 1.801 3.437 6.712c0 0 6.549 11.46 1.965 22.592l-1.965 44.529s5.728 31.39 1.352 41.38l-5.784.361-9.787-41.379-4.77-44.564-2.292 43.874s8.768 30.115 3.231 42.069l-6.264-.361-10.718-41.708s-4.583-48.13-3.929-57.298c.655-9.168 5.239-19.972 5.239-19.972z" fill="#2F2E41"/><path d="M192.354 87.83a3.977 3.977 0 00-2.853 4.846 3.956 3.956 0 001.619 2.29v.006l-.302 7.305 5.59 2.587.447-11.241h-.039a3.976 3.976 0 00-4.462-5.794z" fill="#A0616A"/><path d="M161.11 113.902a6.372 6.372 0 01-1.881-4.458 6.376 6.376 0 013.086-5.59 6.4 6.4 0 017.215.355l17.555 13.218 3.127-19.041 6.716 2.162-1.602 24.794a4.983 4.983 0 01-2.622 4.086 4.981 4.981 0 01-4.856-.055L162.48 114.94a6.51 6.51 0 01-1.37-1.038z" fill="#0079C1"/><path d="M134.344 77.18a3.977 3.977 0 01-1.386 5.45 3.957 3.957 0 01-2.762.486l-.004.004-4.929 5.4-5.791-2.098 7.597-8.298.027.028a3.96 3.96 0 011.798-2.359 3.977 3.977 0 015.45 1.386z" fill="#A0616A"/><path d="M136.473 117.465l-28.177-7.612a4.981 4.981 0 01-3.487-3.379 4.98 4.98 0 011.015-4.748l16.318-18.736 6.291 3.193-11.184 15.724 21.771 2.974a6.398 6.398 0 015.374 4.827 6.374 6.374 0 01-1.744 6.143 6.367 6.367 0 01-6.177 1.614z" fill="#0079C1"/><path d="M176.644 164.743l-39.402 1.808c-1.082-1.643-.789-4.115.726-7.209 5.722-11.684 1.376-33.787-1.547-45.296-.82-3.23 1.382-6.44 4.697-6.772l3.715-.371 3.434-10.484h12.027l4.99 5.701 8.468 5.144c-1.541 15.878-8.109 38.297 1.247 49.541 2.046 2.459 2.627 5.118 1.645 7.938z" fill="#0079C1"/><path d="M152.751 96.662c6.47 0 11.715-5.246 11.715-11.716 0-6.47-5.245-11.715-11.715-11.715s-11.715 5.245-11.715 11.715 5.245 11.716 11.715 11.716z" fill="#A0616A"/><path d="M166.007 77.447c1.63-5.943-16.134-11.039-19.586-6.253-.48-.68-2.254-1.094-3.068-.885-.814.209-1.499.73-2.167 1.236-.918.705-1.87 1.436-2.433 2.45-.568 1.01-.655 2.387.108 3.264.606.697 1.669 4.402 2.579 4.585.635.13 1.169.234 1.628.31.409-.598 1.452-1.348 1.377-2.07.618.41.392 1.129.268 1.865-.415 2.449-9.759 21.41-4.407 15.822.53.314 1.185.606 1.941.873 1.281-1.933 2.333-4.212 3.026-6.596l.005.044c.238 2.072 1.752 3.771 3.755 4.352 8.033 2.327 14.531-1.088 16.766-7.247-.818-1.661-1.175-1.48-1.101-1.53a1.923 1.923 0 012.864.913c.13.34.247.629.349.847 1.165-4.166 2.55-3.565-1.904-11.98z" fill="#2F2E41"/><path d="M160.465 73.135l-.82-4.195c-.069-.353-.135-.735.024-1.058.205-.414.73-.585 1.187-.52.457.067.799.484 1.253.565 1.581.279 3.67-1.282 4.237 2.668.236 1.647 2.864 1.82 3.741 3.234.878 1.413.986 3.454-.212 4.608-.956.923-2.493 1.03-3.735.558-1.242-.471-2.24-1.423-3.111-2.426-.87-1.004-1.659-2.09-2.664-2.96" fill="#2F2E41"/><path d="M166.633 79.516c-3.205-.448-5.39-1.613-6.494-3.465-1.445-2.423-.477-5.091-.435-5.204l.677.252c-.009.025-.886 2.467.383 4.588.987 1.65 2.995 2.698 5.969 3.113l-.1.716zm15.043-45.331c-9.424 0-17.092-7.668-17.092-17.092C164.584 7.668 172.252 0 181.676 0s17.092 7.668 17.092 17.093c0 9.424-7.668 17.092-17.092 17.092zm0-27.348c-5.655 0-10.255 4.6-10.255 10.256 0 5.655 4.6 10.255 10.255 10.255 5.655 0 10.255-4.6 10.255-10.255 0-5.656-4.6-10.256-10.255-10.256z" fill="#00ABDF"/><path d="M207.973 45.801a3.403 3.403 0 01-2.337-.925l-16.042-15.034a3.416 3.416 0 01-.156-4.83 3.41 3.41 0 014.83-.158L210.31 39.89a3.415 3.415 0 01.157 4.83 3.404 3.404 0 01-2.494 1.082z" fill="#00ABDF"/></svg>