<svg width="292" height="90" xmlns="http://www.w3.org/2000/svg" xmlns:xlink="http://www.w3.org/1999/xlink"><defs><path d="M16.212 13.811c-2.564 1.088-5.06 2.528-7.186 4.33-2.99 2.53-5.347 5.676-6.876 9.282C1.478 29.006.815 30.63.5 32.33c-.334 1.816-.08 5.137.692 7.332 1.91-1.608 4.105-3.01 6.256-4.214 10.73-6.011 19.838-12.38 20.802-22.824.005 11.587-9.424 17.344-20.861 24.19-1.95 1.165-3.931 2.493-5.688 3.99l.009.014c-.57.526-1.1 1.052-1.607 1.584.126 1.67.503 3.213 1.023 4.673 1.588-4.692 7.463-8.293 18.097-14.18C37.413 22.863 30.445.104 30.445.104s-2.527 8.74-14.233 13.706z" id="a"/><path d="M.178 18.63a7.177 7.177 0 007.484 6.864 7.182 7.182 0 006.865-7.48C14.26 11.84 8.664 7.348 8.206.106 3.335 4.961-.104 11.91.178 18.631zm2.955-8.49c-1.069 5.083-.678 7.634-.553 9.268-1.36-1.677-.412-7.593.553-9.269z" id="c"/><path id="e" d="M0 .064h290.875v28.349H0z"/><path id="g" d="M0 107.428h290.875V.053H0z"/></defs><g fill="none" fill-rule="evenodd"><path d="M160.063 14.209c-2.564 1.088-5.06 2.528-7.186 4.329-2.99 2.53-5.347 5.677-6.876 9.283-.672 1.583-1.335 3.208-1.65 4.908-.334 1.816-.08 5.136.692 7.332 1.91-1.608 4.105-3.01 6.256-4.214 10.729-6.012 19.838-12.38 20.802-22.825.005 11.587-9.424 17.345-20.862 24.19-1.95 1.166-3.93 2.494-5.687 3.991l.009.014a35.108 35.108 0 00-1.607 1.583c.126 1.67.503 3.213 1.023 4.673 1.588-4.692 7.463-8.293 18.097-14.18 18.19-10.031 11.222-32.79 11.222-32.79s-2.527 8.74-14.233 13.706" fill="#FFF"/><g transform="translate(143.851 .398)"><mask id="b" fill="#fff"><use xlink:href="#a"/></mask><path fill="#FFF" mask="url(#b)" d="M-23.362 24.574l41.339-43.107 42.9 41.14L19.54 65.714z"/></g><path d="M134.921 62.334a7.178 7.178 0 007.485 6.864 7.181 7.181 0 006.865-7.481c-.267-6.174-5.863-10.664-6.321-17.906-4.872 4.854-8.311 11.803-8.029 18.523m2.955-8.491c-1.068 5.084-.677 7.635-.552 9.269-1.36-1.678-.413-7.593.552-9.27" fill="#FFF"/><g transform="translate(134.744 43.704)"><mask id="d" fill="#fff"><use xlink:href="#c"/></mask><path fill="#FFF" mask="url(#d)" d="M-.105 25.67h14.802V.106H-.105z"/></g><g transform="translate(.923 -18.188)"><g transform="translate(0 60.22)"><mask id="f" fill="#fff"><use xlink:href="#e"/></mask><path d="M17.964 21.29c0 4.594.553 5.377 4.366 5.377v.963H9.925v-.963c3.813 0 4.364-.783 4.364-5.377v-4.457L6.663 5.026C4.687 1.994 3.263 1.03 0 1.03V.064h13.094v.965c-3.858 0-3.858 1.38-2.48 3.492l6.615 10.108L23.937 4.52c1.61-2.481 1.38-3.492-2.48-3.492V.064h10.75v.965c-3.86 0-4.823 1.286-6.66 3.997l-7.583 11.486v4.778zm20.967 7.123c-6.156 0-11.208-4.826-11.208-10.752 0-5.835 5.052-10.706 11.208-10.706 6.157 0 11.211 4.871 11.211 10.706 0 5.926-5.054 10.752-11.211 10.752zm0-19.712c-5.42 0-7.443 5.008-7.443 8.96 0 3.998 2.022 8.958 7.443 8.958 5.422 0 7.444-4.96 7.444-8.958 0-3.952-2.022-8.96-7.444-8.96zm25.794 17.643c3.216 0 5.606-1.838 5.606-5.835v-6.522c0-4.596-.553-5.332-3.63-5.332v-.92h9.372v.92c-3.03 0-3.629.736-3.629 5.332v6.2c0 5.378-3.722 8.178-8.225 8.178s-8.177-2.8-8.177-8.179v-6.2c0-4.595-.551-5.33-3.63-5.33v-.92h10.52v.92c-3.03 0-3.628.735-3.628 5.33v6.523c0 3.997 2.206 5.835 5.42 5.835zM79.139 8.655v-.92h5.652l12.22 14.52v-8.268c0-4.596-.55-5.332-3.629-5.332v-.92h8.959v.92c-3.08 0-3.63.736-3.63 5.332v14.378h-.873L84.468 12.33v9.006c0 4.596.553 5.375 3.629 5.375v.92h-8.958v-.92c3.077 0 3.629-.78 3.629-5.375v-7.35c0-4.595-.552-5.33-3.63-5.33zm35.257 19.758c-5.743 0-10.383-4.826-10.383-10.752 0-5.835 4.64-10.706 10.383-10.706 2.206 0 4.686 1.286 6.065 3.034.321-.369.642-1.518.826-2.253h.874v7.95h-.92c-.871-4.274-3.307-6.985-6.845-6.985-5.145 0-6.754 5.101-6.754 8.96 0 3.904 1.61 8.958 6.754 8.958 2.297 0 5.835-1.423 5.835-3.904 0-1.837-1.7-2.803-3.95-2.803v-.92h10.152v.92c-3.078 0-3.63.781-3.63 5.374v1.38c-2.895 0-5.743 1.747-8.407 1.747zm43.814-1.746c3.814 0 4.365-.783 4.365-5.377V6.358c0-4.594-.551-5.329-4.365-5.329V.064h12.405v.965c-3.813 0-4.366.735-4.366 5.33V20.6c0 4.596.553 5.332 4.366 5.332h1.894c4.182 0 4.687-1.059 5.284-3.494l.23-.918h.963l-.367 6.11H158.21v-.963zm23.77.963v-.92c3.078 0 3.628-.778 3.628-5.374v-7.35c0-4.595-.55-5.33-3.628-5.33v-.92h10.52v.92c-3.077 0-3.63.735-3.63 5.33v7.35c0 4.596.553 5.375 3.63 5.375v.92h-10.52zm31.73-14.932l-6.8 15.715h-.598l-6.798-15.715c-1.47-3.49-2.068-4.043-4.458-4.043v-.92h10.292v.92c-3.308 0-3.629.827-2.48 3.492l4.686 10.843 4.64-10.843c1.195-2.71 1.195-3.492-2.436-3.492v-.92h8.64v.92c-2.805 0-3.22.553-4.688 4.043zm7.402 14.932v-.92c3.08 0 3.63-.778 3.63-5.374v-7.35c0-4.595-.55-5.33-3.63-5.33v-.92h10.522v.92c-3.078 0-3.63.735-3.63 5.33v7.35c0 4.596.552 5.375 3.63 5.375v.92h-10.522zm14.433-18.975v-.92h5.65l12.223 14.52v-8.268c0-4.596-.551-5.332-3.63-5.332v-.92h8.96v.92c-3.08 0-3.631.736-3.631 5.332v14.378h-.872l-13.37-16.035v9.006c0 4.596.553 5.375 3.629 5.375v.92h-8.959v-.92c3.078 0 3.63-.78 3.63-5.375v-7.35c0-4.595-.552-5.33-3.63-5.33zm35.258 19.758c-5.743 0-10.383-4.826-10.383-10.752 0-5.835 4.64-10.706 10.383-10.706 2.206 0 4.685 1.286 6.065 3.034.32-.369.644-1.518.826-2.253h.874v7.95h-.92c-.872-4.274-3.307-6.985-6.845-6.985-5.147 0-6.754 5.101-6.754 8.96 0 3.904 1.607 8.958 6.754 8.958 2.297 0 5.835-1.423 5.835-3.904 0-1.837-1.699-2.803-3.952-2.803v-.92h10.155v.92c-3.08 0-3.63.781-3.63 5.374v1.38c-2.894 0-5.743 1.747-8.408 1.747zm11.538-20.8h3.23v.335h-1.42v3.782h-.387V7.948h-1.423v-.335zm4.58 0h.57l1.41 3.61 1.405-3.61h.569v4.117h-.387V8.173h-.012l-1.391 3.557h-.367l-1.397-3.557h-.012v3.557h-.388V7.613z" fill="#FFF" mask="url(#f)"/></g><path fill="#FFF" d="M69.29 99.315h4.973v.872H70.23v2.482h3.766v.87H70.23v2.816h4.234v.873H69.29zm15.413 1.397c-.313-.502-.872-.726-1.443-.726-.828 0-1.686.391-1.686 1.33 0 .726.402 1.05 1.665 1.453 1.229.391 2.367.793 2.367 2.346 0 1.576-1.35 2.313-2.781 2.313-.918 0-1.9-.302-2.437-1.095l.805-.66c.335.58 1.006.883 1.688.883.804 0 1.72-.469 1.72-1.374 0-.972-.658-1.14-2.067-1.61-1.118-.368-1.967-.86-1.967-2.179 0-1.52 1.309-2.28 2.693-2.28.883 0 1.632.246 2.215.929l-.772.67zm11.242 0c-.314-.502-.87-.726-1.44-.726-.829 0-1.689.391-1.689 1.33 0 .726.404 1.05 1.667 1.453 1.229.391 2.367.793 2.367 2.346 0 1.576-1.35 2.313-2.783 2.313-.917 0-1.898-.302-2.435-1.095l.805-.66c.334.58 1.006.883 1.686.883.806 0 1.722-.469 1.722-1.374 0-.972-.66-1.14-2.067-1.61-1.118-.368-1.967-.86-1.967-2.179 0-1.52 1.307-2.28 2.693-2.28.883 0 1.63.246 2.212.929l-.77.67zm7.489-1.397h4.973v.872h-4.034v2.482h3.766v.87h-3.766v2.816h4.236v.873h-5.175zm11.659 0h1.184l4.58 6.57h.023v-6.57h.939v7.913h-1.186l-4.579-6.572h-.024v6.572h-.937zm19.032.872h-2.615v7.04h-.939v-7.04h-2.615v-.872h6.169z"/><mask id="h" fill="#fff"><use xlink:href="#g"/></mask><path fill="#FFF" mask="url(#h)" d="M140.261 107.228h.941v-7.913h-.94zm10.506-7.913h.883l3.362 7.913h-1.093l-.804-1.946h-3.957l-.816 1.946h-1.062l3.487-7.913zm.425 1.208h-.023l-1.643 3.888h3.231l-1.565-3.888zm9.903-1.208h.939v7.04h3.62v.873h-4.559zm18.297 3.956c0-2.392 1.73-4.157 4.134-4.157 2.402 0 4.134 1.765 4.134 4.157 0 2.392-1.732 4.157-4.134 4.157-2.404 0-4.134-1.765-4.134-4.157m7.263 0c0-1.821-1.274-3.285-3.13-3.285-1.854 0-3.128 1.464-3.128 3.285 0 1.822 1.274 3.285 3.129 3.285s3.129-1.463 3.129-3.285m7.545 3.957h.941v-7.913h-.94zm7.936-7.913h.94v7.04h3.62v.873h-4.56zm14.372 1.397c-.312-.502-.872-.726-1.44-.726-.827 0-1.688.391-1.688 1.33 0 .726.401 1.05 1.665 1.453 1.23.391 2.369.793 2.369 2.346 0 1.576-1.353 2.313-2.783 2.313-.916 0-1.899-.302-2.436-1.095l.804-.66c.337.58 1.007.883 1.688.883.805 0 1.721-.469 1.721-1.374 0-.972-.66-1.14-2.067-1.61-1.118-.368-1.967-.86-1.967-2.179 0-1.52 1.307-2.28 2.694-2.28.882 0 1.63.246 2.21.929l-.77.67z"/></g></g></svg>