<svg version="1.1" id="Layer_1" xmlns="http://www.w3.org/2000/svg" x="0" y="0" viewBox="0 0 192.7 44" xml:space="preserve"><style>.st0{fill:#fff}</style><path class="st0" d="M9.1.6c2.8 0 5.8 1.6 5.8 6 0 1-.1 1.9-.4 2.9h-12C2.8 4 5.4.6 9.1.6m5.7 9.4c.6-1.1.8-2.3.7-3.5.2-3.4-2.3-6.3-5.7-6.5h-.7C2.4 0 0 5.5 0 10.7c0 6.5 3.6 10.5 9.3 10.5 4.1 0 5.8-2.1 5.9-2.2l.1-.1-.3-.3-.1.1c-1.5 1.3-3.5 2-5.5 1.9-6.1 0-6.8-7.1-6.8-10.2V10h12.2z" transform="translate(35.415 22.816)"/><path class="st0" d="M18.2 6c0-3.9-2.2-6-6.4-6C9 .1 6.5 1.7 5.2 4.2V2.5C5.2 1.2 4.5.4 3.5.4H0V1h2.6v19.3H0v.6h7.9v-.6H5.2V5.4C5.7 4.1 7.9.6 11.9.6c2.6 0 3.8 1.7 3.8 5.5v12.6c0 1.3.7 2.1 1.7 2.1h3.5v-.6h-2.6L18.2 6z" transform="translate(52.533 22.817)"/><path class="st0" d="M9.1.6c2.8 0 5.8 1.6 5.8 6 0 1-.1 1.9-.4 2.9h-12C2.8 4 5.4.6 9.1.6m5.7 9.4c.6-1.1.8-2.3.7-3.5.2-3.4-2.3-6.3-5.7-6.5h-.7C2.4 0 0 5.5 0 10.7c0 6.5 3.6 10.5 9.3 10.5 4.1 0 5.8-2.1 5.9-2.2l.1-.1-.3-.3-.1.1c-1.5 1.3-3.5 2-5.5 1.9-6.1 0-6.8-7.1-6.8-10.2V10h12.2z" transform="translate(74.482 22.816)"/><path class="st0" d="M18.7 17.6h-3.5v.6h2.4v8.2c-1.7.8-3.6 1.2-5.5 1.1-5.9 0-9.3-4.7-9.3-13C2.8 6.3 6.5.6 11.7.6c4.9 0 7.7 2.2 7.7 5.9 0 .9-.3 1.8-.7 2.7l-.1.2h.6v-.1c.5-.8.8-1.8.8-2.8.1-4.1-3-6.5-8.2-6.5-3.5-.1-6.9 1.5-9 4.3-2 3-3 6.5-2.8 10.1C0 22.8 4.6 28 12 28c5.4 0 8.1-2.6 8.1-2.6v-6.2c.1-.8-.1-1.6-1.4-1.6" transform="translate(92.371 15.982)"/><path class="st0" d="M9.1.6c2.8 0 5.8 1.6 5.8 6 .1 1-.1 1.9-.4 2.9h-12C2.8 4 5.4.6 9.1.6m5.7 9.4c.6-1.1.8-2.3.7-3.5.2-3.4-2.3-6.3-5.7-6.5h-.7C2.4 0 0 5.5 0 10.7c0 6.5 3.6 10.5 9.3 10.5 4.1 0 5.8-2.1 5.9-2.2l.1-.1-.3-.3-.1.1c-1.5 1.3-3.5 2-5.5 1.9-6.1 0-6.8-7.1-6.8-10.2V10h12.2z" transform="translate(115.394 22.816)"/><path class="st0" d="M18.2 6c0-3.9-2.2-6-6.4-6C9 .1 6.5 1.7 5.2 4.2V2.5C5.2 1.2 4.5.4 3.5.4H0V1h2.6v19.3H0v.6h7.9v-.6H5.2V5.4C5.7 4.1 7.9.6 11.9.6c2.6 0 3.8 1.7 3.8 5.5v12.6c0 1.3.7 2.1 1.7 2.1h3.5v-.6h-2.6L18.2 6z" transform="translate(132.512 22.817)"/><path class="st0" d="M14.3 7.2h.6v-.1c.4-.7.6-1.4.5-2.1 0-3.2-2.3-5-6.4-5-6.6 0-9 5.5-9 10.7 0 6.5 3.6 10.5 9.3 10.5 4.1 0 5.8-2.1 5.9-2.2l.1-.1-.4-.3-.1.1s-1.6 1.9-5.4 1.9c-5.9 0-6.8-6.2-6.8-9.8C2.6 4.8 5.3.6 9.1.6c3.7 0 5.8 1.6 5.8 4.5 0 .7-.2 1.4-.5 2l-.1.1z" transform="translate(154.428 22.817)"/><path class="st0" d="M9.1.6c2.8 0 5.8 1.6 5.8 6 .1 1-.1 1.9-.4 2.9h-12C2.8 4 5.4.6 9.1.6m5.7 18.1c-1.5 1.3-3.5 2-5.5 1.9-6.1 0-6.8-7.1-6.8-10.2V10h12.2c.6-1 .8-2.2.7-3.4.2-3.4-2.3-6.3-5.7-6.5-.2-.1-.4-.1-.6-.1C2.4 0 0 5.5 0 10.7c0 6.5 3.6 10.5 9.3 10.5 4.1 0 5.8-2.1 5.9-2.2l.1-.1-.5-.2z" transform="translate(171.751 22.816)"/><path class="st0" d="M31.4 32.3c0 6.9-7 11.7-16 11.7C7.4 44 .2 39.1 0 30.6h.7c.2 7.2 5.9 12.9 14.7 12.9 3.2 0 7.3-1 9.9-3.6 1.6-1.9 1.6-4.6.1-6.5 0 0-3.7-7.2-11.4-5.2-2.1.6-4.1 1.3-6 2.1 0 0-3 .9-2.6-1.7 0-.8-.5-1.4-1.3-1.6 0 0-.3.2-.4-.6 0 0-.1-.6.4-.7-.1 0-1.4 0-1.4-1 0 0 .7-.9.3-1.6-.3-.5-.8-.9-1.4-.8-.1.1-1.2-.2-.9-1 .1-.4.3-.8.6-1.1.9-1 1.2-2.5.7-3.7 0 0-1.2-3.4-.9-5.7.1-1.2.5-2.4 1-3.5C4.3 1.8 11.3 0 16 0c8.1 0 13.9 3.7 13.9 10.4v.1h-.5v-.1c0-5.8-5-9.8-13.4-9.8-5 0-10.9 2.3-10.9 8.8 0 12.2 26.3 10.1 26.3 22.9"/><path class="st0" d="M3.4 5.3c-.7-.6-1.2-1.3-1.8-2-.1-.1-.3-.2-.5-.3-.3-.1-.7-.2-1-.1-.1-.5-.1-1-.1-1.5S.1.5.4.1C.5 0 .5 0 .6 0c0 .1.1.1.2.2C2 .8 2.3 2.3 2.7 3.5l.3.9c.1.2.2.3.3.5 0 .1.1.2.1.2v.2" transform="translate(23.349 9.099)"/><path class="st0" d="M3.8 2.4c.1.1-.3.5-.4.5-.1.2-.3.5-.5.8-.1.3-.2.6-.4.9-.1-.1-.2-.3-.2-.4-.1-.2-.1-.3-.2-.5l-.3-.9C1.6 1.7 1 .7 0 .1h.4c.2-.1.4-.1.6 0 .6.2 1.2.5 1.7 1 .4.3.8.8 1.1 1.3" transform="translate(24.273 9.052)"/><path class="st0" d="M8 3.8c-.1.2-.4.2-.6.2-.9.5-1.6 1.1-2.2 1.9-.2.2-.4.3-.6.5-.3.2-.7.3-1.1.1-.5-.1-1-.3-1.4-.6-.4-.2-.8-.4-1.2-.7-.3-.2-.5-.5-.7-.8-.2-.3-.2-.6-.2-.9.1-.4.3-.8.4-1.1.1-.3.3-.7.5-1C1.3.9 1.8.6 2.4.3 2.9 0 3.6-.1 4.1.1c.3.2.5.5.7.7.4.5.8.9 1.2 1.3.3.2.5.4.7.7.2.3.3.6.6.7-.1-.1-.4 0-.5 0-1.1.1-2.1 0-3.2-.2-.7-.3-1.5-.4-2.3-.4-.2.1-.3.2-.5.3-.1 0-.1.1-.2.2 0 .1 0 .2.1.1 0 0 .1 0 .1-.1.2-.1.4-.2.6-.2.6 0 1.3.1 1.8.4 1.5.3 3 .4 4.4.2.1-.1.4-.1.4 0" transform="translate(20.277 12.227)"/><path class="st0" d="M5 2.7c0 .8-.1 1.6-.4 2.3-.3.6-.7 1.2-1.2 1.7-.3.2-.6.4-.9.5-.1.1-.3.2-.5.2-.1 0-.2-.1-.3-.1h-.3c-.5 0-.8-.6-.9-1-.2-.5-.3-.9-.4-1.4C0 4.2 0 3.4.1 2.7c0-.1.1-.3.1-.4.4-.9 1.1-1.6 2-2 .3-.2.7-.3 1-.2.2.1.1.5.1.6 0 .4 0 .9-.1 1.3-.2 1.3-.7 2.5-1 3.8 0 .3-.1.6-.2.9 0 .1-.2.5 0 .4.1 0 .1-.2.2-.3.1-.2.1-.4.1-.6.2-.9.5-1.7.8-2.5.2-.7.3-1.3.4-1.9 0-.5.1-1 0-1.4 0 0-.1-.4.1-.3.1 0 .1.2.2.3.1.1.4.3.5.6.3.5.6 1.1.7 1.7" transform="translate(25.526 16.291)"/><path class="st0" d="M6.9 4.4c0 .2-.1.4-.1.5-.2.4-.4.6-.7.8-.6.4-1.2.6-1.8.7h-1c-.9-.1-1.7-.7-2-1.5 0-.2 0-.4-.1-.6-.1-.3-.2-.6-.4-.9C.5 3 .3 2.5 0 2.1c.1 0 .3 0 .4.1.6.2 1.3.4 1.9.6.5.2.9.3 1.4.4.7.2 1.4.2 2.1.4.2.1.2-.1.1-.1 0 0-.1 0-.3-.1-.6-.2-1.3-.3-2-.5-.3-.1-.7-.2-1-.3l-.9-.3c-.2 0-.5-.1-.7-.2.2 0 .5 0 .7-.1 1.2-.1 2.4-.6 3.4-1.3.2-.2.5-.5.6-.7l.3.3c.5.5.8 1 1.1 1.7.1.5.1 1.2-.1 1.7-.1.3-.1.5-.1.7" transform="translate(29.527 13.991)"/><path class="st0" d="M0 1.3C.6.8 1.4.5 2.1.3c.5-.2 1-.3 1.5-.3h.8c.1 0 .3 0 .4.1.1 0 .2.1.2.1-.1 0-.2.1-.3.1-.7.3-1.4.8-2 1.3-.7.6-1.3 1.3-2 1.8l-.2.2v-.4C.4 2.5.3 1.9 0 1.3" transform="translate(30.77 10.51)"/><path class="st0" d="M5.5 0c.1 0 .1 0 0 0v.8c-.1 1.1-.6 2-1.4 2.7-.9.8-2 1.2-3.1 1.3-.3.1-.7.2-1 .1.1 0 .5-.5.5-.5.1-.1.2-.2.3-.4 0-.2.1-.3.1-.4.1-.2.4-.3.5-.4.4-.3.7-.6 1.1-1 .5-.4.9-.9 1.5-1.3.2-.2.5-.4.8-.5.2-.1.5-.2.7-.4" transform="translate(30.406 10.835)"/><path class="st0" d="M4 3.6c0 .3-.1.6-.3.9-.3.3-.5.5-.9.6-.3 0-.1-.1 0-.3.1-.1.2-.3.2-.5.1-.3.1-.6-.1-.8-.1-.2-.3-.2-.5-.1l-.1.1c-.1.2 0 .4-.2.6 0-.1-.4 0-.5 0 0-.3.1-.6-.1-.8-.1-.2-.4-.2-.5 0-.2.2-.3.5-.3.7 0 .1.2.8.1.8-.4.2-.7-1-.8-1.1 0-.3 0-.6.1-.8.3-.6.6-1.2.9-1.6C1.4.9 2.3-.4 3 .1c.1.1.2.2.2.3.2.6.4 1.1.6 1.7.2.5.2 1 .2 1.5" transform="translate(26.999 10.647)"/><path class="st0" d="M1 .5C1 .6 1 .6.9.7.9.8.8.8.7.8.7.8.7.9.6 1s-.2.1-.3.1C.1 1 .2.9.1.8.1.8.1.7 0 .7 0 .5-.1.2.1.1.2.1.3.1.4 0c.1 0 .2-.1.2 0 .1.1.3.2.4.3v.2" transform="translate(28.359 14.991)"/><path class="st0" d="M2 2.5h.8c.1 0 .2 0 .3-.1.1 0 .1-.1.2-.2s.1-.2.1-.3c0-.1 0-.2-.1-.2 0-.1-.1-.1-.2-.2H2v1zm0 1.6h-.3v-3h1.2c.3 0 .5.1.7.2.2.2.2.4.2.6 0 .1 0 .2-.1.4 0 .1-.1.2-.2.3 0 0-.1.1-.2.1-.1.1-.2.1-.3.1l.9 1.3h-.4l-.9-1.3H2v1.3zM.4 2.6c0 .3.1.6.2.9.1.3.2.5.4.7.2.2.4.4.7.5.3.1.6.2.9.2.3 0 .6-.1.9-.2.3-.1.5-.3.7-.5.2-.2.4-.4.5-.7.1-.3.2-.6.2-.9 0-.3-.1-.6-.2-.9-.1-.2-.3-.5-.5-.7C4 .8 3.8.7 3.5.6 3.2.4 2.9.4 2.6.4c-.3 0-.6 0-.9.2-.2.1-.5.2-.7.4-.2.2-.3.5-.4.7-.2.3-.2.6-.2.9m-.4 0c0-.4.1-.7.2-1 .1-.3.3-.6.6-.8.2-.3.5-.5.8-.6.3-.1.7-.2 1-.2.4 0 .7.1 1 .2.4.1.6.3.9.6.2.2.4.5.5.8.1.3.2.7.2 1 0 .4-.1.7-.2 1-.1.4-.3.6-.5.9-.3.2-.5.4-.9.5-.3.2-.6.2-1 .2s-.7-.1-1-.2c-.3-.1-.6-.3-.8-.5-.3-.3-.5-.5-.6-.9-.1-.3-.2-.6-.2-1" transform="translate(187.428 21.032)"/></svg>