<svg width="360" height="180" xmlns="http://www.w3.org/2000/svg"><g fill="#FFFFFE" fill-rule="evenodd"><path d="M14.329 144.105h333.344v-.971H14.329zm32.384 17.161c-1.099 0-1.925.386-2.478 1.157-.552.772-.829 1.894-.829 3.362 0 2.853 1.109 4.279 3.325 4.279 1.136 0 1.97-.33 2.501-.99.531-.661.796-1.751.796-3.27v-.157c0-1.556-.261-2.675-.782-3.357-.522-.683-1.366-1.024-2.533-1.024zm0-.833c.728 0 1.358.133 1.889.398.531.265 1.006.719 1.426 1.361h.056a48.152 48.152 0 01-.056-2.287v-3.622h.908v14.411h-.602l-.232-1.538h-.074c-.766 1.149-1.864 1.723-3.297 1.723-1.389 0-2.451-.432-3.186-1.296-.735-.865-1.102-2.124-1.102-3.779 0-1.741.365-3.071 1.093-3.991.729-.92 1.787-1.38 3.177-1.38zm11.4.815c-.969 0-1.747.319-2.333.958-.587.639-.93 1.56-1.029 2.764h6.224c0-1.166-.253-2.079-.759-2.736-.507-.657-1.207-.986-2.103-.986zm.269 9.631c-1.463 0-2.604-.451-3.422-1.352-.818-.901-1.227-2.164-1.227-3.788 0-1.605.395-2.89 1.185-3.857.791-.966 1.855-1.449 3.195-1.449 1.186 0 2.121.413 2.807 1.24.685.828 1.027 1.952 1.027 3.372v.74h-7.251c.012 1.384.335 2.439.967 3.168.633.729 1.54 1.093 2.719 1.093.574 0 1.079-.04 1.514-.121.435-.079.986-.253 1.653-.519v.834a7.35 7.35 0 01-1.574.505 8.704 8.704 0 01-1.593.134zm6.344-.185h.917v-14.411h-.917zm5.084-10.067v6.52c0 1.013.213 1.749.64 2.209.425.46 1.086.69 1.981.69 1.198 0 2.079-.303 2.644-.907.565-.606.848-1.59.848-2.955v-5.557h.907v10.067h-.778l-.166-1.389h-.056c-.655 1.049-1.818 1.574-3.491 1.574-2.291 0-3.436-1.226-3.436-3.676v-6.576h.907m12.864 4.89l-3.51-4.89h1.056l3.001 4.242 2.972-4.242h1.01l-3.455 4.89 3.705 5.177h-1.065l-3.167-4.491-3.186 4.491h-1.01l3.649-5.177m10.771-4.269c-.969 0-1.748.319-2.334.958-.587.639-.929 1.56-1.028 2.764h6.224c0-1.166-.254-2.079-.76-2.736s-1.207-.986-2.102-.986zm.269 9.631c-1.464 0-2.604-.451-3.422-1.352-.819-.901-1.228-2.164-1.228-3.788 0-1.605.396-2.89 1.186-3.857.79-.966 1.855-1.449 3.195-1.449 1.185 0 2.121.413 2.806 1.24.685.828 1.028 1.952 1.028 3.372v.74h-7.252c.013 1.384.335 2.439.968 3.168.633.729 1.539 1.093 2.719 1.093.574 0 1.078-.04 1.514-.121.435-.079.986-.253 1.653-.519v.834a7.358 7.358 0 01-1.575.505 8.685 8.685 0 01-1.592.134zm13.929-.815c.58 0 1.086-.049 1.518-.148v.741c-.444.148-.957.222-1.537.222-.889 0-1.545-.237-1.968-.713-.423-.475-.634-1.222-.634-2.241v-6.502h-1.491v-.536l1.491-.418.463-2.278h.472v2.436h2.954v.796h-2.954v6.373c0 .771.136 1.343.407 1.713.272.37.698.555 1.279.555m7.492-8.816c-.969 0-1.747.319-2.334.958-.586.639-.929 1.56-1.028 2.764h6.224c0-1.166-.253-2.079-.76-2.736-.506-.657-1.207-.986-2.102-.986zm.269 9.631c-1.464 0-2.604-.451-3.422-1.352-.819-.901-1.228-2.164-1.228-3.788 0-1.605.396-2.89 1.186-3.857.79-.966 1.855-1.449 3.195-1.449 1.186 0 2.121.413 2.806 1.24.686.828 1.028 1.952 1.028 3.372v.74h-7.251c.012 1.384.334 2.439.967 3.168.633.729 1.539 1.093 2.719 1.093.574 0 1.079-.04 1.514-.121.435-.079.986-.253 1.653-.519v.834a7.34 7.34 0 01-1.575.505 8.685 8.685 0 01-1.592.134zm10.363 0c-1.439 0-2.565-.454-3.38-1.361-.815-.908-1.223-2.173-1.223-3.798 0-1.666.423-2.964 1.269-3.893.846-.929 2.003-1.394 3.473-1.394.87 0 1.704.151 2.501.454l-.25.815c-.871-.291-1.627-.436-2.27-.436-1.235 0-2.17.382-2.806 1.144-.636.763-.954 1.86-.954 3.293 0 1.357.318 2.421.954 3.189.636.769 1.525 1.154 2.668 1.154.913 0 1.762-.164 2.546-.491v.852c-.642.315-1.485.472-2.528.472m12.012-.185v-6.529c0-1.013-.213-1.749-.639-2.209-.426-.46-1.087-.69-1.982-.69-1.204 0-2.085.304-2.644.912-.559.609-.838 1.595-.838 2.96v5.556h-.917v-14.411h.917v4.585l-.047 1.288h.065c.377-.606.852-1.044 1.426-1.316.575-.271 1.288-.407 2.14-.407 2.284 0 3.427 1.226 3.427 3.676v6.585h-.908m11.187 0v-6.529c0-1.013-.213-1.749-.639-2.209-.426-.46-1.086-.69-1.982-.69-1.204 0-2.085.304-2.644.912-.558.609-.838 1.595-.838 2.96v5.556h-.917v-10.067h.778l.176 1.38h.056c.654-1.049 1.818-1.574 3.491-1.574 2.285 0 3.427 1.226 3.427 3.676v6.585h-.908m4.168 0h.917v-10.067h-.917v10.067zm-.13-12.864c0-.593.195-.889.584-.889a.52.52 0 01.449.232c.108.154.162.373.162.657 0 .278-.054.497-.162.657a.513.513 0 01-.449.242c-.389 0-.584-.3-.584-.899zm8.437 13.049c-1.439 0-2.565-.454-3.38-1.361-.815-.908-1.223-2.173-1.223-3.798 0-1.666.423-2.964 1.269-3.893.846-.929 2.004-1.394 3.473-1.394.871 0 1.704.151 2.501.454l-.25.815c-.871-.291-1.627-.436-2.269-.436-1.235 0-2.171.382-2.806 1.144-.636.763-.954 1.86-.954 3.293 0 1.357.318 2.421.954 3.189.635.769 1.524 1.154 2.667 1.154.914 0 1.762-.164 2.546-.491v.852c-.642.315-1.484.472-2.528.472m5.372-5.232c0 1.383.304 2.462.912 3.237.608.774 1.468 1.162 2.579 1.162 1.112 0 1.971-.388 2.579-1.162.609-.775.913-1.854.913-3.237 0-1.389-.308-2.466-.922-3.232-.614-.766-1.477-1.149-2.588-1.149-1.112 0-1.968.382-2.57 1.144-.602.763-.903 1.842-.903 3.237zm7.946 0c0 1.642-.398 2.925-1.195 3.848-.796.922-1.895 1.384-3.297 1.384-.883 0-1.661-.213-2.333-.639-.673-.426-1.189-1.037-1.547-1.834-.359-.796-.537-1.716-.537-2.759 0-1.642.398-2.922 1.194-3.839.797-.917 1.89-1.375 3.279-1.375 1.383 0 2.468.465 3.255 1.394.787.929 1.181 2.202 1.181 3.82zm2.788 5.047h.917v-14.411h-.917zm4.668-5.047c0 1.383.303 2.462.912 3.237.608.774 1.468 1.162 2.579 1.162 1.111 0 1.971-.388 2.579-1.162.608-.775.913-1.854.913-3.237 0-1.389-.308-2.466-.922-3.232-.614-.766-1.477-1.149-2.589-1.149-1.111 0-1.968.382-2.57 1.144-.602.763-.902 1.842-.902 3.237zm7.945 0c0 1.642-.398 2.925-1.194 3.848-.797.922-1.895 1.384-3.297 1.384-.883 0-1.661-.213-2.334-.639-.673-.426-1.188-1.037-1.547-1.834-.358-.796-.537-1.716-.537-2.759 0-1.642.399-2.922 1.195-3.839.796-.917 1.889-1.375 3.278-1.375 1.383 0 2.468.465 3.256 1.394.787.929 1.18 2.202 1.18 3.82zm6.752-5.214c.426 0 .883.043 1.371.13l-.177.879a5.404 5.404 0 00-1.305-.158c-.859 0-1.563.365-2.112 1.093-.549.729-.824 1.649-.824 2.761v5.556h-.917v-10.067h.778l.092 1.815h.065c.414-.74.855-1.261 1.325-1.56.469-.299 1.037-.449 1.704-.449m12.03.833c-1.099 0-1.924.386-2.477 1.157-.553.772-.829 1.894-.829 3.362 0 2.853 1.108 4.279 3.325 4.279 1.136 0 1.969-.33 2.501-.99.53-.661.796-1.751.796-3.27v-.157c0-1.556-.261-2.675-.783-3.357-.522-.683-1.366-1.024-2.533-1.024zm0-.833c.729 0 1.359.133 1.89.398.53.265 1.006.719 1.426 1.361h.055a48.133 48.133 0 01-.055-2.287v-3.622h.908v14.411h-.603l-.231-1.538h-.074c-.766 1.149-1.865 1.723-3.297 1.723-1.389 0-2.452-.432-3.186-1.296-.735-.865-1.102-2.124-1.102-3.779 0-1.741.364-3.071 1.093-3.991.728-.92 1.787-1.38 3.176-1.38zm7.603 10.261h.918v-10.067h-.918v10.067zm-.129-12.864c0-.593.194-.889.583-.889.192 0 .342.078.449.232.108.154.163.373.163.657 0 .278-.055.497-.163.657a.51.51 0 01-.449.242c-.389 0-.583-.3-.583-.899zm4.89 5.936c0 .779.236 1.383.708 1.812.472.428 1.103.643 1.894.643.84 0 1.483-.213 1.931-.639.447-.426.671-1.044.671-1.852 0-.859-.23-1.502-.689-1.932-.461-.428-1.104-.643-1.932-.643-.802 0-1.433.23-1.894.69-.46.46-.689 1.1-.689 1.921zm-.769 8.632c0 1.383 1.028 2.074 3.084 2.074 2.643 0 3.964-.842 3.964-2.528 0-.605-.207-1.043-.621-1.315-.414-.272-1.083-.408-2.01-.408h-1.648c-1.846 0-2.769.726-2.769 2.177zm8.15-11.771v.639l-2.084.13c.556.692.833 1.451.833 2.278 0 .969-.322 1.755-.967 2.357-.645.602-1.512.903-2.598.903-.457 0-.778-.018-.963-.056-.365.192-.642.418-.834.677a1.364 1.364 0 00-.287.824c0 .321.122.556.366.703.244.149.653.223 1.227.223h1.76c1.092 0 1.929.221 2.51.662.58.442.87 1.094.87 1.959 0 1.062-.431 1.881-1.292 2.459-.861.577-2.088.865-3.681.865-1.266 0-2.246-.243-2.941-.731-.694-.488-1.042-1.167-1.042-2.037 0-.692.215-1.266.644-1.723.429-.457 1.011-.769 1.746-.935a1.774 1.774 0 01-.727-.552 1.308 1.308 0 01-.273-.819c0-.673.429-1.266 1.287-1.779a2.864 2.864 0 01-1.371-1.134c-.327-.515-.49-1.106-.49-1.774 0-1.006.319-1.813.958-2.421.639-.608 1.502-.912 2.589-.912.66 0 1.173.065 1.537.194h3.223zm2.065 10.067h.917v-10.067h-.917v10.067zm-.13-12.864c0-.593.195-.889.584-.889a.52.52 0 01.449.232c.108.154.163.373.163.657 0 .278-.055.497-.163.657a.513.513 0 01-.449.242c-.389 0-.584-.3-.584-.899zm7.076 12.234c.58 0 1.086-.049 1.519-.148v.741c-.444.148-.957.222-1.537.222-.889 0-1.546-.237-1.968-.713-.424-.475-.635-1.222-.635-2.241v-6.502h-1.491v-.536l1.491-.418.463-2.278h.472v2.436h2.954v.796h-2.954v6.373c0 .771.136 1.343.408 1.713.271.37.698.555 1.278.555m6.103-.018c1.075 0 1.922-.307 2.542-.921.621-.615.931-1.469.931-2.562v-.99l-1.76.074c-1.413.068-2.421.288-3.023.662-.602.373-.903.955-.903 1.746 0 .63.193 1.119.578 1.467.386.349.932.524 1.635.524zm3.705.648l-.232-1.593h-.074c-.506.649-1.026 1.107-1.561 1.375-.533.269-1.165.403-1.894.403-.987 0-1.756-.253-2.305-.759-.55-.506-.824-1.207-.824-2.103 0-.981.408-1.743 1.226-2.287.818-.543 2.003-.831 3.552-.861l1.917-.056v-.667c0-.957-.194-1.679-.583-2.167-.39-.488-1.016-.731-1.88-.731-.932 0-1.899.259-2.899.778l-.343-.797c1.106-.519 2.198-.777 3.279-.777 1.105 0 1.931.286 2.477.861.547.574.82 1.469.82 2.686v6.695h-.676zm3.936 0h.917v-14.411h-.917zm13.234.185c-1.439 0-2.566-.454-3.381-1.361-.815-.908-1.222-2.173-1.222-3.798 0-1.666.423-2.964 1.269-3.893.845-.929 2.003-1.394 3.473-1.394.87 0 1.704.151 2.5.454l-.25.815c-.87-.291-1.627-.436-2.269-.436-1.235 0-2.17.382-2.806 1.144-.636.763-.954 1.86-.954 3.293 0 1.357.318 2.421.954 3.189.636.769 1.525 1.154 2.667 1.154a6.55 6.55 0 002.547-.491v.852c-.642.315-1.485.472-2.528.472m4.991-.185h.918v-10.067h-.918v10.067zm-.129-12.864c0-.593.194-.889.583-.889.192 0 .342.078.449.232.108.154.163.373.163.657 0 .278-.055.497-.163.657a.51.51 0 01-.449.242c-.389 0-.583-.3-.583-.899zm11.438 12.864v-6.529c0-1.013-.214-1.749-.64-2.209-.425-.46-1.086-.69-1.982-.69-1.204 0-2.085.304-2.643.912-.56.609-.839 1.595-.839 2.96v5.556h-.917v-10.067h.778l.176 1.38h.056c.654-1.049 1.818-1.574 3.491-1.574 2.284 0 3.427 1.226 3.427 3.676v6.585h-.907m7.965-9.446c-.97 0-1.748.319-2.335.958s-.929 1.56-1.027 2.764h6.223c0-1.166-.253-2.079-.76-2.736-.506-.657-1.207-.986-2.101-.986zm.268 9.631c-1.464 0-2.604-.451-3.422-1.352-.818-.901-1.227-2.164-1.227-3.788 0-1.605.395-2.89 1.185-3.857.79-.966 1.856-1.449 3.196-1.449 1.185 0 2.12.413 2.805 1.24.685.828 1.028 1.952 1.028 3.372v.74h-7.251c.012 1.384.335 2.439.968 3.168.632.729 1.539 1.093 2.718 1.093.574 0 1.079-.04 1.514-.121.436-.079.986-.253 1.653-.519v.834a7.333 7.333 0 01-1.574.505 8.704 8.704 0 01-1.593.134zm18.921-.185v-6.603c0-.982-.192-1.698-.575-2.149-.383-.451-.969-.676-1.759-.676-1.031 0-1.794.284-2.288.852-.493.568-.74 1.46-.74 2.677v5.899h-.936v-6.881c0-1.698-.778-2.547-2.334-2.547-1.055 0-1.824.307-2.306.922-.482.614-.722 1.597-.722 2.95v5.556h-.917v-10.067h.759l.195 1.38h.056c.277-.5.672-.887 1.185-1.162a3.524 3.524 0 011.695-.412c1.586 0 2.605.596 3.056 1.787h.037a3.425 3.425 0 011.319-1.324c.553-.309 1.181-.463 1.885-.463 1.099 0 1.923.293 2.473.88.549.586.824 1.518.824 2.796v6.585h-.907m6.575-.648c1.075 0 1.922-.307 2.542-.921.621-.615.931-1.469.931-2.562v-.99l-1.76.074c-1.413.068-2.421.288-3.023.662-.602.373-.904.955-.904 1.746 0 .63.193 1.119.579 1.467.386.349.932.524 1.635.524zm3.705.648l-.232-1.593h-.074c-.506.649-1.027 1.107-1.561 1.375-.534.269-1.165.403-1.894.403-.987 0-1.756-.253-2.305-.759-.55-.506-.825-1.207-.825-2.103 0-.981.409-1.743 1.227-2.287.818-.543 2.003-.831 3.552-.861l1.917-.056v-.667c0-.957-.195-1.679-.584-2.167-.389-.488-1.015-.731-1.879-.731-.932 0-1.899.259-2.899.778l-.343-.797c1.106-.519 2.198-.777 3.278-.777 1.106 0 1.932.286 2.478.861.547.574.819 1.469.819 2.686v6.695h-.675zM174.423 65.222v9.266c0 1.531.862 2.161 2.585 2.161.469 0 .822-.042 1.37-.117l.315 2.512c-.979.195-1.843.312-2.702.312-2.979 0-4.587-1.57-4.587-5.181v-8.953h-2.623v-.392l2.623-2.551v-2.866l3.019-2.24v5.378h4.857v2.671h-4.857m19.754 4.163c-.197-2.553-1.645-4.555-4.544-4.555-2.666 0-4.309 1.728-4.662 4.555h9.206zm2.743 2.354h-12.068c.353 2.827 1.921 4.949 6.151 4.949 1.374 0 3.016-.393 4.544-.903l.551 2.629c-1.882.55-3.841.942-5.369.942-5.915 0-8.892-3.729-8.892-8.48 0-4.514 2.899-8.637 7.991-8.637 4.663 0 7.21 3.454 7.21 7.931 0 .549 0 .983-.118 1.569zm11.959 7.617c-5.211 0-8.895-3.729-8.895-8.48s3.684-8.637 8.895-8.637c2.037 0 4.113.746 5.601 1.689l-1.254 2.353c-1.331-.783-2.939-1.373-4.621-1.373-3.215 0-5.643 2.201-5.643 5.968 0 3.572 2.821 5.812 5.839 5.812 1.684 0 3.289-.59 4.622-1.376l1.057 2.357c-1.488.943-3.564 1.687-5.601 1.687m20.84-.312V68.676c0-2.551-1.097-3.846-3.447-3.846-1.841 0-3.919 1.295-5.133 2.668v11.546h-3.093v-28.78h3.093v14.764c1.724-1.769 3.76-2.789 5.914-2.789 3.804 0 5.762 2.318 5.762 5.613v11.192h-3.096m18.764 0V68.676c0-2.551-.94-3.846-3.33-3.846-1.84 0-3.76 1.295-5.014 2.668v11.546h-3.094V62.551h2.937v2.516c1.725-1.73 3.879-2.828 6.073-2.828 3.802 0 5.524 2.318 5.524 5.613v11.192h-3.096m8.306 0h3.093V62.551h-3.093v16.493zm1.567-20.219a1.97 1.97 0 01-1.96-1.964c0-1.101.862-2.003 1.96-2.003 1.095 0 1.958.902 1.958 2.003a1.97 1.97 0 01-1.958 1.964zm14.376 20.531c-5.208 0-8.891-3.729-8.891-8.48s3.683-8.637 8.891-8.637c2.037 0 4.113.746 5.602 1.689l-1.253 2.353c-1.333-.783-2.937-1.373-4.622-1.373-3.213 0-5.642 2.201-5.642 5.968 0 3.572 2.817 5.812 5.838 5.812 1.683 0 3.29-.59 4.622-1.376l1.057 2.357c-1.489.943-3.565 1.687-5.602 1.687m16.221-14.605c-3.176 0-5.29 2.434-5.29 6.048 0 3.609 2.114 6.044 5.29 6.044 3.135 0 5.247-2.435 5.247-6.044 0-3.614-2.112-6.048-5.247-6.048m0 14.605c-5.014 0-8.348-3.847-8.348-8.557 0-4.712 3.334-8.56 8.348-8.56 5.014 0 8.305 3.848 8.305 8.56 0 4.71-3.291 8.557-8.305 8.557m11.829-.312h3.093v-28.78h-3.093zm14.966-14.293c-3.175 0-5.291 2.434-5.291 6.048 0 3.609 2.116 6.044 5.291 6.044 3.132 0 5.25-2.435 5.25-6.044 0-3.614-2.118-6.048-5.25-6.048m0 14.605c-5.014 0-8.348-3.847-8.348-8.557 0-4.712 3.334-8.56 8.348-8.56 5.013 0 8.303 3.848 8.303 8.56 0 4.71-3.29 8.557-8.303 8.557m14.805-11.581v11.269h-3.094V62.551h2.938V65.3c1.568-2.042 3.724-3.061 5.876-3.061v3.022c-2.388 0-4.582.863-5.72 2.514M77.273 14.269c-29.373 0-53.268 23.898-53.268 53.271-.001 29.373 23.895 53.27 53.268 53.27s53.271-23.897 53.271-53.27c0-29.373-23.897-53.271-53.271-53.271zm0 112.404c-32.606 0-59.131-26.528-59.131-59.133 0-32.607 26.526-59.134 59.132-59.134 32.605 0 59.132 26.528 59.132 59.134s-26.527 59.133-59.133 59.133z"/><path d="M40.961 56.743a2.887 2.887 0 012.889-2.886h2.13v23.687h-4.777v-1.673h-.121c-.42.694-2.001 2.106-4.955 2.106-4.777 0-8.277-3.929-8.277-8.973.001-5.681 4.366-8.811 8.186-8.811 3.424 0 4.925 1.522 4.925 1.522v-4.972zm-4.019 16.551c3.146 0 4.293-2.569 4.293-4.323 0-2.025-1.45-4.202-4.229-4.202-2.904 0-4.263 2.269-4.263 4.202 0 2.599 1.845 4.323 4.199 4.323zm15.569-6.106c.206-.996 1.208-2.869 3.805-2.869 2.6 0 3.596 1.873 3.807 2.869h-7.612zm12.627 2.056c0-5.105-3.748-9.153-8.853-9.153-5.108 0-8.794 4.318-8.794 9.001 0 4.986 4.078 8.886 8.885 8.886 1.724 0 3.385-.513 4.777-1.513 1.42-.966 2.599-2.417 3.413-4.289H60.67c-.736 0-1.408.275-1.916.727-.574.506-1.298.848-2.378.848-1.964 0-3.624-1.184-3.929-3.176h12.571c.063-.395.12-.667.12-1.331zm1.624-12.501a2.888 2.888 0 012.888-2.886h2.13v23.579h-5.018V56.743m46.172 10.445c.206-.996 1.208-2.871 3.806-2.871 2.601 0 3.599 1.875 3.806 2.871h-7.612zm12.629 2.056c0-5.105-3.749-9.155-8.855-9.155s-8.792 4.319-8.792 9.003c0 4.988 4.078 8.886 8.885 8.886 1.722 0 3.383-.513 4.775-1.513 1.42-.966 2.599-2.414 3.415-4.289h-3.896c-.736 0-1.406.275-1.918.727-.576.506-1.298.848-2.376.848-1.966 0-3.624-1.184-3.929-3.178l12.569.001c.064-.394.122-.665.122-1.33zm-51.621-5.693a2.886 2.886 0 012.886-2.888h2.129v9.279c0 1.146 0 3.355 2.69 3.355 1.448 0 2.869-.758 2.869-3.416v-6.33a2.888 2.888 0 012.89-2.888h2.126v16.773h-4.74v-1.784h-.066c-1.026 2.146-3.079 2.326-4.35 2.326-1.029 0-3.444-.242-4.926-2.116-1.328-1.663-1.508-2.868-1.508-5.164v-7.147"/><path d="M97.612 76.196a2.884 2.884 0 01-2.372 1.24h-4.488l6.5-8.852-5.774-7.921h6.017l2.541 4.128 2.038-2.768a2.886 2.886 0 012.451-1.36h4.33l-5.651 7.799 6.501 8.974h-6.141l-3.353-5.2-2.599 3.96m27.739.213h.298c.144 0 .24-.02.293-.062a.21.21 0 00.078-.17.187.187 0 00-.039-.123.213.213 0 00-.105-.079.712.712 0 00-.246-.027h-.279v.461zm-.248.863V75.74h.525c.18 0 .312.014.39.043a.39.39 0 01.194.149.408.408 0 01-.049.516.48.48 0 01-.318.139c.055.023.097.05.128.08.063.062.139.163.227.305l.188.3h-.302l-.136-.241c-.108-.192-.193-.31-.258-.358-.045-.036-.111-.052-.198-.052h-.143v.651h-.248zm.624-1.975c-.202 0-.395.052-.585.155a1.105 1.105 0 00-.443.438c-.106.19-.16.389-.16.596 0 .203.053.401.158.588.105.188.25.335.439.44.187.102.385.156.591.156.202 0 .4-.054.589-.156.189-.105.335-.252.439-.44a1.198 1.198 0 00-.003-1.184 1.085 1.085 0 00-.445-.438 1.195 1.195 0 00-.58-.155zm0-.235c.238 0 .471.062.699.185.227.122.403.297.531.523a1.431 1.431 0 01.002 1.421 1.273 1.273 0 01-.525.526 1.42 1.42 0 01-1.418 0 1.31 1.31 0 01-.525-.526 1.443 1.443 0 01-.188-.705c0-.248.064-.486.189-.716.129-.226.308-.401.535-.523.227-.123.461-.185.7-.185zm181.532 33.228h12.869V95.977h-12.869zm-.243-13.244l-.014-.032-2.49-3.224-1.695-2.147-.622-.769h11.237l.053.067 1.188 1.18.775.777c.862.868 1.888 1.911 3.054 3.116l.994 1.032h-12.48m-13.53 16.112V95.977h12.869l.001 15.181h-12.87m27.254-16.112l-1.081-1.155a329.517 329.517 0 00-3.635-3.715l-1.304-1.302h11.163l7.211 6.172H320.74m-68.568 0v-.591c.006-2.776.001-4.741-.001-5.581h11.474l.034.285.222.95c.122.532.241 1.061.374 1.67l.222 1.051c.151.724.295 1.443.443 2.216h-12.768m82.268 0a260.622 260.622 0 00-7.177-6.172h11.141c-.037.007.292.248.871.672 1.312.961 3.922 2.87 7.453 5.5H334.44m.363 25.539h12.87V95.977h-12.87zm-68.861-7.376h12.869V95.977h-12.869zm-.08-18.163l-.218-1.12-.23-1.13c-.4-1.934-.722-3.292-.875-3.922h11.524l.012.062.25.572c.258.588.592 1.364.994 2.335.376.909.81 1.988 1.279 3.203h-12.736m-13.692 25.129h12.869V95.977H252.17zm27.544-2.461V95.977h12.868l.001 21.737h-12.869m13.54-22.668a91.571 91.571 0 00-2.42-4.141l-.942-1.503a71.36 71.36 0 00-.339-.528h11.484c.102.142.305.394.608.77l.487.606.984 1.239a348.98 348.98 0 012.759 3.557h-12.621m27.777 20.213H333.9V95.977h-12.869zm-41.437-20.213a20.788 20.788 0 01-.409-.993l-.46-1.162c-.303-.757-.551-1.359-.774-1.891l-.916-2.126h11.434l.007.019.385.59c.246.383.52.812.843 1.33l.643 1.041.585.966.751 1.266.558.96h-12.647m-68.402 0l1.692-2.953c.97-1.702 1.607-2.827 1.849-3.254l11.445.034c-.35.962-1.153 3.15-2.311 6.173h-12.675m13.433 24.718V95.977h12.885l-.015 23.787h-12.87m-27.544-3.687h12.868v-20.1h-12.868zm41.412-21.031l.544-2.925.135-.761c.219-1.255.359-2.112.427-2.546l11.667.059c.003.975.008 3.138.002 6.173h-12.775m-81.785 0a795.223 795.223 0 018.429-6.202l10.934.029-3.52 3.023-3.632 3.15h-12.211m68.129 0l.641-1.685 1.104-2.952.553-1.52 11.538-.014-.012.08c-.126.78-.342 2.072-.665 3.839l-.421 2.252h-12.738m13.561 19.392V95.977h12.868l.001 18.461h-12.869m-27.546 8.195h12.87V95.977h-12.87zm-55.089-7.784h12.87V95.977h-12.87zm14.559-19.803l1.98-1.718a777.445 777.445 0 015.243-4.503l11.066.047c-.826.851-2.332 2.408-4.606 4.777l-1.337 1.397h-12.346m-.786 28.408h12.869V95.977h-12.869zm13.772-11.063h12.87V95.977h-12.87zm14.254-17.345l4.754-6.198 11.351.025c-.642 1.127-3.172 5.558-3.524 6.173h-12.581m-13.624 0l.254-.265c2.381-2.483 3.984-4.143 4.895-5.084l.822-.844 11.236.02-4.735 6.173h-12.472"/></g></svg>