<svg version="1.1" id="Layer_1" xmlns="http://www.w3.org/2000/svg" x="0" y="0" viewBox="0 0 736.3 465.7" xml:space="preserve"><style>.st1{fill:#fff}</style><path fill="#646464" d="M368 23.8L20 363.1l497.9 81.6 198-108.3z"/><path class="st1" d="M368 26.6L712.5 336l-195 106.6-493.3-80.8L368 26.6m0-2.8L20 363.1l497.9 81.5 198-108.3L368 23.8z"/><path fill="#00325a" d="M100.3 284.9l381.6 58.6 159.6-73.9L368 23.8z"/><path class="st1" d="M368 26.6L637.9 269l-156.3 72.4-377.1-57.9L368 26.6m0-2.8l-267.7 261L482 343.4l159.6-73.9L368 23.8z"/><path fill="#c6c6c6" d="M448.6 251.8l113-52.4-193.7-174-189.6 184.8z"/><path class="st1" d="M448.6 252.8h-.2l-270.3-41.5c-.4-.1-.7-.3-.8-.7s0-.8.3-1L367.2 24.7c.4-.4 1-.4 1.4 0l193.7 174c.2.2.4.6.3.9 0 .3-.3.6-.6.8l-113 52.4c-.1-.1-.2 0-.4 0zm-268.1-43.2l268 41.2 111.4-51.6L368 26.8 180.5 209.6z"/><path fill="#00b4ff" d="M417 157.2l65.5-30.4-114.6-103-111.5 108.7z"/><path class="st1" d="M367.9 26.6l111 99.7-62.2 28.8-156-24L367.9 26.6m0-2.8L256.4 132.5 417 157.2l65.5-30.4-114.6-103z"/><path d="M368 23.8l347.9 312.6-198 108.3z" opacity=".25"/><path class="st1" d="M190.5 357.7l8.3-22.7 9.1 1.3-1 2.7-6.2-.9-2.6 7.1 5.2.8-1 2.7-5.2-.8-2.7 7.5 6.3.9-1 2.7-9.2-1.3zm22.6-8.9l.1 12.3-3-.4.1-9.4-6.2 8.5-3-.4 8.6-11v-11.7l3 .5-.3 8.7 5.6-7.9 3 .4-7.9 10.4zm19.4-3.8l-1.5 4.1c-1.2 3.3-3.7 4.5-7 4l-2.5-.4-3.3 9.1-2.9-.4 8.3-22.7 5.4.8c3.3.4 4.7 2.2 3.5 5.5zm-3.1.2c.7-2 .1-2.8-1.5-3.1l-2.4-.4-3 8.2 2.4.4c1.6.2 2.7-.3 3.4-2.3l1.1-2.8zm-.8 18.1l8.3-22.7 9.1 1.3-1 2.7-6.2-.9-2.6 7.1 5.2.8-1 2.7-5.2-.8-2.7 7.5 6.3.9-1 2.7-9.2-1.3zm20.4 3l.4-9.8-2.5-.4-3.4 9.3-2.9-.4 8.3-22.7 5.4.8c3.3.5 4.7 2.2 3.5 5.6l-1.4 3.8c-.8 2.3-2.3 3.5-4.1 4l-.3 10.3-3-.5zm-1.1-12.8l2.4.4c1.6.2 2.7-.3 3.4-2.3l1-2.7c.7-2 .1-2.8-1.5-3.1l-2.4-.4-2.9 8.1zm6.7 13.7l8.3-22.7 2.9.4-8.3 22.7-2.9-.4zm6.5.9l8.3-22.7 9.1 1.3-1 2.7-6.2-.9-2.6 7.1 5.2.8-1 2.7-5.2-.8-2.7 7.5 6.3.9-1 2.7-9.2-1.3zm12 1.8l8.3-22.7 2.9.4-.3 16.5 5.7-15.6 2.7.4-8.3 22.7-2.8-.4.3-17-5.9 16.2-2.6-.5zm26.5-.9c-1.2 3.4-3.7 4.5-7 4h-.1c-3.3-.5-4.7-2.1-3.5-5.6l5-13.6c1.2-3.3 3.7-4.5 7-4h.1c3.3.5 4.7 2.3 3.5 5.6l-1.5 4.1-2.9-.4 1.3-3.5c.7-2 .2-2.8-1.4-3s-2.6.4-3.4 2.3l-4.5 12.5c-.7 2-.2 2.8 1.4 3s2.6-.4 3.4-2.3l1.5-4 2.9.4-1.8 4.5zm1.5 5.1l8.3-22.7 9.1 1.3-1 2.7-6.2-.9-2.6 7.1 5.2.8-1 2.7-5.2-.8-2.7 7.5 6.3.9-1 2.7-9.2-1.3zm24.2-12l1.1-3.1c.7-1.8.1-2.7-1.4-2.9-1.5-.2-2.6.4-3.2 2.2l-.6 1.6c-.5 1.4-.2 1.9.7 2.8l2.2 2c1.4 1.4 2.2 2.7 1.4 4.8l-1.1 3.1c-1.2 3.4-3.6 4.5-6.9 4h-.1c-3.3-.5-4.7-2.1-3.4-5.5l1.4-3.9 2.8.4-1.2 3.3c-.7 1.8-.1 2.7 1.4 2.9 1.5.2 2.6-.5 3.3-2.3l.7-1.8c.5-1.4.2-2-.7-2.9l-2.2-2c-1.5-1.5-2.2-2.6-1.4-4.8l1-2.9c1.2-3.3 3.9-4.4 6.8-3.9h.1c3 .4 4.6 2.2 3.4 5.4l-1.3 3.6-2.8-.1zm-67.9-97.9c1.8.6 1.8 2.3 1.2 4l-1.4 3.7c-1 2.8-3.5 4.2-6.8 3.7l-5.4-.8 8.3-22.7 5.5.8c3.3.5 4.4 2.5 3.4 5.2l-1 2.9c-.7 1.5-1.9 3.2-3.8 3.2zm-3.1.9l-2.6-.4-2.8 7.8 2.6.4c1.4.2 2.4-.4 3-2l1.2-3.4c.6-1.4 0-2.1-1.4-2.4zm-1.6-2.9l2.5.4c1.4.2 2.4-.3 2.9-1.7l1-2.6c.6-1.6.1-2.4-1.3-2.7l-2.5-.4-2.6 7zm5.9 14.6l8.3-22.7 9.1 1.3-1 2.7-6.2-.9-2.6 7.1 5.2.8-1 2.7-5.2-.8-2.7 7.5 6.3.9-1 2.7-9.2-1.3zm20.7 3.1l-8.7-1.3 8.3-22.7 2.9.4-7.3 20 5.8.9-1 2.7zm2.3.3l8.3-22.7 2.9.4-8.3 22.7-2.9-.4zm6.5 1l8.3-22.7 9.1 1.3-1 2.7-6.2-.9-2.6 7.1 5.2.8-1 2.7-5.2-.8-2.7 7.5 6.3.9-1 2.7-9.2-1.3zm20.2-21l9 1.3-1 2.7-6.1-.9-2.7 7.3 5.1.8-1 2.7-5.1-.8-3.6 10-2.9-.4 8.3-22.7zm15.2 10.7l1.1-3.1c.7-1.8.1-2.7-1.4-2.9-1.5-.2-2.6.4-3.2 2.2l-.6 1.6c-.5 1.4-.2 1.9.7 2.8l2.2 2c1.4 1.4 2.2 2.7 1.4 4.8l-1.1 3.1c-1.2 3.4-3.6 4.5-6.9 4h-.1c-3.3-.5-4.7-2.1-3.4-5.5l1.4-3.9 2.8.4-1.2 3.3c-.6 1.8-.1 2.7 1.4 2.9 1.5.2 2.6-.5 3.3-2.3l.6-1.8c.5-1.4.2-2-.7-2.9l-2.2-2c-1.5-1.5-2.2-2.6-1.4-4.8l1-2.9c1.2-3.3 3.9-4.4 6.8-3.9h.1c3 .4 4.6 2.2 3.4 5.4l-1.3 3.6-2.7-.1zM280 189l-4.6-.7-2.9 5.2-2.8-.4 12.6-22.1 3.6.5-3.9 23.4-3-.4 1-5.5zm.5-2.6l2.1-11.2-5.9 10.7 3.8.5zm15.4 5.8c-1.2 3.4-3.7 4.5-7 4h-.1c-3.3-.5-4.7-2.1-3.5-5.6l5-13.6c1.2-3.3 3.7-4.5 7-4h.1c3.3.5 4.7 2.3 3.5 5.6l-1.5 4.1-2.9-.4 1.3-3.5c.7-2 .2-2.8-1.4-3-1.6-.2-2.6.4-3.4 2.3l-4.5 12.5c-.7 2-.2 2.8 1.4 3 1.6.2 2.6-.4 3.4-2.3l1.5-4 2.9.4-1.8 4.5zm17.8-13.7l-3.7-.5-7.3 20-2.9-.4 7.3-20-3.8-.6 1-2.7 10.4 1.5-1 2.7zm-5 20.4l8.3-22.7 2.9.4-8.3 22.7-2.9-.4zm19.9-21.3h.2c3.3.5 4.7 2.2 3.5 5.6l-5 13.6c-1.2 3.3-3.7 4.5-7 4h-.2c-3.3-.5-4.7-2.2-3.5-5.6l5-13.6c1.3-3.3 3.8-4.5 7-4zm-7.3 20.6c1.6.2 2.7-.3 3.4-2.3l4.5-12.5c.7-2 .1-2.8-1.5-3.1-1.6-.2-2.7.3-3.4 2.3l-4.5 12.5c-.7 2-.1 2.9 1.5 3.1zm7.8 3.7l8.3-22.7 2.9.4-.3 16.4 5.7-15.6 2.7.4-8.3 22.7-2.8-.4.3-17-5.9 16.2-2.6-.4zm26.8-11.5l1.1-3.1c.7-1.8.1-2.7-1.4-2.9-1.5-.2-2.6.4-3.2 2.2l-.6 1.6c-.5 1.4-.2 1.9.7 2.8l2.2 2c1.4 1.4 2.2 2.7 1.4 4.8l-1.1 3.1c-1.2 3.4-3.6 4.5-6.9 4h-.1c-3.3-.5-4.7-2.1-3.4-5.5l1.4-3.9 2.8.4-1.2 3.3c-.6 1.8-.1 2.7 1.4 2.9 1.5.2 2.6-.5 3.3-2.3l.6-1.8c.5-1.4.2-2-.7-2.9l-2.2-2c-1.5-1.5-2.2-2.6-1.4-4.8l1-2.9c1.2-3.3 3.9-4.4 6.8-3.9h.1c3 .4 4.6 2.2 3.4 5.4l-1.3 3.6-2.7-.1zm-46.4-77.7l.4-9.8-2.5-.4-3.4 9.3-2.9-.4 8.3-22.7 5.4.8c3.3.5 4.7 2.2 3.5 5.6l-1.4 3.8c-.8 2.3-2.3 3.5-4.1 4l-.3 10.3-3-.5zm-1.2-12.8l2.4.4c1.6.2 2.7-.3 3.4-2.3l1-2.7c.7-2 .1-2.8-1.5-3.1l-2.4-.4-2.9 8.1zm6.6 13.6l8.3-22.7 9.1 1.3-1 2.7-6.2-.9-2.6 7.1 5.2.8-1 2.7-5.2-.8-2.7 7.5 6.3.9-1 2.7-9.2-1.3zm24.2-11.9l1.1-3.1c.7-1.8.1-2.7-1.4-2.9-1.5-.2-2.6.4-3.2 2.2l-.6 1.6c-.5 1.4-.2 1.9.7 2.8l2.2 2c1.4 1.4 2.2 2.7 1.4 4.8l-1.1 3.1c-1.2 3.4-3.6 4.5-6.9 4h-.1c-3.3-.5-4.7-2.1-3.4-5.5l1.4-3.9 2.8.4-1.2 3.3c-.6 1.8-.1 2.7 1.4 2.9 1.5.2 2.6-.5 3.3-2.2l.7-1.8c.5-1.4.2-2-.7-2.9l-2.2-2c-1.5-1.5-2.2-2.6-1.4-4.8l1-2.9c1.2-3.3 3.9-4.4 6.8-3.9h.1c3 .4 4.6 2.2 3.4 5.4l-1.3 3.6-2.8-.2zm12.6 12.6c-1.2 3.4-3.7 4.5-6.9 4h-.1c-3.3-.5-4.7-2.1-3.4-5.6l6.6-18.2 2.9.4-6.4 17.6c-.7 2-.2 2.8 1.4 3 1.6.2 2.6-.3 3.3-2.3l6.4-17.6 2.9.4-6.7 18.3zm10.4 6.3l-8.7-1.3 8.3-22.7 2.9.4-7.3 20 5.8.9-1 2.7zm16.7-18.6l-3.8-.6-7.3 20-2.9-.4 7.3-20-3.8-.6 1-2.7 10.4 1.5-.9 2.8zm7.1 6.7l1.1-3.1c.7-1.8.1-2.7-1.4-2.9-1.5-.2-2.6.4-3.2 2.2l-.6 1.6c-.5 1.4-.2 1.9.7 2.8l2.2 2c1.4 1.4 2.2 2.7 1.4 4.8l-1.1 3.1c-1.2 3.4-3.6 4.5-6.9 4h-.1c-3.3-.5-4.7-2.1-3.4-5.5l1.4-3.9 2.8.4-1.2 3.3c-.6 1.8-.1 2.7 1.4 2.9 1.5.2 2.6-.5 3.3-2.2l.7-1.8c.5-1.4.2-2-.7-2.9l-2.2-2c-1.5-1.5-2.2-2.6-1.4-4.8l1-2.9c1.2-3.3 3.9-4.4 6.8-3.9h.1c3 .4 4.6 2.2 3.4 5.4l-1.3 3.6-2.8-.2zm-14.8-79.3L712.5 336 519 441.8 371.1 29.3m-3.1-5.5v2.7l149.9 418.1 198-108.3L368 23.8z"/></svg>